<?xml version="1.0" encoding="UTF-8" standalone="no"?>
<!-- Created with Inkscape (http://www.inkscape.org/) -->

<svg
   xmlns:dc="http://purl.org/dc/elements/1.1/"
   xmlns:cc="http://creativecommons.org/ns#"
   xmlns:rdf="http://www.w3.org/1999/02/22-rdf-syntax-ns#"
   xmlns:svg="http://www.w3.org/2000/svg"
   xmlns="http://www.w3.org/2000/svg"
   xmlns:xlink="http://www.w3.org/1999/xlink"
   xmlns:sodipodi="http://sodipodi.sourceforge.net/DTD/sodipodi-0.dtd"
   xmlns:inkscape="http://www.inkscape.org/namespaces/inkscape"
   width="48"
   height="48"
   id="svg4230"
   version="1.1"
   inkscape:version="0.48.4 r9939"
   sodipodi:docname="distributor-logo-kaos.svg">
  <defs
     id="defs4232">
    <linearGradient
       id="linearGradient4678">
      <stop
         id="stop4680"
         offset="0"
         style="stop-color:#0a7fe7;stop-opacity:1;" />
      <stop
         id="stop4682"
         offset="1"
         style="stop-color:#50bffc;stop-opacity:1" />
    </linearGradient>
    <linearGradient
       inkscape:collect="always"
       xlink:href="#linearGradient4678"
       id="linearGradient4101"
       x1="29.109528"
       y1="1049.3851"
       x2="29.109528"
       y2="1007.3748"
       gradientUnits="userSpaceOnUse" />
    <linearGradient
       id="linearGradient1489">
      <stop
         style="stop-color:#f9f9f9;stop-opacity:1"
         offset="0"
         id="stop1491" />
      <stop
         style="stop-color:#ffffff;stop-opacity:1"
         offset="1"
         id="stop1493" />
    </linearGradient>
    <linearGradient
       id="linearGradient3795">
      <stop
         id="stop3797"
         offset="0"
         style="stop-color:#1e92ce;stop-opacity:1" />
      <stop
         id="stop3799"
         offset="1"
         style="stop-color:#3aaeea;stop-opacity:1" />
    </linearGradient>
  </defs>
  <sodipodi:namedview
     id="base"
     pagecolor="#ffffff"
     bordercolor="#666666"
     borderopacity="1.0"
     inkscape:pageopacity="0.0"
     inkscape:pageshadow="2"
     inkscape:zoom="3.8479082"
     inkscape:cx="-23.590379"
     inkscape:cy="13.84564"
     inkscape:document-units="px"
     inkscape:current-layer="layer1"
     showgrid="false"
     inkscape:showpageshadow="false"
     borderlayer="true"
     inkscape:window-width="1366"
     inkscape:window-height="689"
     inkscape:window-x="-2"
     inkscape:window-y="-3"
     inkscape:window-maximized="1" />
  <metadata
     id="metadata4235">
    <rdf:RDF>
      <cc:Work
         rdf:about="">
        <dc:format>image/svg+xml</dc:format>
        <dc:type
           rdf:resource="http://purl.org/dc/dcmitype/StillImage" />
        <dc:title />
      </cc:Work>
    </rdf:RDF>
  </metadata>
  <g
     inkscape:label="Capa 1"
     inkscape:groupmode="layer"
     id="layer1"
     transform="translate(0,-1004.3622)">
    <path
       style="fill:#000000"
       d=""
       id="path906"
       inkscape:connector-curvature="0" />
    <rect
       style="fill:#000000;fill-opacity:0.01960784;stroke:none"
       id="rect5263-0"
       width="44.399963"
       height="44.399963"
       x="1.8000183"
       y="1006.1622"
       ry="6.2786646" />
    <rect
       ry="6.1938181"
       y="1006.4623"
       x="2.1000061"
       height="43.799973"
       width="43.799973"
       id="rect5261-1"
       style="fill:#000000;fill-opacity:0.03921569;stroke:none" />
    <rect
       style="fill:#000000;fill-opacity:0.07843137;stroke:none"
       id="rect5259-9"
       width="43.199982"
       height="43.199982"
       x="2.3999939"
       y="1006.7624"
       ry="6.1089716" />
    <rect
       ry="6.0241251"
       y="1007.0624"
       x="2.7000122"
       height="42.599991"
       width="42.599991"
       id="rect5257-6"
       style="fill:#000000;fill-opacity:0.15686275;stroke:none" />
    <rect
       style="fill:url(#linearGradient4101);fill-opacity:1.0;stroke:none"
       id="rect5237-3"
       width="42"
       height="42"
       x="3"
       y="1007.3622"
       ry="5.9392786" />
    <path
       inkscape:connector-curvature="0"
       style="fill:#000000;fill-opacity:0.11764706;stroke:none"
       d="m 2.9999991,1040.9247 0,2.5 c 0,3.2904 2.64714,5.9375 5.9375,5.9375 l 30.1249999,0 c 3.29036,0 5.9375,-2.6471 5.9375,-5.9375 l 0,-2.5 c 0,3.2904 -2.64714,5.9375 -5.9375,5.9375 l -30.1249999,0 C 5.6471391,1046.8622 2.9999991,1044.2151 2.9999991,1040.9247 Z"
       id="rect5265-8" />
    <path
       inkscape:connector-curvature="0"
       style="fill:#000000;fill-opacity:0.09803922;stroke:none"
       d="m 2.9999991,1042.9247 0,0.5 c 0,3.2904 2.64714,5.9375 5.9375,5.9375 l 30.1249999,0 c 3.29036,0 5.9375,-2.6471 5.9375,-5.9375 l 0,-0.5 c 0,3.2904 -2.64714,5.9375 -5.9375,5.9375 l -30.1249999,0 C 5.6471391,1048.8622 2.9999991,1046.2151 2.9999991,1042.9247 Z"
       id="path5252-0" />
    <g
       transform="matrix(0.152998,0,0,0.152998,-150.22978,964.16842)"
       id="g3086"
       inkscape:export-filename="/home/mcder3/Desktop/G+.png"
       inkscape:export-xdpi="90"
       inkscape:export-ydpi="90"
       style="fill:#000000;fill-opacity:0.49411765">
      <path
         id="path3088"
         d="m 1208.098,354.72911 c -12.4166,1.4e-4 -22.7765,2.93954 -30.8779,9.12586 -8.1064,6.19045 -12.3512,14.51352 -12.3511,24.41479 -10e-5,9.63125 3.7671,17.72547 11.0885,23.4397 7.2236,5.63805 17.6215,10.07621 31.1654,13.47626 12.2251,3.20851 20.7183,6.95668 25.2649,10.81352 4.5816,3.88675 6.7381,8.58256 6.7381,14.73888 0,6.42203 -2.6167,11.20224 -8.1507,15.15142 -5.5395,3.953 -12.9282,6.03807 -22.3146,6.03807 -9.3054,0 -17.2436,-2.23679 -24.0023,-6.60062 -6.5732,-4.24409 -9.6759,-10.35302 -9.6759,-19.36432 l 0,-2.11269 -2.1127,0 -9.1133,0 -1.5502,0 -0.425,1.41263 -0.1375,0.56255 -0.1376,0.27503 0,0.28752 c -0.2923,12.28254 4.577,22.02175 14.1764,28.49018 9.4421,6.36256 20.4386,9.53839 32.9781,9.53839 12.6828,0 23.3504,-2.92054 31.7279,-8.97584 8.4133,-6.08122 12.7637,-14.56215 12.7637,-24.85233 0,-9.84083 -3.6657,-18.08392 -10.9385,-24.13977 -7.1947,-5.99058 -17.5411,-10.63363 -30.8779,-14.03881 -12.3413,-3.09909 -20.8919,-6.76168 -25.5524,-10.52599 -4.7097,-3.80389 -6.8756,-8.15209 -6.8756,-13.75129 0,-5.92011 2.3076,-10.67598 7.4382,-14.73888 5.0561,-4.00376 12.2578,-6.1755 21.752,-6.17558 9.5485,8e-5 16.8088,2.56279 22.1771,7.43819 5.4071,4.91098 8.0007,10.98307 8.0008,18.67676 l 0,1.96268 2.1126,0 9.1259,0 1.2626,0 0.5626,-1.12511 0.275,-0.42504 0.275,-0.41253 0,-0.42504 c 0.2354,-10.60068 -3.8377,-19.90086 -11.9261,-27.22756 -8.1288,-7.36276 -18.8985,-10.95089 -31.8655,-10.95103 z"
         style="font-size:38.28037262px;font-style:normal;font-variant:normal;font-weight:300;font-stretch:normal;text-align:start;line-height:125%;letter-spacing:0px;word-spacing:0px;writing-mode:lr-tb;text-anchor:start;fill:#000000;fill-opacity:0.49411765;stroke:none;font-family:Roboto Light;-inkscape-font-specification:'Roboto Light, Light'"
         inkscape:connector-curvature="0" />
      <path
         id="path3090"
         d="m 1107.7716,354.87977 c -0.9086,0.0528 -1.7937,0.48585 -2.3699,1.27456 l -10e-5,0.0125 -7.0291,9.64974 -0.9447,1.29491 0.1118,0.12564 -3.5524,4.90592 c -3.0206,-0.35047 -6.0845,-0.43097 -9.1751,-0.18818 l -10.69,-15.58574 c -0.8934,-1.30598 -2.4917,-1.7043 -3.8816,-1.12155 l -11.8915,4.97237 c -1.442,0.60145 -2.1164,2.07866 -1.8943,3.47743 l 2.9002,18.13049 c -2.8845,2.23383 -5.4992,4.75568 -7.7674,7.53294 l -18.5454,-3.4653 c -1.4694,-0.27446 -2.9643,0.51806 -3.5359,1.91817 l -4.8916,11.93679 0,0.0125 c -0.555,1.361 -0.034,2.92116 1.092,3.74395 l -2e-4,0.0125 c 0,0.002 0.01,-0.002 0.012,6e-5 l 15.4147,11.22384 c -0.335,3.25038 -0.3798,6.55569 -0.034,9.8759 l -15.3222,10.49158 c -1.21,0.82741 -1.7262,2.45801 -1.1463,3.84409 l 4.9849,11.89133 c 0.5546,1.32566 1.978,2.13557 3.4148,1.90656 l 18.6433,-2.93487 c 2.1662,2.64824 4.5837,5.01805 7.2115,7.1031 l -3.4657,18.6329 -0.012,0.025 -2e-4,0.025 c -0.042,0.26531 0.019,0.50473 0.045,0.76284 l -0.038,-2e-4 c -5e-4,0.20004 0.048,0.39397 0.084,0.588 l 0,0.0125 c 0.1951,1.03913 0.8828,1.96292 1.8745,2.37312 l 0.012,7e-5 11.9121,4.8413 0.012,7e-5 c 1.3004,0.52871 2.8933,0.15676 3.7686,-1.04181 l 7.0292,-9.66224 0.9322,-1.28249 -0.1,-0.11306 3.5525,-4.91841 c 3.0204,0.35047 6.0845,0.43096 9.1749,0.18817 l 10.6902,15.57324 c 0,0.005 0.01,0.007 0.012,0.0125 0.8952,1.29366 2.4847,1.70196 3.8691,1.12149 l 11.8914,-4.98487 c 1.4396,-0.60184 2.1164,-2.06643 1.8943,-3.46493 l -2.9002,-18.14299 c 2.8806,-2.23195 5.5019,-4.75889 7.7675,-7.53293 l 18.5454,3.4653 c 1.4694,0.2744 2.9642,-0.51819 3.5359,-1.9182 l 4.8916,-11.93674 c 0.5549,-1.36101 0.034,-2.92117 -1.0919,-3.74395 -10e-5,-0.002 0,-0.0108 0,-0.0125 l -0.012,-6e-5 -15.4147,-11.23636 c 0.334,-3.2456 0.3789,-6.54821 0.034,-9.86338 l 15.3223,-10.50405 c 1.2103,-0.82744 1.7143,-2.44525 1.1338,-3.83166 l -4.9725,-11.89127 c -0.5529,-1.32146 -1.9823,-2.12886 -3.4147,-1.90657 0,8e-4 -0.01,-8.4e-4 -0.012,-6e-5 l -18.6433,2.92237 c -2.1614,-2.64025 -4.5787,-5.01046 -7.1991,-7.09052 l 3.4658,-18.64539 2e-4,-0.025 0.013,-0.025 c 0.043,-0.26368 -0.021,-0.49367 -0.045,-0.75034 l 0.038,2.1e-4 c 4e-4,-0.19987 -0.049,-0.39406 -0.085,-0.58803 l 10e-5,-0.0125 c -0.1953,-1.03875 -0.8948,-1.96302 -1.8872,-2.37317 l -11.912,-4.85381 c 0,-0.002 -0.01,0.002 -0.012,-6e-5 -0.3221,-0.13103 -0.6685,-0.20959 -1.0111,-0.23061 -0.1302,-0.007 -0.258,-0.01 -0.3876,-0.002 z m -18.604,29.75052 c 1.0394,0.0115 2.0787,0.0719 3.112,0.16721 l 0.3125,0.0267 c 0.7128,0.0525 1.4495,0.17485 2.311,0.30031 0.7311,0.10646 1.5017,0.27309 2.3228,0.45037 0.347,0.0745 0.6524,0.1357 0.9365,0.20519 0,8e-4 0.01,-7.5e-4 0.012,7e-5 0.2478,0.063 0.4897,0.13564 0.7365,0.20408 l 0.012,6e-5 c 0.3972,0.10692 0.7927,0.2281 1.2105,0.35674 0.3052,0.0951 0.627,0.20228 0.9983,0.33054 l 0.012,0.0125 c 0.392,0.13416 0.8212,0.31251 1.3223,0.50736 0.3826,0.14889 0.6554,0.22504 0.786,0.27937 2.265,0.93848 4.4466,2.13807 6.4564,3.51104 0.7015,0.47918 1.3352,0.93365 1.9797,1.44858 l -10e-5,0.0125 c 0.1695,0.13446 0.2796,0.19842 0.2988,0.21418 l 0,0.0125 c 0.2199,0.17938 0.5124,0.45436 0.8833,0.77996 0.01,0.005 0.01,0.007 0.012,0.0125 0.3072,0.27098 0.5517,0.4684 0.6967,0.60392 l 0.012,6e-5 -10e-5,0.0125 c 3.5691,3.29841 6.5057,7.41342 8.5087,12.19832 7.4552,17.81206 -0.9175,38.25872 -18.7296,45.71405 -5.6298,2.35642 -11.5868,3.22469 -17.3548,2.77947 l -0.063,-3.4e-4 -0.038,-2.2e-4 c -0.144,-0.0301 -0.3121,-0.0643 -0.3122,-0.0643 0,0 -0.065,0.008 -0.087,0.012 -12.515,-1.05568 -23.9122,-9.21353 -29.1335,-21.68823 -7.4552,-17.81216 0.9173,-38.25869 18.7295,-45.71407 4.1593,-1.74084 8.5904,-2.59972 13.0163,-2.67842 0.3468,-0.006 0.6911,-0.0103 1.0375,-0.006 z"
         style="font-size:medium;font-style:normal;font-variant:normal;font-weight:normal;font-stretch:normal;text-indent:0;text-align:start;text-decoration:none;line-height:normal;letter-spacing:normal;word-spacing:normal;text-transform:none;direction:ltr;block-progression:tb;writing-mode:lr-tb;text-anchor:start;baseline-shift:baseline;color:#000000;fill:#000000;fill-opacity:0.49411765;fill-rule:nonzero;stroke:none;stroke-width:10;marker:none;visibility:visible;display:inline;overflow:visible;enable-background:accumulate;font-family:Sans;-inkscape-font-specification:Sans"
         inkscape:connector-curvature="0" />
      <g
         style="font-size:187.40089417px;font-style:normal;font-variant:normal;font-weight:300;font-stretch:normal;text-align:start;line-height:125%;letter-spacing:0px;word-spacing:0px;writing-mode:lr-tb;text-anchor:start;fill:#000000;fill-opacity:0.49411765;stroke:none;font-family:Source Sans Pro;-inkscape-font-specification:Source Sans Pro Light"
         id="g3092"
         transform="translate(-4.72939,16.25326)" />
      <g
         id="g3096"
         style="font-size:136.12565613px;font-style:normal;font-variant:normal;font-stretch:normal;text-align:start;line-height:125%;letter-spacing:0px;word-spacing:0px;writing-mode:lr-tb;text-anchor:start;fill:#000000;fill-opacity:0.49411765;stroke:#000000;stroke-width:4;stroke-miterlimit:4;stroke-opacity:1;font-family:URW Gothic L;-inkscape-font-specification:URW Gothic L Book" />
    </g>
  </g>
</svg>
