<svg xmlns="http://www.w3.org/2000/svg" xmlns:xlink="http://www.w3.org/1999/xlink" viewBox="0 0 48 48"><defs><linearGradient xlink:href="#1" id="0" gradientUnits="userSpaceOnUse" x1="31.04" y1="14.291" x2="31.26" y2="-13.88"/><linearGradient id="1"><stop stop-color="#c52828"/><stop offset="1" stop-color="#ff5454"/></linearGradient><linearGradient xlink:href="#1" id="2" x1="31.04" y1="13.929" x2="31.26" y2="-13.513" gradientUnits="userSpaceOnUse"/></defs><g transform="matrix(1.71427 0 0 1.71427-29.21 23.512)" enable-background="new"><circle r="14" cy=".292" cx="31.04" fill="url(#0)"/><g fill="#fff" fill-opacity=".852"><path d="m23.948-4.02c-2.27 2.277-3.518 5.313-3.511 8.555.009 6.763 5.074 9.844 11.293 9.529l.075-.067c-5.509 0-9.256-3.937-9.266-9.468-.003-2.679 1.023-5.187 2.897-7.06 1.884-1.887 4.411-2.929 7.115-2.929v-2.102c-3.268 0-6.32 1.26-8.603 3.546"/><path d="m30.23-4.396c-2.419.652-4.414 2.169-5.617 4.271-2.527 4.417-1.184 9.809 3.192 12.82 3.363 2.954 9.164.422 10.488-.675-.111.028-3.582 2.866-9.294-1.057-3.454-2.375-4.531-6.599-2.558-10.04.925-1.612 2.463-2.78 4.338-3.283 1.922-.519 3.91-.266 5.601.709l1.051-1.824c-2.178-1.257-4.737-1.583-7.2-.918"/><path d="m29.673-.899c-2.099 1.213-3.274 3.42-3.274 5.687 0 1.051.263 2.112.792 3.093l-.006.006c0 .003.019.035.025.048h-.003c0 0 .013.019.022.035.013.025.044.082.048.085.329.567 1.599 2.476 4.382 3.489 3.373 1.231 4.509 1.139 6.084.857 1.715-.98 2.633-1.853 2.633-1.853-1.804.195-4.362.346-7.999-.98-2.191-.798-3.106-2.254-3.274-2.555 0 0-.006-.001-.006-.013-.402-.7-.595-1.463-.595-2.216 0-1.539.798-3.036 2.223-3.863 1.029-.592 2.229-.75 3.378-.443 1.146.307 2.106 1.045 2.701 2.074l1.856-.988-.035-.063c-.874-1.517-2.286-2.6-3.977-3.055-1.691-.453-3.458-.218-4.974.655"/></g><circle r="13.637" cy=".292" cx="31.04" fill="none" stroke="url(#2)" stroke-width=".583"/></g></svg>