<?xml version="1.0" encoding="UTF-8" standalone="no"?>
<!-- Created with Inkscape (http://www.inkscape.org/) -->
<svg
   xmlns:dc="http://purl.org/dc/elements/1.1/"
   xmlns:cc="http://creativecommons.org/ns#"
   xmlns:rdf="http://www.w3.org/1999/02/22-rdf-syntax-ns#"
   xmlns:svg="http://www.w3.org/2000/svg"
   xmlns="http://www.w3.org/2000/svg"
   xmlns:xlink="http://www.w3.org/1999/xlink"
   xmlns:sodipodi="http://sodipodi.sourceforge.net/DTD/sodipodi-0.dtd"
   xmlns:inkscape="http://www.inkscape.org/namespaces/inkscape"
   width="16"
   height="16"
   id="svg2629"
   sodipodi:version="0.32"
   inkscape:version="0.46"
   version="1.0"
   sodipodi:docname="checkbox16x16.svg"
   inkscape:output_extension="org.inkscape.output.svg.inkscape">
  <defs
     id="defs2631">
    <linearGradient
       id="linearGradient7141">
      <stop
         offset="0"
         style="stop-color:#222222;stop-opacity:1;"
         id="stop7143" />
      <stop
         offset="0.23586744"
         style="stop-color:#0c0c0c;stop-opacity:1;"
         id="stop7149" />
      <stop
         offset="1"
         style="stop-color:#000000;stop-opacity:1"
         id="stop7145" />
    </linearGradient>
    <linearGradient
       id="linearGradient3215">
      <stop
         offset="0"
         style="stop-color:#ffffff;stop-opacity:1;"
         id="stop3217" />
      <stop
         offset="0.5"
         style="stop-color:#ffffff;stop-opacity:0.28158844;"
         id="stop3221" />
      <stop
         offset="1"
         style="stop-color:#ffffff;stop-opacity:0;"
         id="stop3219" />
    </linearGradient>
    <radialGradient
       inkscape:collect="always"
       xlink:href="#linearGradient3215"
       id="radialGradient2968"
       gradientUnits="userSpaceOnUse"
       gradientTransform="matrix(-1,0,0,0.4197507,617.21875,939.68651)"
       cx="215"
       cy="1608.8442"
       fx="214.5"
       fy="1575.4911"
       r="91.609375" />
    <linearGradient
       inkscape:collect="always"
       xlink:href="#linearGradient7141"
       id="linearGradient2970"
       gradientUnits="userSpaceOnUse"
       gradientTransform="translate(244.89238,1570.7221)"
       x1="50.10762"
       y1="89.277901"
       x2="50.10762"
       y2="9.2778997" />
    <radialGradient
       inkscape:collect="always"
       xlink:href="#linearGradient3215"
       id="radialGradient2972"
       gradientUnits="userSpaceOnUse"
       gradientTransform="matrix(1,0,0,0.3189789,-1732.0312,1541.3405)"
       cx="2040.6406"
       cy="136.14062"
       fx="2040.6406"
       fy="136.14062"
       r="91.609398" />
    <radialGradient
       inkscape:collect="always"
       xlink:href="#linearGradient3215"
       id="radialGradient2974"
       gradientUnits="userSpaceOnUse"
       gradientTransform="matrix(-0.1681654,4.5059775e-2,4.2099459e-2,0.1571173,569.84457,1467.2968)"
       cx="2132.25"
       cy="136.14069"
       fx="2132.25"
       fy="136.14069"
       r="91.609398" />
    <radialGradient
       inkscape:collect="always"
       xlink:href="#linearGradient3215"
       id="radialGradient2976"
       gradientUnits="userSpaceOnUse"
       gradientTransform="matrix(1,0,0,0.4197507,0,939.68651)"
       cx="215"
       cy="1608.8442"
       fx="214.5"
       fy="1575.4911"
       r="91.609375" />
    <radialGradient
       inkscape:collect="always"
       xlink:href="#linearGradient3215"
       id="radialGradient2531"
       gradientUnits="userSpaceOnUse"
       gradientTransform="matrix(0.200553,0,0,-0.3658025,-411.61177,61.596955)"
       cx="2132.25"
       cy="136.14069"
       fx="2132.25"
       fy="136.14069"
       r="91.609398" />
    <radialGradient
       inkscape:collect="always"
       xlink:href="#linearGradient3215"
       id="radialGradient2534"
       gradientUnits="userSpaceOnUse"
       gradientTransform="matrix(-1.1519571,0,0,0.4813668,265.99186,-811.05517)"
       cx="215"
       cy="1608.8442"
       fx="214.5"
       fy="1575.4911"
       r="91.609375" />
    <radialGradient
       inkscape:collect="always"
       xlink:href="#linearGradient3215"
       id="radialGradient2537"
       gradientUnits="userSpaceOnUse"
       gradientTransform="matrix(-0.200553,0,0,-0.3658025,232.58591,61.637208)"
       cx="2132.25"
       cy="136.14069"
       fx="2132.25"
       fy="136.14069"
       r="91.609398" />
    <radialGradient
       inkscape:collect="always"
       xlink:href="#linearGradient3215"
       id="radialGradient2540"
       gradientUnits="userSpaceOnUse"
       gradientTransform="matrix(-1.1519571,0,0,-0.3658025,2261.2176,61.623561)"
       cx="2040.6406"
       cy="136.14062"
       fx="2040.6406"
       fy="136.14062"
       r="91.609398" />
    <radialGradient
       inkscape:collect="always"
       xlink:href="#linearGradient3215"
       id="radialGradient2543"
       gradientUnits="userSpaceOnUse"
       gradientTransform="matrix(0.1937193,5.1674199e-2,-4.8496771e-2,0.1801809,-390.44464,-205.99577)"
       cx="2132.25"
       cy="136.14069"
       fx="2132.25"
       fy="136.14069"
       r="91.609398" />
    <linearGradient
       inkscape:collect="always"
       xlink:href="#linearGradient7141"
       id="linearGradient2546"
       gradientUnits="userSpaceOnUse"
       gradientTransform="matrix(-1.1519571,0,0,1.1467922,-16.113658,-87.385916)"
       x1="50.10762"
       y1="89.277901"
       x2="50.10762"
       y2="9.2778997" />
    <radialGradient
       inkscape:collect="always"
       xlink:href="#linearGradient3215"
       id="radialGradient2562"
       gradientUnits="userSpaceOnUse"
       gradientTransform="matrix(-0.200553,0,0,-0.3658025,427.6627,61.596955)"
       cx="2132.25"
       cy="136.14069"
       fx="2132.25"
       fy="136.14069"
       r="91.609398" />
    <radialGradient
       inkscape:collect="always"
       xlink:href="#linearGradient3215"
       id="radialGradient2565"
       gradientUnits="userSpaceOnUse"
       gradientTransform="matrix(1.1519571,0,0,0.4813668,-249.94093,-811.05517)"
       cx="215"
       cy="1608.8442"
       fx="214.5"
       fy="1575.4911"
       r="91.609375" />
    <radialGradient
       inkscape:collect="always"
       xlink:href="#linearGradient3215"
       id="radialGradient2568"
       gradientUnits="userSpaceOnUse"
       gradientTransform="matrix(0.200553,0,0,-0.3658025,-216.53498,61.637208)"
       cx="2132.25"
       cy="136.14069"
       fx="2132.25"
       fy="136.14069"
       r="91.609398" />
    <radialGradient
       inkscape:collect="always"
       xlink:href="#linearGradient3215"
       id="radialGradient2571"
       gradientUnits="userSpaceOnUse"
       gradientTransform="matrix(1.1519571,0,0,-0.3658025,-2245.1667,61.623561)"
       cx="2040.6406"
       cy="136.14062"
       fx="2040.6406"
       fy="136.14062"
       r="91.609398" />
    <radialGradient
       inkscape:collect="always"
       xlink:href="#linearGradient3215"
       id="radialGradient2574"
       gradientUnits="userSpaceOnUse"
       gradientTransform="matrix(-0.1937193,5.1674199e-2,4.8496771e-2,0.1801809,406.49557,-205.99577)"
       cx="2132.25"
       cy="136.14069"
       fx="2132.25"
       fy="136.14069"
       r="91.609398" />
    <linearGradient
       inkscape:collect="always"
       xlink:href="#linearGradient7141"
       id="linearGradient2577"
       gradientUnits="userSpaceOnUse"
       gradientTransform="matrix(1.1519571,0,0,1.1467922,32.164589,-87.385916)"
       x1="50.10762"
       y1="89.277901"
       x2="50.10762"
       y2="9.2778997" />
    <radialGradient
       inkscape:collect="always"
       xlink:href="#linearGradient3215"
       id="radialGradient2591"
       gradientUnits="userSpaceOnUse"
       gradientTransform="matrix(1.1519571,0,0,0.4814551,-250.01292,-735.50562)"
       cx="215"
       cy="1608.8442"
       fx="214.5"
       fy="1575.4911"
       r="91.609375" />
    <radialGradient
       inkscape:collect="always"
       xlink:href="#linearGradient3215"
       id="radialGradient2594"
       gradientUnits="userSpaceOnUse"
       gradientTransform="matrix(-0.1937193,5.168367e-2,4.8496771e-2,0.1802139,406.42358,-130.33535)"
       cx="2132.25"
       cy="136.14069"
       fx="2132.25"
       fy="136.14069"
       r="91.609398" />
    <radialGradient
       inkscape:collect="always"
       xlink:href="#linearGradient3215"
       id="radialGradient2597"
       gradientUnits="userSpaceOnUse"
       gradientTransform="matrix(1.1519571,0,0,0.3658696,-2245.2386,-45.407047)"
       cx="2040.6406"
       cy="136.14062"
       fx="2040.6406"
       fy="136.14062"
       r="91.609398" />
    <linearGradient
       inkscape:collect="always"
       xlink:href="#linearGradient7141"
       id="linearGradient2600"
       gradientUnits="userSpaceOnUse"
       gradientTransform="matrix(1.1519571,0,0,1.1470024,32.092596,-11.706282)"
       x1="50.10762"
       y1="89.277901"
       x2="50.10762"
       y2="9.2778997" />
    <radialGradient
       inkscape:collect="always"
       xlink:href="#linearGradient3215"
       id="radialGradient2603"
       gradientUnits="userSpaceOnUse"
       gradientTransform="matrix(-1.1519571,0,0,0.4814551,460.9966,-735.50562)"
       cx="215"
       cy="1608.8442"
       fx="214.5"
       fy="1575.4911"
       r="91.609375" />
  </defs>
  <sodipodi:namedview
     id="base"
     pagecolor="#ffffff"
     bordercolor="#666666"
     borderopacity="1.0"
     inkscape:pageopacity="0.0"
     inkscape:pageshadow="2"
     inkscape:zoom="16"
     inkscape:cx="0.5"
     inkscape:cy="3.650093"
     inkscape:document-units="px"
     inkscape:current-layer="layer1"
     showgrid="false"
     inkscape:window-width="1390"
     inkscape:window-height="934"
     inkscape:window-x="0"
     inkscape:window-y="34" />
  <metadata
     id="metadata2634">
    <rdf:RDF>
      <cc:Work
         rdf:about="">
        <dc:format>image/svg+xml</dc:format>
        <dc:type
           rdf:resource="http://purl.org/dc/dcmitype/StillImage" />
      </cc:Work>
    </rdf:RDF>
  </metadata>
  <g
     inkscape:label="Ebene 1"
     inkscape:groupmode="layer"
     id="layer1">
    <path
       style="opacity:0.47397257;fill:url(#radialGradient2603);fill-opacity:1;stroke:none;stroke-width:1;stroke-linecap:round;stroke-linejoin:round;stroke-miterlimit:4;stroke-dasharray:none;stroke-dashoffset:1.08779998;stroke-opacity:1"
       d="M 7.4854905,0.0824944 C 3.3031951,0.0824944 -0.0382293,3.4096043 -0.0382293,7.5737965 L -0.0382293,8.1115112 L -0.0022306406,8.1115112 C 0.31286418,4.2445073 3.5149133,1.2294968 7.4854905,1.2294968 L 8.0254704,1.2294968 L 8.0254704,0.0824944 L 7.4854905,0.0824944 z"
       id="path7123" />
    <path
       style="fill:url(#linearGradient2600);fill-opacity:1;stroke:none;stroke-width:1;stroke-linecap:round;stroke-linejoin:round;stroke-miterlimit:4;stroke-dasharray:none;stroke-dashoffset:1.08779998;stroke-opacity:1"
       d="M 7.5214892,0.0824944 C 3.0078678,0.0824944 -0.0382293,3.2426007 -0.0382293,7.6096977 L -0.0382293,8.1115112 L 8.0254704,8.1115112 L 8.0254704,0.0824944 L 7.5214892,0.0824944 z"
       id="path7125"
       sodipodi:nodetypes="cccccc" />
    <path
       style="fill:url(#radialGradient2597);fill-opacity:1;stroke:none;stroke-width:1;stroke-linecap:round;stroke-linejoin:round;stroke-miterlimit:4;stroke-dasharray:none;stroke-dashoffset:1.08779998;stroke-opacity:1"
       d="M 7.4854905,0.0824944 C 3.3031951,0.0824944 -0.0382293,3.4096043 -0.0382293,7.5737965 L -0.0382293,8.1115112 L -0.0022306406,8.1115112 C 0.31286418,4.2445073 3.5149133,1.2294968 7.4854905,1.2294968 L 8.0254704,1.2294968 L 8.0254704,0.0824944 L 7.4854905,0.0824944 z"
       id="path7127" />
    <path
       sodipodi:nodetypes="cccccccc"
       style="opacity:0.93150689;fill:url(#radialGradient2594);fill-opacity:1;stroke:none;stroke-width:1;stroke-linecap:round;stroke-linejoin:round;stroke-miterlimit:4;stroke-dasharray:none;stroke-dashoffset:1.08779998;stroke-opacity:1"
       d="M 7.4854905,0.0824944 C 3.0485434,0.0824944 -0.0382293,3.2510885 -0.0382293,7.5737965 L -0.0382293,8.1115112 L 1.1137278,8.1115112 C 1.323407,4.2441632 3.5145101,1.2294968 7.4854905,1.2294968 L 8.0254704,1.2294968 L 8.0254704,0.0824944 L 7.4854905,0.0824944 z"
       id="path7129" />
    <path
       sodipodi:nodetypes="cccccccc"
       style="opacity:0.47397257;fill:url(#radialGradient2591);fill-opacity:1;stroke:none;stroke-width:1;stroke-linecap:round;stroke-linejoin:round;stroke-miterlimit:4;stroke-dasharray:none;stroke-dashoffset:1.08779998;stroke-opacity:1"
       d="M 7.4854905,0.0824944 C 3.0485434,0.0824944 -0.0382293,3.2510885 -0.0382293,7.5737965 L -0.0382293,8.1115112 L 1.1137278,8.1115112 C 1.323407,4.2441632 3.5145101,1.2294968 7.4854905,1.2294968 L 8.0254704,1.2294968 L 8.0254704,0.0824944 L 7.4854905,0.0824944 z"
       id="path7131" />
    <path
       style="fill:url(#linearGradient2577);fill-opacity:1;stroke:none;stroke-width:1;stroke-linecap:round;stroke-linejoin:round;stroke-miterlimit:4;stroke-dasharray:none;stroke-dashoffset:1.08779998;stroke-opacity:1"
       d="M 0.0337634,8.1165304 L 0.0337634,8.618252 C 0.0337634,12.781796 3.4111288,16.144076 7.5934819,16.144076 L 8.0974631,16.144076 L 8.0974631,8.1165304 L 0.0337634,8.1165304 z"
       id="path7172" />
    <path
       style="opacity:0.93150689;fill:url(#radialGradient2574);fill-opacity:1;stroke:none;stroke-width:1;stroke-linecap:round;stroke-linejoin:round;stroke-miterlimit:4;stroke-dasharray:none;stroke-dashoffset:1.08779998;stroke-opacity:1"
       d="M 0.0337634,8.1140075 L 0.0337634,8.615729 C 0.0337634,10.07766 0.46595466,11.442113 1.1857205,12.593607 L 1.1857205,8.1140075 L 0.0337634,8.1140075 z"
       id="path7174" />
    <path
       style="opacity:0.7;fill:url(#radialGradient2571);fill-opacity:1;stroke:none;stroke-width:1;stroke-linecap:round;stroke-linejoin:round;stroke-miterlimit:4;stroke-dasharray:none;stroke-dashoffset:1.08779998;stroke-opacity:1"
       d="M 0.0337634,8.1140075 L 0.0337634,8.6516236 C 0.0337634,12.815167 3.3751878,16.141553 7.5574832,16.141553 L 8.0974631,16.141553 L 8.0974631,14.994761 L 7.5574832,14.994761 C 3.586906,14.994761 0.38485688,11.980188 0.069762059,8.1140075 L 0.0337634,8.1140075 z"
       id="path7371" />
    <path
       style="opacity:0.47073173;fill:url(#radialGradient2568);fill-opacity:1;stroke:none;stroke-width:1;stroke-linecap:round;stroke-linejoin:round;stroke-miterlimit:4;stroke-dasharray:none;stroke-dashoffset:1.08779998;stroke-opacity:1"
       d="M 0.0337634,8.1140075 L 0.0337634,8.6516236 C 0.0337634,12.815167 3.3751878,16.141553 7.5574832,16.141553 L 8.0974631,16.141553 L 8.0974631,14.994761 L 7.5574832,14.994761 C 3.5772986,14.994761 0.37155178,11.993835 0.069762059,8.1140075 L 0.0337634,8.1140075 z"
       id="path7373" />
    <path
       style="opacity:0.47397257;fill:url(#radialGradient2565);fill-opacity:1;stroke:none;stroke-width:1;stroke-linecap:round;stroke-linejoin:round;stroke-miterlimit:4;stroke-dasharray:none;stroke-dashoffset:1.08779998;stroke-opacity:1"
       d="M 0.0337634,8.1140075 L 0.0337634,8.615729 C 0.0337634,10.07766 0.46595466,11.442113 1.1857205,12.593607 L 1.1857205,8.1140075 L 0.0337634,8.1140075 z"
       id="path7178" />
    <path
       style="opacity:0.47073173;fill:url(#radialGradient2562);fill-opacity:1;stroke:none;stroke-width:1;stroke-linecap:round;stroke-linejoin:round;stroke-miterlimit:4;stroke-dasharray:none;stroke-dashoffset:1.08779998;stroke-opacity:1"
       d="M 0.0337634,8.1140075 L 0.0337634,8.6516236 C 0.0337634,12.815167 3.3750726,16.141553 7.5574832,16.141553 L 8.0974631,16.141553 L 8.0974631,14.994761 L 7.5574832,14.994761 C 3.5867908,14.994761 0.38483385,11.980303 0.069762059,8.1140075 L 0.0337634,8.1140075 z"
       id="path7376" />
    <path
       id="path7241"
       d="M 16.017167,8.1165304 L 16.017167,8.618252 C 16.017167,12.781796 12.639802,16.144076 8.457449,16.144076 L 7.9534678,16.144076 L 7.9534678,8.1165304 L 16.017167,8.1165304 z"
       style="fill:url(#linearGradient2546);fill-opacity:1;stroke:none;stroke-width:1;stroke-linecap:round;stroke-linejoin:round;stroke-miterlimit:4;stroke-dasharray:none;stroke-dashoffset:1.08779998;stroke-opacity:1" />
    <path
       id="path7243"
       d="M 16.017167,8.1140075 L 16.017167,8.615729 C 16.017167,10.07766 15.584976,11.442113 14.86521,12.593607 L 14.86521,8.1140075 L 16.017167,8.1140075 z"
       style="opacity:0.93150689;fill:url(#radialGradient2543);fill-opacity:1;stroke:none;stroke-width:1;stroke-linecap:round;stroke-linejoin:round;stroke-miterlimit:4;stroke-dasharray:none;stroke-dashoffset:1.08779998;stroke-opacity:1" />
    <path
       id="path7245"
       d="M 16.017167,8.1140075 L 16.017167,8.6516236 C 16.017167,12.815167 12.675743,16.141553 8.4934477,16.141553 L 7.9534678,16.141553 L 7.9534678,14.994761 L 8.4934477,14.994761 C 12.464025,14.994761 15.666074,11.980188 15.981169,8.1140075 L 16.017167,8.1140075 z"
       style="opacity:0.7;fill:url(#radialGradient2540);fill-opacity:1;stroke:none;stroke-width:1;stroke-linecap:round;stroke-linejoin:round;stroke-miterlimit:4;stroke-dasharray:none;stroke-dashoffset:1.08779998;stroke-opacity:1" />
    <path
       id="path7247"
       d="M 16.017167,8.1140075 L 16.017167,8.6516236 C 16.017167,12.815167 12.675743,16.141553 8.4934477,16.141553 L 7.9534678,16.141553 L 7.9534678,14.994761 L 8.4934477,14.994761 C 12.473632,14.994761 15.679379,11.993835 15.981169,8.1140075 L 16.017167,8.1140075 z"
       style="opacity:0.47073173;fill:url(#radialGradient2537);fill-opacity:1;stroke:none;stroke-width:1;stroke-linecap:round;stroke-linejoin:round;stroke-miterlimit:4;stroke-dasharray:none;stroke-dashoffset:1.08779998;stroke-opacity:1" />
    <path
       id="path7249"
       d="M 16.017167,8.1140075 L 16.017167,8.615729 C 16.017167,10.07766 15.584976,11.442113 14.86521,12.593607 L 14.86521,8.1140075 L 16.017167,8.1140075 z"
       style="opacity:0.47397257;fill:url(#radialGradient2534);fill-opacity:1;stroke:none;stroke-width:1;stroke-linecap:round;stroke-linejoin:round;stroke-miterlimit:4;stroke-dasharray:none;stroke-dashoffset:1.08779998;stroke-opacity:1" />
    <path
       id="path7251"
       d="M 16.017167,8.1140075 L 16.017167,8.6516236 C 16.017167,12.815167 12.675858,16.141553 8.4934477,16.141553 L 7.9534678,16.141553 L 7.9534678,14.994761 L 8.4934477,14.994761 C 12.46414,14.994761 15.666097,11.980303 15.981169,8.1140075 L 16.017167,8.1140075 z"
       style="opacity:0.47073173;fill:url(#radialGradient2531);fill-opacity:1;stroke:none;stroke-width:1;stroke-linecap:round;stroke-linejoin:round;stroke-miterlimit:4;stroke-dasharray:none;stroke-dashoffset:1.08779998;stroke-opacity:1" />
    <g
       transform="matrix(-1.1519571,0,0,1.1470024,265.99186,-1813.3283)"
       id="g7253">
      <path
         style="opacity:0.47397257;fill:url(#radialGradient2968);fill-opacity:1;stroke:none;stroke-width:1;stroke-linecap:round;stroke-linejoin:round;stroke-miterlimit:4;stroke-dasharray:none;stroke-dashoffset:1.08779998;stroke-opacity:1"
         d="M 223.53125,1581 C 219.90065,1581 217,1583.9007 217,1587.5312 L 217,1588 L 217.03125,1588 C 217.30478,1584.6286 220.08444,1582 223.53125,1582 L 224,1582 L 224,1581 L 223.53125,1581 z"
         id="path7255" />
      <path
         sodipodi:nodetypes="cccccc"
         style="fill:url(#linearGradient2970);fill-opacity:1;stroke:none;stroke-width:1;stroke-linecap:round;stroke-linejoin:round;stroke-miterlimit:4;stroke-dasharray:none;stroke-dashoffset:1.08779998;stroke-opacity:1"
         d="M 223.5625,1581 C 219.82084,1581 217,1583.5781 217,1587.5625 L 217,1588 L 224,1588 L 224,1581 L 223.5625,1581 z"
         id="path7257" />
      <path
         style="fill:url(#radialGradient2972);fill-opacity:1;stroke:none;stroke-width:1;stroke-linecap:round;stroke-linejoin:round;stroke-miterlimit:4;stroke-dasharray:none;stroke-dashoffset:1.08779998;stroke-opacity:1"
         d="M 223.53125,1581 C 219.90065,1581 217,1583.9007 217,1587.5312 L 217,1588 L 217.03125,1588 C 217.30478,1584.6286 220.08444,1582 223.53125,1582 L 224,1582 L 224,1581 L 223.53125,1581 z"
         id="path7259" />
      <path
         sodipodi:nodetypes="cccccccc"
         style="opacity:0.93150689;fill:url(#radialGradient2974);fill-opacity:1;stroke:none;stroke-width:1;stroke-linecap:round;stroke-linejoin:round;stroke-miterlimit:4;stroke-dasharray:none;stroke-dashoffset:1.08779998;stroke-opacity:1"
         d="M 223.53125,1581 C 219.67959,1581 217,1583.7625 217,1587.5312 L 217,1588 L 218,1588 C 218.18202,1584.6283 220.08409,1582 223.53125,1582 L 224,1582 L 224,1581 L 223.53125,1581 z"
         id="path7261" />
      <path
         sodipodi:nodetypes="cccccccc"
         style="opacity:0.47397257;fill:url(#radialGradient2976);fill-opacity:1;stroke:none;stroke-width:1;stroke-linecap:round;stroke-linejoin:round;stroke-miterlimit:4;stroke-dasharray:none;stroke-dashoffset:1.08779998;stroke-opacity:1"
         d="M 223.53125,1581 C 219.67959,1581 217,1583.7625 217,1587.5312 L 217,1588 L 218,1588 C 218.18202,1584.6283 220.08409,1582 223.53125,1582 L 224,1582 L 224,1581 L 223.53125,1581 z"
         id="path7263" />
    </g>
  </g>
</svg>
