<?xml version="1.0" encoding="UTF-8" standalone="no"?>
<!-- Created with Inkscape (http://www.inkscape.org/) -->
<svg
   xmlns:dc="http://purl.org/dc/elements/1.1/"
   xmlns:cc="http://creativecommons.org/ns#"
   xmlns:rdf="http://www.w3.org/1999/02/22-rdf-syntax-ns#"
   xmlns:svg="http://www.w3.org/2000/svg"
   xmlns="http://www.w3.org/2000/svg"
   xmlns:xlink="http://www.w3.org/1999/xlink"
   xmlns:sodipodi="http://sodipodi.sourceforge.net/DTD/sodipodi-0.dtd"
   xmlns:inkscape="http://www.inkscape.org/namespaces/inkscape"
   width="16"
   height="16"
   id="svg2629"
   sodipodi:version="0.32"
   inkscape:version="0.46"
   version="1.0"
   sodipodi:docname="checkbox-hover16x16.svg"
   inkscape:output_extension="org.inkscape.output.svg.inkscape">
  <defs
     id="defs2631">
    <linearGradient
       id="linearGradient7141">
      <stop
         offset="0"
         style="stop-color:#222222;stop-opacity:1;"
         id="stop7143" />
      <stop
         offset="0.23586744"
         style="stop-color:#0c0c0c;stop-opacity:1;"
         id="stop7149" />
      <stop
         offset="1"
         style="stop-color:#000000;stop-opacity:1"
         id="stop7145" />
    </linearGradient>
    <linearGradient
       id="linearGradient3215">
      <stop
         offset="0"
         style="stop-color:#ffffff;stop-opacity:1;"
         id="stop3217" />
      <stop
         offset="0.5"
         style="stop-color:#ffffff;stop-opacity:0.28158844;"
         id="stop3221" />
      <stop
         offset="1"
         style="stop-color:#ffffff;stop-opacity:0;"
         id="stop3219" />
    </linearGradient>
    <radialGradient
       inkscape:collect="always"
       xlink:href="#linearGradient3215"
       id="radialGradient2481"
       gradientUnits="userSpaceOnUse"
       gradientTransform="matrix(-1.1424501,0,0,0.4779227,263.80617,-730.13738)"
       cx="215"
       cy="1608.8442"
       fx="214.5"
       fy="1575.4911"
       r="91.609375" />
    <radialGradient
       inkscape:collect="always"
       xlink:href="#linearGradient3215"
       id="radialGradient2484"
       gradientUnits="userSpaceOnUse"
       gradientTransform="matrix(0.1988978,0,0,-0.3631186,-408.20526,61.116988)"
       cx="2132.25"
       cy="136.14069"
       fx="2132.25"
       fy="136.14069"
       r="91.609398" />
    <radialGradient
       inkscape:collect="always"
       xlink:href="#linearGradient3215"
       id="radialGradient2487"
       gradientUnits="userSpaceOnUse"
       gradientTransform="matrix(-0.1988978,0,0,-0.3631186,424.14276,61.116988)"
       cx="2132.25"
       cy="136.14069"
       fx="2132.25"
       fy="136.14069"
       r="91.609398" />
    <radialGradient
       inkscape:collect="always"
       xlink:href="#linearGradient3215"
       id="radialGradient2503"
       gradientUnits="userSpaceOnUse"
       gradientTransform="matrix(0.1988978,0,0,-0.3631186,-408.16956,61.115006)"
       cx="2132.25"
       cy="136.14069"
       fx="2132.25"
       fy="136.14069"
       r="91.609398" />
    <radialGradient
       inkscape:collect="always"
       xlink:href="#linearGradient3215"
       id="radialGradient2506"
       gradientUnits="userSpaceOnUse"
       gradientTransform="matrix(-1.1424501,0,0,0.4778351,263.84187,-805.13456)"
       cx="215"
       cy="1608.8442"
       fx="214.5"
       fy="1575.4911"
       r="91.609375" />
    <radialGradient
       inkscape:collect="always"
       xlink:href="#linearGradient3215"
       id="radialGradient2509"
       gradientUnits="userSpaceOnUse"
       gradientTransform="matrix(-0.1988978,0,0,-0.3631186,230.71162,61.154963)"
       cx="2132.25"
       cy="136.14069"
       fx="2132.25"
       fy="136.14069"
       r="91.609398" />
    <radialGradient
       inkscape:collect="always"
       xlink:href="#linearGradient3215"
       id="radialGradient2512"
       gradientUnits="userSpaceOnUse"
       gradientTransform="matrix(-1.1424501,0,0,-0.3631186,2242.6012,61.141416)"
       cx="2040.6406"
       cy="136.14062"
       fx="2040.6406"
       fy="136.14062"
       r="91.609398" />
    <radialGradient
       inkscape:collect="always"
       xlink:href="#linearGradient3215"
       id="radialGradient2515"
       gradientUnits="userSpaceOnUse"
       gradientTransform="matrix(0.1921206,5.129507e-2,-4.8096531e-2,0.1788589,-387.17712,-204.51442)"
       cx="2132.25"
       cy="136.14069"
       fx="2132.25"
       fy="136.14069"
       r="91.609398" />
    <linearGradient
       inkscape:collect="always"
       xlink:href="#linearGradient7141"
       id="linearGradient2518"
       gradientUnits="userSpaceOnUse"
       gradientTransform="matrix(-1.1424501,0,0,1.1383783,-15.935454,-86.774792)"
       x1="50.10762"
       y1="89.277901"
       x2="50.10762"
       y2="9.2778997" />
    <radialGradient
       inkscape:collect="always"
       xlink:href="#linearGradient3215"
       id="radialGradient2522"
       gradientUnits="userSpaceOnUse"
       gradientTransform="matrix(-0.1988978,0,0,-0.3631186,424.17846,61.115006)"
       cx="2132.25"
       cy="136.14069"
       fx="2132.25"
       fy="136.14069"
       r="91.609398" />
    <radialGradient
       inkscape:collect="always"
       xlink:href="#linearGradient3215"
       id="radialGradient2525"
       gradientUnits="userSpaceOnUse"
       gradientTransform="matrix(1.1424501,0,0,0.4778351,-247.83297,-805.13456)"
       cx="215"
       cy="1608.8442"
       fx="214.5"
       fy="1575.4911"
       r="91.609375" />
    <radialGradient
       inkscape:collect="always"
       xlink:href="#linearGradient3215"
       id="radialGradient2529"
       gradientUnits="userSpaceOnUse"
       gradientTransform="matrix(0.1988978,0,0,-0.3631186,-214.70271,61.154963)"
       cx="2132.25"
       cy="136.14069"
       fx="2132.25"
       fy="136.14069"
       r="91.609398" />
    <radialGradient
       inkscape:collect="always"
       xlink:href="#linearGradient3215"
       id="radialGradient2533"
       gradientUnits="userSpaceOnUse"
       gradientTransform="matrix(1.1424501,0,0,-0.3631186,-2226.5923,61.141416)"
       cx="2040.6406"
       cy="136.14062"
       fx="2040.6406"
       fy="136.14062"
       r="91.609398" />
    <radialGradient
       inkscape:collect="always"
       xlink:href="#linearGradient3215"
       id="radialGradient2537"
       gradientUnits="userSpaceOnUse"
       gradientTransform="matrix(-0.1921206,5.129507e-2,4.8096531e-2,0.1788589,403.18602,-204.51442)"
       cx="2132.25"
       cy="136.14069"
       fx="2132.25"
       fy="136.14069"
       r="91.609398" />
    <linearGradient
       inkscape:collect="always"
       xlink:href="#linearGradient7141"
       id="linearGradient2540"
       gradientUnits="userSpaceOnUse"
       gradientTransform="matrix(1.1424501,0,0,1.1383783,31.944356,-86.774792)"
       x1="50.10762"
       y1="89.277901"
       x2="50.10762"
       y2="9.2778997" />
    <radialGradient
       inkscape:collect="always"
       xlink:href="#linearGradient3215"
       id="radialGradient2561"
       gradientUnits="userSpaceOnUse"
       gradientTransform="matrix(1.1424501,0,0,0.4779227,-247.94007,-730.13746)"
       cx="215"
       cy="1608.8442"
       fx="214.5"
       fy="1575.4911"
       r="91.609375" />
    <radialGradient
       inkscape:collect="always"
       xlink:href="#linearGradient3215"
       id="radialGradient2564"
       gradientUnits="userSpaceOnUse"
       gradientTransform="matrix(-0.1921206,5.1304474e-2,4.8096531e-2,0.1788917,403.07892,-129.40724)"
       cx="2132.25"
       cy="136.14069"
       fx="2132.25"
       fy="136.14069"
       r="91.609398" />
    <radialGradient
       inkscape:collect="always"
       xlink:href="#linearGradient3215"
       id="radialGradient2567"
       gradientUnits="userSpaceOnUse"
       gradientTransform="matrix(1.1424501,0,0,0.3631852,-2226.6993,-45.102044)"
       cx="2040.6406"
       cy="136.14062"
       fx="2040.6406"
       fy="136.14062"
       r="91.609398" />
    <linearGradient
       inkscape:collect="always"
       xlink:href="#linearGradient7141"
       id="linearGradient2570"
       gradientUnits="userSpaceOnUse"
       gradientTransform="matrix(1.1424501,0,0,1.138587,31.837254,-11.648536)"
       x1="50.10762"
       y1="89.277901"
       x2="50.10762"
       y2="9.2778997" />
    <radialGradient
       inkscape:collect="always"
       xlink:href="#linearGradient3215"
       id="radialGradient2573"
       gradientUnits="userSpaceOnUse"
       gradientTransform="matrix(-1.1424501,0,0,0.4779227,457.20155,-730.13746)"
       cx="215"
       cy="1608.8442"
       fx="214.5"
       fy="1575.4911"
       r="91.609375" />
    <radialGradient
       inkscape:collect="always"
       xlink:href="#linearGradient3215"
       id="radialGradient2586"
       gradientUnits="userSpaceOnUse"
       gradientTransform="matrix(-1.1424501,0,0,0.4779227,263.84187,-730.13936)"
       cx="215"
       cy="1608.8442"
       fx="214.5"
       fy="1575.4911"
       r="91.609375" />
    <radialGradient
       inkscape:collect="always"
       xlink:href="#linearGradient3215"
       id="radialGradient2589"
       gradientUnits="userSpaceOnUse"
       gradientTransform="matrix(0.1921206,5.1304474e-2,-4.8096531e-2,0.1788917,-387.17712,-129.40914)"
       cx="2132.25"
       cy="136.14069"
       fx="2132.25"
       fy="136.14069"
       r="91.609398" />
    <radialGradient
       inkscape:collect="always"
       xlink:href="#linearGradient3215"
       id="radialGradient2592"
       gradientUnits="userSpaceOnUse"
       gradientTransform="matrix(-1.1424501,0,0,0.3631852,2242.6011,-45.103944)"
       cx="2040.6406"
       cy="136.14062"
       fx="2040.6406"
       fy="136.14062"
       r="91.609398" />
    <linearGradient
       inkscape:collect="always"
       xlink:href="#linearGradient7141"
       id="linearGradient2595"
       gradientUnits="userSpaceOnUse"
       gradientTransform="matrix(-1.1424501,0,0,1.138587,-15.935454,-11.650436)"
       x1="50.10762"
       y1="89.277901"
       x2="50.10762"
       y2="9.2778997" />
    <radialGradient
       inkscape:collect="always"
       xlink:href="#linearGradient3215"
       id="radialGradient2598"
       gradientUnits="userSpaceOnUse"
       gradientTransform="matrix(1.1424501,0,0,0.4779227,-441.29975,-730.13936)"
       cx="215"
       cy="1608.8442"
       fx="214.5"
       fy="1575.4911"
       r="91.609375" />
    <radialGradient
       inkscape:collect="always"
       xlink:href="#linearGradient3215"
       id="radialGradient2611"
       gradientUnits="userSpaceOnUse"
       gradientTransform="matrix(1.1424501,0,0,0.4779227,-247.90437,-730.13936)"
       cx="215"
       cy="1608.8442"
       fx="214.5"
       fy="1575.4911"
       r="91.609375" />
    <radialGradient
       inkscape:collect="always"
       xlink:href="#linearGradient3215"
       id="radialGradient2614"
       gradientUnits="userSpaceOnUse"
       gradientTransform="matrix(-0.1921206,5.1304474e-2,4.8096531e-2,0.1788917,403.11462,-129.40914)"
       cx="2132.25"
       cy="136.14069"
       fx="2132.25"
       fy="136.14069"
       r="91.609398" />
    <radialGradient
       inkscape:collect="always"
       xlink:href="#linearGradient3215"
       id="radialGradient2617"
       gradientUnits="userSpaceOnUse"
       gradientTransform="matrix(1.1424501,0,0,0.3631852,-2226.6636,-45.103944)"
       cx="2040.6406"
       cy="136.14062"
       fx="2040.6406"
       fy="136.14062"
       r="91.609398" />
    <linearGradient
       inkscape:collect="always"
       xlink:href="#linearGradient7141"
       id="linearGradient2620"
       gradientUnits="userSpaceOnUse"
       gradientTransform="matrix(1.1424501,0,0,1.138587,31.872954,-11.650436)"
       x1="50.10762"
       y1="89.277901"
       x2="50.10762"
       y2="9.2778997" />
    <radialGradient
       inkscape:collect="always"
       xlink:href="#linearGradient3215"
       id="radialGradient2623"
       gradientUnits="userSpaceOnUse"
       gradientTransform="matrix(-1.1424501,0,0,0.4779227,457.23725,-730.13936)"
       cx="215"
       cy="1608.8442"
       fx="214.5"
       fy="1575.4911"
       r="91.609375" />
  </defs>
  <sodipodi:namedview
     id="base"
     pagecolor="#ffffff"
     bordercolor="#666666"
     borderopacity="1.0"
     inkscape:pageopacity="0.0"
     inkscape:pageshadow="2"
     inkscape:zoom="16"
     inkscape:cx="-5.25"
     inkscape:cy="3.650093"
     inkscape:document-units="px"
     inkscape:current-layer="layer1"
     showgrid="false"
     inkscape:window-width="1390"
     inkscape:window-height="934"
     inkscape:window-x="0"
     inkscape:window-y="34" />
  <metadata
     id="metadata2634">
    <rdf:RDF>
      <cc:Work
         rdf:about="">
        <dc:format>image/svg+xml</dc:format>
        <dc:type
           rdf:resource="http://purl.org/dc/dcmitype/StillImage" />
      </cc:Work>
    </rdf:RDF>
  </metadata>
  <g
     inkscape:label="Ebene 1"
     inkscape:groupmode="layer"
     id="layer1">
    <path
       style="opacity:0.47397257;fill:url(#radialGradient2623);fill-opacity:1;stroke:none;stroke-width:1;stroke-linecap:round;stroke-linejoin:round;stroke-miterlimit:4;stroke-dasharray:none;stroke-dashoffset:1.08779998;stroke-opacity:1"
       d="M 7.4689289,0.051847 C 3.3211496,0.051847 0.0073017,3.3545463 0.0073017,7.4881864 L 0.0073017,8.021956 L 0.043003266,8.021956 C 0.35549764,4.1833238 3.5311205,1.190434 7.4689289,1.190434 L 8.0044524,1.190434 L 8.0044524,0.051847 L 7.4689289,0.051847 z"
       id="path7123" />
    <path
       style="fill:url(#linearGradient2620);fill-opacity:1;stroke:none;stroke-width:1;stroke-linecap:round;stroke-linejoin:round;stroke-miterlimit:4;stroke-dasharray:none;stroke-dashoffset:1.08779998;stroke-opacity:1"
       d="M 7.5046305,0.051847 C 3.0282597,0.051847 0.0073017,3.188768 0.0073017,7.5238242 L 0.0073017,8.021956 L 8.0044524,8.021956 L 8.0044524,0.051847 L 7.5046305,0.051847 z"
       id="path7125"
       sodipodi:nodetypes="cccccc" />
    <path
       style="fill:url(#radialGradient2617);fill-opacity:1;stroke:none;stroke-width:1;stroke-linecap:round;stroke-linejoin:round;stroke-miterlimit:4;stroke-dasharray:none;stroke-dashoffset:1.08779998;stroke-opacity:1"
       d="M 7.4689289,0.051847 C 3.3211496,0.051847 0.0073017,3.3545463 0.0073017,7.4881864 L 0.0073017,8.021956 L 0.043003266,8.021956 C 0.35549764,4.1833238 3.5311205,1.190434 7.4689289,1.190434 L 8.0044524,1.190434 L 8.0044524,0.051847 L 7.4689289,0.051847 z"
       id="path7127" />
    <path
       sodipodi:nodetypes="cccccccc"
       style="opacity:0.93150689;fill:url(#radialGradient2614);fill-opacity:1;stroke:none;stroke-width:1;stroke-linecap:round;stroke-linejoin:round;stroke-miterlimit:4;stroke-dasharray:none;stroke-dashoffset:1.08779998;stroke-opacity:1"
       d="M 7.4689289,0.051847 C 3.0685996,0.051847 0.0073017,3.1971936 0.0073017,7.4881864 L 0.0073017,8.021956 L 1.1497518,8.021956 C 1.3577006,4.1829822 3.5307206,1.190434 7.4689289,1.190434 L 8.0044524,1.190434 L 8.0044524,0.051847 L 7.4689289,0.051847 z"
       id="path7129" />
    <path
       sodipodi:nodetypes="cccccccc"
       style="opacity:0.47397257;fill:url(#radialGradient2611);fill-opacity:1;stroke:none;stroke-width:1;stroke-linecap:round;stroke-linejoin:round;stroke-miterlimit:4;stroke-dasharray:none;stroke-dashoffset:1.08779998;stroke-opacity:1"
       d="M 7.4689289,0.051847 C 3.0685996,0.051847 0.0073017,3.1971936 0.0073017,7.4881864 L 0.0073017,8.021956 L 1.1497518,8.021956 C 1.3577006,4.1829822 3.5307206,1.190434 7.4689289,1.190434 L 8.0044524,1.190434 L 8.0044524,0.051847 L 7.4689289,0.051847 z"
       id="path7131" />
    <path
       style="fill:url(#linearGradient2540);fill-opacity:1;stroke:none;stroke-width:1;stroke-linecap:round;stroke-linejoin:round;stroke-miterlimit:4;stroke-dasharray:none;stroke-dashoffset:1.08779998;stroke-opacity:1"
       d="M 0.078703631,8.0269616 L 0.078703631,8.5250021 C 0.078703631,12.657998 3.428196,15.99561 7.5760324,15.99561 L 8.0758543,15.99561 L 8.0758543,8.0269616 L 0.078703631,8.0269616 z"
       id="path7172" />
    <path
       style="opacity:0.93150689;fill:url(#radialGradient2537);fill-opacity:1;stroke:none;stroke-width:1;stroke-linecap:round;stroke-linejoin:round;stroke-miterlimit:4;stroke-dasharray:none;stroke-dashoffset:1.08779998;stroke-opacity:1"
       d="M 0.078703631,8.0244572 L 0.078703631,8.5224977 C 0.078703631,9.9737023 0.50732806,11.328144 1.2211537,12.47119 L 1.2211537,8.0244572 L 0.078703631,8.0244572 z"
       id="path7174" />
    <path
       style="opacity:0.7;fill:url(#radialGradient2533);fill-opacity:1;stroke:none;stroke-width:1;stroke-linecap:round;stroke-linejoin:round;stroke-miterlimit:4;stroke-dasharray:none;stroke-dashoffset:1.08779998;stroke-opacity:1"
       d="M 0.078703631,8.0244572 L 0.078703631,8.5581289 C 0.078703631,12.691125 3.3925515,15.993105 7.5403308,15.993105 L 8.0758543,15.993105 L 8.0758543,14.854728 L 7.5403308,14.854728 C 3.6025224,14.854728 0.42689957,11.862272 0.1144052,8.0244572 L 0.078703631,8.0244572 z"
       id="path7371" />
    <path
       style="opacity:0.47073173;fill:url(#radialGradient2529);fill-opacity:1;stroke:none;stroke-width:1;stroke-linecap:round;stroke-linejoin:round;stroke-miterlimit:4;stroke-dasharray:none;stroke-dashoffset:1.08779998;stroke-opacity:1"
       d="M 0.078703631,8.0244572 L 0.078703631,8.5581289 C 0.078703631,12.691125 3.3925515,15.993105 7.5403308,15.993105 L 8.0758543,15.993105 L 8.0758543,14.854728 L 7.5403308,14.854728 C 3.5929944,14.854728 0.41370427,11.875818 0.1144052,8.0244572 L 0.078703631,8.0244572 z"
       id="path7373" />
    <path
       style="opacity:0.47397257;fill:url(#radialGradient2525);fill-opacity:1;stroke:none;stroke-width:1;stroke-linecap:round;stroke-linejoin:round;stroke-miterlimit:4;stroke-dasharray:none;stroke-dashoffset:1.08779998;stroke-opacity:1"
       d="M 0.078703631,8.0244572 L 0.078703631,8.5224977 C 0.078703631,9.9737023 0.50732806,11.328144 1.2211537,12.47119 L 1.2211537,8.0244572 L 0.078703631,8.0244572 z"
       id="path7178" />
    <path
       style="opacity:0.47073173;fill:url(#radialGradient2522);fill-opacity:1;stroke:none;stroke-width:1;stroke-linecap:round;stroke-linejoin:round;stroke-miterlimit:4;stroke-dasharray:none;stroke-dashoffset:1.08779998;stroke-opacity:1"
       d="M 0.078703631,8.0244572 L 0.078703631,8.5581289 C 0.078703631,12.691125 3.3924373,15.993105 7.5403308,15.993105 L 8.0758543,15.993105 L 8.0758543,14.854728 L 7.5403308,14.854728 C 3.6024082,14.854728 0.42687672,11.862385 0.1144052,8.0244572 L 0.078703631,8.0244572 z"
       id="path7376" />
    <path
       id="path7241"
       d="M 15.930199,8.0269616 L 15.930199,8.5250021 C 15.930199,12.657998 12.580706,15.99561 8.43287,15.99561 L 7.9330481,15.99561 L 7.9330481,8.0269616 L 15.930199,8.0269616 z"
       style="fill:url(#linearGradient2518);fill-opacity:1;stroke:none;stroke-width:1;stroke-linecap:round;stroke-linejoin:round;stroke-miterlimit:4;stroke-dasharray:none;stroke-dashoffset:1.08779998;stroke-opacity:1" />
    <path
       id="path7243"
       d="M 15.930199,8.0244572 L 15.930199,8.5224977 C 15.930199,9.9737023 15.501574,11.328144 14.787749,12.47119 L 14.787749,8.0244572 L 15.930199,8.0244572 z"
       style="opacity:0.93150689;fill:url(#radialGradient2515);fill-opacity:1;stroke:none;stroke-width:1;stroke-linecap:round;stroke-linejoin:round;stroke-miterlimit:4;stroke-dasharray:none;stroke-dashoffset:1.08779998;stroke-opacity:1" />
    <path
       id="path7245"
       d="M 15.930199,8.0244572 L 15.930199,8.5581289 C 15.930199,12.691125 12.616351,15.993105 8.4685716,15.993105 L 7.9330481,15.993105 L 7.9330481,14.854728 L 8.4685716,14.854728 C 12.40638,14.854728 15.582003,11.862272 15.894497,8.0244572 L 15.930199,8.0244572 z"
       style="opacity:0.7;fill:url(#radialGradient2512);fill-opacity:1;stroke:none;stroke-width:1;stroke-linecap:round;stroke-linejoin:round;stroke-miterlimit:4;stroke-dasharray:none;stroke-dashoffset:1.08779998;stroke-opacity:1" />
    <path
       id="path7247"
       d="M 15.930199,8.0244572 L 15.930199,8.5581289 C 15.930199,12.691125 12.616351,15.993105 8.4685716,15.993105 L 7.9330481,15.993105 L 7.9330481,14.854728 L 8.4685716,14.854728 C 12.415908,14.854728 15.595198,11.875818 15.894497,8.0244572 L 15.930199,8.0244572 z"
       style="opacity:0.47073173;fill:url(#radialGradient2509);fill-opacity:1;stroke:none;stroke-width:1;stroke-linecap:round;stroke-linejoin:round;stroke-miterlimit:4;stroke-dasharray:none;stroke-dashoffset:1.08779998;stroke-opacity:1" />
    <path
       id="path7249"
       d="M 15.930199,8.0244572 L 15.930199,8.5224977 C 15.930199,9.9737023 15.501574,11.328144 14.787749,12.47119 L 14.787749,8.0244572 L 15.930199,8.0244572 z"
       style="opacity:0.47397257;fill:url(#radialGradient2506);fill-opacity:1;stroke:none;stroke-width:1;stroke-linecap:round;stroke-linejoin:round;stroke-miterlimit:4;stroke-dasharray:none;stroke-dashoffset:1.08779998;stroke-opacity:1" />
    <path
       id="path7251"
       d="M 15.930199,8.0244572 L 15.930199,8.5581289 C 15.930199,12.691125 12.616465,15.993105 8.4685716,15.993105 L 7.9330481,15.993105 L 7.9330481,14.854728 L 8.4685716,14.854728 C 12.406494,14.854728 15.582026,11.862385 15.894497,8.0244572 L 15.930199,8.0244572 z"
       style="opacity:0.47073173;fill:url(#radialGradient2503);fill-opacity:1;stroke:none;stroke-width:1;stroke-linecap:round;stroke-linejoin:round;stroke-miterlimit:4;stroke-dasharray:none;stroke-dashoffset:1.08779998;stroke-opacity:1" />
    <path
       id="path7255"
       d="M 8.4685711,0.051847 C 12.61635,0.051847 15.930198,3.3545463 15.930198,7.4881864 L 15.930198,8.021956 L 15.894497,8.021956 C 15.582002,4.1833238 12.40638,1.190434 8.4685711,1.190434 L 7.9330476,1.190434 L 7.9330476,0.051847 L 8.4685711,0.051847 z"
       style="opacity:0.47397257;fill:url(#radialGradient2598);fill-opacity:1;stroke:none;stroke-width:1;stroke-linecap:round;stroke-linejoin:round;stroke-miterlimit:4;stroke-dasharray:none;stroke-dashoffset:1.08779998;stroke-opacity:1" />
    <path
       id="path7257"
       d="M 8.4328695,0.051847 C 12.707529,0.051847 15.930198,2.9872381 15.930198,7.5238242 L 15.930198,8.021956 L 7.9330476,8.021956 L 7.9330476,0.051847 L 8.4328695,0.051847 z"
       style="fill:url(#linearGradient2595);fill-opacity:1;stroke:none;stroke-width:1;stroke-linecap:round;stroke-linejoin:round;stroke-miterlimit:4;stroke-dasharray:none;stroke-dashoffset:1.08779998;stroke-opacity:1"
       sodipodi:nodetypes="cccccc" />
    <path
       id="path7259"
       d="M 8.4685711,0.051847 C 12.61635,0.051847 15.930198,3.3545463 15.930198,7.4881864 L 15.930198,8.021956 L 15.894497,8.021956 C 15.582002,4.1833238 12.40638,1.190434 8.4685711,1.190434 L 7.9330476,1.190434 L 7.9330476,0.051847 L 8.4685711,0.051847 z"
       style="fill:url(#radialGradient2592);fill-opacity:1;stroke:none;stroke-width:1;stroke-linecap:round;stroke-linejoin:round;stroke-miterlimit:4;stroke-dasharray:none;stroke-dashoffset:1.08779998;stroke-opacity:1" />
    <path
       id="path7261"
       d="M 8.4685711,0.051847 C 12.8689,0.051847 15.930198,3.1971936 15.930198,7.4881864 L 15.930198,8.021956 L 14.787748,8.021956 C 14.579799,4.1829822 12.406779,1.190434 8.4685711,1.190434 L 7.9330476,1.190434 L 7.9330476,0.051847 L 8.4685711,0.051847 z"
       style="opacity:0.93150689;fill:url(#radialGradient2589);fill-opacity:1;stroke:none;stroke-width:1;stroke-linecap:round;stroke-linejoin:round;stroke-miterlimit:4;stroke-dasharray:none;stroke-dashoffset:1.08779998;stroke-opacity:1"
       sodipodi:nodetypes="cccccccc" />
    <path
       id="path7263"
       d="M 8.4685711,0.051847 C 12.8689,0.051847 15.930198,3.1971936 15.930198,7.4881864 L 15.930198,8.021956 L 14.787748,8.021956 C 14.579799,4.1829822 12.406779,1.190434 8.4685711,1.190434 L 7.9330476,1.190434 L 7.9330476,0.051847 L 8.4685711,0.051847 z"
       style="opacity:0.47397257;fill:url(#radialGradient2586);fill-opacity:1;stroke:none;stroke-width:1;stroke-linecap:round;stroke-linejoin:round;stroke-miterlimit:4;stroke-dasharray:none;stroke-dashoffset:1.08779998;stroke-opacity:1"
       sodipodi:nodetypes="cccccccc" />
    <path
       style="opacity:0.47397257;fill:url(#radialGradient2573);fill-opacity:1;stroke:none;stroke-width:1;stroke-linecap:round;stroke-linejoin:round;stroke-miterlimit:4;stroke-dasharray:none;stroke-dashoffset:1.08779998;stroke-opacity:1"
       d="M 7.4332289,0.053747 C 3.2854496,0.053747 -0.0283983,3.3564463 -0.0283983,7.4900864 L -0.0283983,8.023856 L 0.0073032656,8.023856 C 0.31979764,4.1852238 3.4954205,1.192334 7.4332289,1.192334 L 7.9687524,1.192334 L 7.9687524,0.053747 L 7.4332289,0.053747 z"
       id="path3279" />
    <path
       style="fill:url(#linearGradient2570);fill-opacity:1;stroke:none;stroke-width:1;stroke-linecap:round;stroke-linejoin:round;stroke-miterlimit:4;stroke-dasharray:none;stroke-dashoffset:1.08779998;stroke-opacity:1"
       d="M 7.4689305,0.053747 C 2.9925597,0.053747 -0.0283983,3.190668 -0.0283983,7.5257242 L -0.0283983,8.023856 L 7.9687524,8.023856 L 7.9687524,0.053747 L 7.4689305,0.053747 z"
       id="path3281"
       sodipodi:nodetypes="cccccc" />
    <path
       style="fill:url(#radialGradient2567);fill-opacity:1;stroke:none;stroke-width:1;stroke-linecap:round;stroke-linejoin:round;stroke-miterlimit:4;stroke-dasharray:none;stroke-dashoffset:1.08779998;stroke-opacity:1"
       d="M 7.4332289,0.053747 C 3.2854496,0.053747 -0.0283983,3.3564463 -0.0283983,7.4900864 L -0.0283983,8.023856 L 0.0073032656,8.023856 C 0.31979764,4.1852238 3.4954205,1.192334 7.4332289,1.192334 L 7.9687524,1.192334 L 7.9687524,0.053747 L 7.4332289,0.053747 z"
       id="path3283" />
    <path
       sodipodi:nodetypes="cccccccc"
       style="opacity:0.93150689;fill:url(#radialGradient2564);fill-opacity:1;stroke:none;stroke-width:1;stroke-linecap:round;stroke-linejoin:round;stroke-miterlimit:4;stroke-dasharray:none;stroke-dashoffset:1.08779998;stroke-opacity:1"
       d="M 7.4332289,0.053747 C 3.0328996,0.053747 -0.0283983,3.1990936 -0.0283983,7.4900864 L -0.0283983,8.023856 L 1.1140518,8.023856 C 1.3220006,4.1848822 3.4950206,1.192334 7.4332289,1.192334 L 7.9687524,1.192334 L 7.9687524,0.053747 L 7.4332289,0.053747 z"
       id="path3285" />
    <path
       sodipodi:nodetypes="cccccccc"
       style="opacity:0.47397257;fill:url(#radialGradient2561);fill-opacity:1;stroke:none;stroke-width:1;stroke-linecap:round;stroke-linejoin:round;stroke-miterlimit:4;stroke-dasharray:none;stroke-dashoffset:1.08779998;stroke-opacity:1"
       d="M 7.4332289,0.053747 C 3.0328996,0.053747 -0.0283983,3.1990936 -0.0283983,7.4900864 L -0.0283983,8.023856 L 1.1140518,8.023856 C 1.3220006,4.1848822 3.4950206,1.192334 7.4332289,1.192334 L 7.9687524,1.192334 L 7.9687524,0.053747 L 7.4332289,0.053747 z"
       id="path3287" />
    <path
       style="fill:url(#radialGradient2487);fill-opacity:1;stroke:none;stroke-width:1;stroke-linecap:round;stroke-linejoin:round;stroke-miterlimit:4;stroke-dasharray:none;stroke-dashoffset:1.08779998;stroke-opacity:1"
       d="M 0.043002066,8.0264402 L 0.043002066,8.5601119 C 0.043002066,12.693108 3.3567357,15.995087 7.5046293,15.995087 L 8.0401528,15.995087 L 8.0401528,14.85671 L 7.5046293,14.85671 C 3.5667066,14.85671 0.39117516,11.864368 0.078703631,8.0264402 L 0.043002066,8.0264402 z"
       id="path3289" />
    <path
       id="path3291"
       d="M 15.894497,8.0264402 L 15.894497,8.5601119 C 15.894497,12.693108 12.580764,15.995087 8.43287,15.995087 L 7.8973465,15.995087 L 7.8973465,14.85671 L 8.43287,14.85671 C 12.370793,14.85671 15.546324,11.864368 15.858796,8.0264402 L 15.894497,8.0264402 z"
       style="fill:url(#radialGradient2484);fill-opacity:1;stroke:none;stroke-width:1;stroke-linecap:round;stroke-linejoin:round;stroke-miterlimit:4;stroke-dasharray:none;stroke-dashoffset:1.08779998;stroke-opacity:1" />
    <path
       sodipodi:nodetypes="cccccccc"
       style="fill:url(#radialGradient2481);fill-opacity:1;stroke:none;stroke-width:1;stroke-linecap:round;stroke-linejoin:round;stroke-miterlimit:4;stroke-dasharray:none;stroke-dashoffset:1.08779998;stroke-opacity:1"
       d="M 8.43287,0.05382577 C 12.833199,0.05382577 15.894497,3.1991724 15.894497,7.4901646 L 15.894497,8.0239353 L 14.752047,8.0239353 C 14.544098,4.184961 12.371078,1.1924128 8.43287,1.1924128 L 7.8973465,1.1924128 L 7.8973465,0.05382577 L 8.43287,0.05382577 z"
       id="path3293" />
  </g>
</svg>
