<?xml version="1.0" encoding="UTF-8" standalone="no"?>
<!-- Created with Inkscape (http://www.inkscape.org/) -->
<svg
   xmlns:dc="http://purl.org/dc/elements/1.1/"
   xmlns:cc="http://creativecommons.org/ns#"
   xmlns:rdf="http://www.w3.org/1999/02/22-rdf-syntax-ns#"
   xmlns:svg="http://www.w3.org/2000/svg"
   xmlns="http://www.w3.org/2000/svg"
   xmlns:xlink="http://www.w3.org/1999/xlink"
   xmlns:sodipodi="http://sodipodi.sourceforge.net/DTD/sodipodi-0.dtd"
   xmlns:inkscape="http://www.inkscape.org/namespaces/inkscape"
   width="16"
   height="16"
   id="svg2629"
   sodipodi:version="0.32"
   inkscape:version="0.46"
   version="1.0"
   sodipodi:docname="checkbox-checked16x16.svg"
   inkscape:output_extension="org.inkscape.output.svg.inkscape">
  <defs
     id="defs2631">
    <linearGradient
       inkscape:collect="always"
       xlink:href="#linearGradient3415"
       id="linearGradient3421"
       x1="71.603867"
       y1="96.884026"
       x2="71.603867"
       y2="47.378731"
       gradientUnits="userSpaceOnUse" />
    <radialGradient
       inkscape:collect="always"
       xlink:href="#linearGradient2998"
       id="radialGradient3004"
       cx="99.765625"
       cy="29.374895"
       fx="99.765625"
       fy="29.374895"
       r="3.015625"
       gradientTransform="matrix(1.9646726,3.4242959e-7,-1.0414508e-6,5.9752716,-96.241137,-146.14811)"
       gradientUnits="userSpaceOnUse" />
    <radialGradient
       inkscape:collect="always"
       xlink:href="#linearGradient2998"
       id="radialGradient3256"
       gradientUnits="userSpaceOnUse"
       gradientTransform="matrix(1.9646726,3.4242959e-7,-1.0414508e-6,5.9752716,-96.241137,-146.14811)"
       cx="99.765625"
       cy="29.374895"
       fx="99.765625"
       fy="29.374895"
       r="3.015625" />
    <radialGradient
       inkscape:collect="always"
       xlink:href="#linearGradient2998"
       id="radialGradient3288"
       gradientUnits="userSpaceOnUse"
       gradientTransform="matrix(1.9646726,3.4242959e-7,-1.0414508e-6,5.9752716,-167.24116,-126.14811)"
       cx="99.765625"
       cy="29.374895"
       fx="99.765625"
       fy="29.374895"
       r="3.015625" />
    <radialGradient
       inkscape:collect="always"
       xlink:href="#linearGradient2998"
       id="radialGradient3292"
       gradientUnits="userSpaceOnUse"
       gradientTransform="matrix(1.9646726,3.4242959e-7,-1.0414508e-6,5.9752716,-96.241137,-146.14811)"
       cx="99.765625"
       cy="29.374895"
       fx="99.765625"
       fy="29.374895"
       r="3.015625" />
    <radialGradient
       inkscape:collect="always"
       xlink:href="#linearGradient3415"
       id="radialGradient3457"
       gradientUnits="userSpaceOnUse"
       gradientTransform="matrix(1.9646726,3.4242959e-7,-1.0414508e-6,5.9752716,-167.24116,-126.14811)"
       cx="99.765625"
       cy="29.374895"
       fx="99.765625"
       fy="29.374895"
       r="3.015625" />
    <radialGradient
       inkscape:collect="always"
       xlink:href="#linearGradient2998"
       id="radialGradient3511"
       gradientUnits="userSpaceOnUse"
       gradientTransform="matrix(1.0961401,8.7912098e-2,-0.1002304,1.2497316,1.0599334,-18.687387)"
       cx="53.633381"
       cy="51.919601"
       fx="53.633381"
       fy="51.919601"
       r="52.000004" />
    <linearGradient
       inkscape:collect="always"
       id="linearGradient3436">
      <stop
         style="stop-color:#ffffff;stop-opacity:1;"
         offset="0"
         id="stop3438" />
      <stop
         style="stop-color:#ffffff;stop-opacity:0;"
         offset="1"
         id="stop3440" />
    </linearGradient>
    <filter
       inkscape:collect="always"
       id="filter3423">
      <feGaussianBlur
         inkscape:collect="always"
         stdDeviation="0.425"
         id="feGaussianBlur3425" />
    </filter>
    <linearGradient
       inkscape:collect="always"
       id="linearGradient2971">
      <stop
         style="stop-color:#bfffbf;stop-opacity:1;"
         offset="0"
         id="stop2973" />
      <stop
         style="stop-color:#bfffbf;stop-opacity:0;"
         offset="1"
         id="stop2975" />
    </linearGradient>
    <linearGradient
       inkscape:collect="always"
       id="linearGradient2948">
      <stop
         style="stop-color:#66f515;stop-opacity:1"
         offset="0"
         id="stop2950" />
      <stop
         style="stop-color:#002e00;stop-opacity:1"
         offset="1"
         id="stop2952" />
    </linearGradient>
    <linearGradient
       inkscape:collect="always"
       id="linearGradient2981">
      <stop
         style="stop-color:#001400;stop-opacity:1;"
         offset="0"
         id="stop2983" />
      <stop
         style="stop-color:#001400;stop-opacity:0;"
         offset="1"
         id="stop2985" />
    </linearGradient>
    <filter
       inkscape:collect="always"
       id="filter3537"
       x="-0.18232919"
       width="1.3646584"
       y="-0.10289138"
       height="1.2057828">
      <feGaussianBlur
         inkscape:collect="always"
         stdDeviation="0.45819706"
         id="feGaussianBlur3539" />
    </filter>
    <filter
       inkscape:collect="always"
       id="filter3541"
       x="-0.10382974"
       width="1.2076595"
       y="-0.18512974"
       height="1.3702595">
      <feGaussianBlur
         inkscape:collect="always"
         stdDeviation="0.45819702"
         id="feGaussianBlur3543" />
    </filter>
    <filter
       inkscape:collect="always"
       id="filter3529"
       x="-0.18232919"
       width="1.3646584"
       y="-0.10289138"
       height="1.2057828">
      <feGaussianBlur
         inkscape:collect="always"
         stdDeviation="0.45819706"
         id="feGaussianBlur3531" />
    </filter>
    <filter
       inkscape:collect="always"
       id="filter3533"
       x="-0.10382974"
       width="1.2076595"
       y="-0.18512974"
       height="1.3702595">
      <feGaussianBlur
         inkscape:collect="always"
         stdDeviation="0.45819702"
         id="feGaussianBlur3535" />
    </filter>
    <filter
       inkscape:collect="always"
       id="filter3525"
       x="-0.18232919"
       width="1.3646584"
       y="-0.10289138"
       height="1.2057828">
      <feGaussianBlur
         inkscape:collect="always"
         stdDeviation="0.45819706"
         id="feGaussianBlur3527" />
    </filter>
    <linearGradient
       inkscape:collect="always"
       id="linearGradient3415">
      <stop
         style="stop-color:#f0ff80;stop-opacity:1;"
         offset="0"
         id="stop3417" />
      <stop
         style="stop-color:#f0ff80;stop-opacity:0;"
         offset="1"
         id="stop3419" />
    </linearGradient>
    <filter
       inkscape:collect="always"
       id="filter3521">
      <feBlend
         inkscape:collect="always"
         mode="lighten"
         in2="BackgroundImage"
         id="feBlend3523" />
    </filter>
    <linearGradient
       inkscape:collect="always"
       id="linearGradient2998">
      <stop
         style="stop-color:#ffffff;stop-opacity:1;"
         offset="0"
         id="stop3000" />
      <stop
         style="stop-color:#ffffff;stop-opacity:0;"
         offset="1"
         id="stop3002" />
    </linearGradient>
    <filter
       inkscape:collect="always"
       id="filter3505">
      <feGaussianBlur
         inkscape:collect="always"
         stdDeviation="0.4605"
         id="feGaussianBlur3507" />
    </filter>
    <linearGradient
       id="linearGradient7141">
      <stop
         offset="0"
         style="stop-color:#222222;stop-opacity:1;"
         id="stop7143" />
      <stop
         offset="0.23586744"
         style="stop-color:#0c0c0c;stop-opacity:1;"
         id="stop7149" />
      <stop
         offset="1"
         style="stop-color:#000000;stop-opacity:1"
         id="stop7145" />
    </linearGradient>
    <linearGradient
       id="linearGradient3215">
      <stop
         offset="0"
         style="stop-color:#ffffff;stop-opacity:1;"
         id="stop3217" />
      <stop
         offset="0.5"
         style="stop-color:#ffffff;stop-opacity:0.28158844;"
         id="stop3221" />
      <stop
         offset="1"
         style="stop-color:#ffffff;stop-opacity:0;"
         id="stop3219" />
    </linearGradient>
    <radialGradient
       inkscape:collect="always"
       xlink:href="#linearGradient3215"
       id="radialGradient2968"
       gradientUnits="userSpaceOnUse"
       gradientTransform="matrix(-1,0,0,0.4197507,617.21875,939.68651)"
       cx="215"
       cy="1608.8442"
       fx="214.5"
       fy="1575.4911"
       r="91.609375" />
    <linearGradient
       inkscape:collect="always"
       xlink:href="#linearGradient7141"
       id="linearGradient2970"
       gradientUnits="userSpaceOnUse"
       gradientTransform="translate(244.89238,1570.7221)"
       x1="50.10762"
       y1="89.277901"
       x2="50.10762"
       y2="9.2778997" />
    <radialGradient
       inkscape:collect="always"
       xlink:href="#linearGradient3215"
       id="radialGradient2972"
       gradientUnits="userSpaceOnUse"
       gradientTransform="matrix(1,0,0,0.3189789,-1732.0312,1541.3405)"
       cx="2040.6406"
       cy="136.14062"
       fx="2040.6406"
       fy="136.14062"
       r="91.609398" />
    <radialGradient
       inkscape:collect="always"
       xlink:href="#linearGradient3215"
       id="radialGradient2974"
       gradientUnits="userSpaceOnUse"
       gradientTransform="matrix(-0.1681654,4.5059775e-2,4.2099459e-2,0.1571173,569.84457,1467.2968)"
       cx="2132.25"
       cy="136.14069"
       fx="2132.25"
       fy="136.14069"
       r="91.609398" />
    <radialGradient
       inkscape:collect="always"
       xlink:href="#linearGradient3215"
       id="radialGradient2976"
       gradientUnits="userSpaceOnUse"
       gradientTransform="matrix(1,0,0,0.4197507,0,939.68651)"
       cx="215"
       cy="1608.8442"
       fx="214.5"
       fy="1575.4911"
       r="91.609375" />
    <linearGradient
       inkscape:collect="always"
       xlink:href="#linearGradient3436"
       id="linearGradient2552"
       gradientUnits="userSpaceOnUse"
       gradientTransform="matrix(0.1532107,0,0,0.1532107,-1.8144584,-1.1353256)"
       x1="83.324677"
       y1="24.0625"
       x2="83.324677"
       y2="69.837845" />
    <linearGradient
       inkscape:collect="always"
       xlink:href="#linearGradient3436"
       id="linearGradient2555"
       gradientUnits="userSpaceOnUse"
       x1="87.533279"
       y1="74.838577"
       x2="77.137749"
       y2="46.277084"
       gradientTransform="matrix(0.1532107,0,0,0.1532107,-1.8144584,-1.7481684)" />
    <linearGradient
       inkscape:collect="always"
       xlink:href="#linearGradient2971"
       id="linearGradient2559"
       gradientUnits="userSpaceOnUse"
       gradientTransform="matrix(0.1532107,0,0,0.1532107,-1.8144584,-1.1353256)"
       x1="83.324677"
       y1="24.0625"
       x2="83.324677"
       y2="89.99453" />
    <radialGradient
       inkscape:collect="always"
       xlink:href="#linearGradient2948"
       id="radialGradient2562"
       gradientUnits="userSpaceOnUse"
       gradientTransform="matrix(0.2009703,0,0,0.1507277,-4.4046343,-1.5468917)"
       cx="54.537579"
       cy="77.542084"
       fx="54.537579"
       fy="99.883759"
       r="48.000004" />
    <radialGradient
       inkscape:collect="always"
       xlink:href="#linearGradient2981"
       id="radialGradient2565"
       gradientUnits="userSpaceOnUse"
       gradientTransform="matrix(8.6512245e-2,1.3072447e-8,-2.1244211e-8,0.1405922,1.9275893,-1.726119)"
       cx="52.791927"
       cy="95.459297"
       fx="53.15992"
       fy="87.08094"
       r="52.000004" />
    <linearGradient
       inkscape:collect="always"
       xlink:href="#linearGradient7141"
       id="linearGradient2574"
       gradientUnits="userSpaceOnUse"
       gradientTransform="matrix(0.1532107,0,0,0.1532107,-1.8144547,-1.1353256)"
       x1="89.090881"
       y1="103.89701"
       x2="89.090881"
       y2="30.849478" />
    <radialGradient
       inkscape:collect="always"
       xlink:href="#linearGradient3215"
       id="radialGradient2597"
       gradientUnits="userSpaceOnUse"
       gradientTransform="matrix(0.200553,0,0,-0.3658025,-411.61177,61.596955)"
       cx="2132.25"
       cy="136.14069"
       fx="2132.25"
       fy="136.14069"
       r="91.609398" />
    <radialGradient
       inkscape:collect="always"
       xlink:href="#linearGradient3215"
       id="radialGradient2600"
       gradientUnits="userSpaceOnUse"
       gradientTransform="matrix(-1.1519571,0,0,0.4813668,265.99186,-811.05517)"
       cx="215"
       cy="1608.8442"
       fx="214.5"
       fy="1575.4911"
       r="91.609375" />
    <radialGradient
       inkscape:collect="always"
       xlink:href="#linearGradient3215"
       id="radialGradient2603"
       gradientUnits="userSpaceOnUse"
       gradientTransform="matrix(-0.200553,0,0,-0.3658025,232.58591,61.637208)"
       cx="2132.25"
       cy="136.14069"
       fx="2132.25"
       fy="136.14069"
       r="91.609398" />
    <radialGradient
       inkscape:collect="always"
       xlink:href="#linearGradient3215"
       id="radialGradient2606"
       gradientUnits="userSpaceOnUse"
       gradientTransform="matrix(-1.1519571,0,0,-0.3658025,2261.2176,61.623561)"
       cx="2040.6406"
       cy="136.14062"
       fx="2040.6406"
       fy="136.14062"
       r="91.609398" />
    <radialGradient
       inkscape:collect="always"
       xlink:href="#linearGradient3215"
       id="radialGradient2609"
       gradientUnits="userSpaceOnUse"
       gradientTransform="matrix(0.1937193,5.1674199e-2,-4.8496771e-2,0.1801809,-390.44464,-205.99577)"
       cx="2132.25"
       cy="136.14069"
       fx="2132.25"
       fy="136.14069"
       r="91.609398" />
    <linearGradient
       inkscape:collect="always"
       xlink:href="#linearGradient7141"
       id="linearGradient2612"
       gradientUnits="userSpaceOnUse"
       gradientTransform="matrix(-1.1519571,0,0,1.1467922,-16.113658,-87.385916)"
       x1="50.10762"
       y1="89.277901"
       x2="50.10762"
       y2="9.2778997" />
    <radialGradient
       inkscape:collect="always"
       xlink:href="#linearGradient3215"
       id="radialGradient2616"
       gradientUnits="userSpaceOnUse"
       gradientTransform="matrix(-0.200553,0,0,-0.3658025,427.6627,61.596955)"
       cx="2132.25"
       cy="136.14069"
       fx="2132.25"
       fy="136.14069"
       r="91.609398" />
    <radialGradient
       inkscape:collect="always"
       xlink:href="#linearGradient3215"
       id="radialGradient2619"
       gradientUnits="userSpaceOnUse"
       gradientTransform="matrix(1.1519571,0,0,0.4813668,-249.94093,-811.05517)"
       cx="215"
       cy="1608.8442"
       fx="214.5"
       fy="1575.4911"
       r="91.609375" />
    <radialGradient
       inkscape:collect="always"
       xlink:href="#linearGradient3215"
       id="radialGradient2622"
       gradientUnits="userSpaceOnUse"
       gradientTransform="matrix(0.200553,0,0,-0.3658025,-216.53498,61.637208)"
       cx="2132.25"
       cy="136.14069"
       fx="2132.25"
       fy="136.14069"
       r="91.609398" />
    <radialGradient
       inkscape:collect="always"
       xlink:href="#linearGradient3215"
       id="radialGradient2625"
       gradientUnits="userSpaceOnUse"
       gradientTransform="matrix(1.1519571,0,0,-0.3658025,-2245.1667,61.623561)"
       cx="2040.6406"
       cy="136.14062"
       fx="2040.6406"
       fy="136.14062"
       r="91.609398" />
    <radialGradient
       inkscape:collect="always"
       xlink:href="#linearGradient3215"
       id="radialGradient2628"
       gradientUnits="userSpaceOnUse"
       gradientTransform="matrix(-0.1937193,5.1674199e-2,4.8496771e-2,0.1801809,406.49557,-205.99577)"
       cx="2132.25"
       cy="136.14069"
       fx="2132.25"
       fy="136.14069"
       r="91.609398" />
    <linearGradient
       inkscape:collect="always"
       xlink:href="#linearGradient7141"
       id="linearGradient2631"
       gradientUnits="userSpaceOnUse"
       gradientTransform="matrix(1.1519571,0,0,1.1467922,32.164589,-87.385916)"
       x1="50.10762"
       y1="89.277901"
       x2="50.10762"
       y2="9.2778997" />
    <radialGradient
       inkscape:collect="always"
       xlink:href="#linearGradient3215"
       id="radialGradient2634"
       gradientUnits="userSpaceOnUse"
       gradientTransform="matrix(-1.1519571,0,0,0.4814551,460.9966,-735.50562)"
       cx="215"
       cy="1608.8442"
       fx="214.5"
       fy="1575.4911"
       r="91.609375" />
    <linearGradient
       inkscape:collect="always"
       xlink:href="#linearGradient7141"
       id="linearGradient2636"
       gradientUnits="userSpaceOnUse"
       gradientTransform="matrix(1.1519571,0,0,1.1470024,32.092596,-11.706282)"
       x1="50.10762"
       y1="89.277901"
       x2="50.10762"
       y2="9.2778997" />
    <radialGradient
       inkscape:collect="always"
       xlink:href="#linearGradient3215"
       id="radialGradient2638"
       gradientUnits="userSpaceOnUse"
       gradientTransform="matrix(1.1519571,0,0,0.3658696,-2245.2386,-45.407047)"
       cx="2040.6406"
       cy="136.14062"
       fx="2040.6406"
       fy="136.14062"
       r="91.609398" />
    <radialGradient
       inkscape:collect="always"
       xlink:href="#linearGradient3215"
       id="radialGradient2640"
       gradientUnits="userSpaceOnUse"
       gradientTransform="matrix(-0.1937193,5.168367e-2,4.8496771e-2,0.1802139,406.42358,-130.33535)"
       cx="2132.25"
       cy="136.14069"
       fx="2132.25"
       fy="136.14069"
       r="91.609398" />
    <radialGradient
       inkscape:collect="always"
       xlink:href="#linearGradient3215"
       id="radialGradient2645"
       gradientUnits="userSpaceOnUse"
       gradientTransform="matrix(1.1519571,0,0,0.4814551,-250.01292,-735.50562)"
       cx="215"
       cy="1608.8442"
       fx="214.5"
       fy="1575.4911"
       r="91.609375" />
  </defs>
  <sodipodi:namedview
     id="base"
     pagecolor="#ffffff"
     bordercolor="#666666"
     borderopacity="1.0"
     inkscape:pageopacity="0.0"
     inkscape:pageshadow="2"
     inkscape:zoom="16"
     inkscape:cx="11.739647"
     inkscape:cy="5.1419174"
     inkscape:document-units="px"
     inkscape:current-layer="layer1"
     showgrid="false"
     inkscape:window-width="1390"
     inkscape:window-height="934"
     inkscape:window-x="0"
     inkscape:window-y="34" />
  <metadata
     id="metadata2634">
    <rdf:RDF>
      <cc:Work
         rdf:about="">
        <dc:format>image/svg+xml</dc:format>
        <dc:type
           rdf:resource="http://purl.org/dc/dcmitype/StillImage" />
      </cc:Work>
    </rdf:RDF>
  </metadata>
  <g
     inkscape:label="Ebene 1"
     inkscape:groupmode="layer"
     id="layer1">
    <path
       style="opacity:0.47397257;fill:url(#radialGradient2634);fill-opacity:1;stroke:none;stroke-width:1;stroke-linecap:round;stroke-linejoin:round;stroke-miterlimit:4;stroke-dasharray:none;stroke-dashoffset:1.08779998;stroke-opacity:1"
       d="M 7.4854905,0.0824944 C 3.3031951,0.0824944 -0.0382293,3.4096043 -0.0382293,7.5737965 L -0.0382293,8.1115112 L -0.0022306406,8.1115112 C 0.31286418,4.2445073 3.5149133,1.2294968 7.4854905,1.2294968 L 8.0254704,1.2294968 L 8.0254704,0.0824944 L 7.4854905,0.0824944 z"
       id="path7123" />
    <path
       style="fill:url(#linearGradient2636);fill-opacity:1;stroke:none;stroke-width:1;stroke-linecap:round;stroke-linejoin:round;stroke-miterlimit:4;stroke-dasharray:none;stroke-dashoffset:1.08779998;stroke-opacity:1"
       d="M 7.5214892,0.0824944 C 3.0078678,0.0824944 -0.0382293,3.2426007 -0.0382293,7.6096977 L -0.0382293,8.1115112 L 8.0254704,8.1115112 L 8.0254704,0.0824944 L 7.5214892,0.0824944 z"
       id="path7125"
       sodipodi:nodetypes="cccccc" />
    <path
       style="fill:url(#radialGradient2638);fill-opacity:1;stroke:none;stroke-width:1;stroke-linecap:round;stroke-linejoin:round;stroke-miterlimit:4;stroke-dasharray:none;stroke-dashoffset:1.08779998;stroke-opacity:1"
       d="M 7.4854905,0.0824944 C 3.3031951,0.0824944 -0.0382293,3.4096043 -0.0382293,7.5737965 L -0.0382293,8.1115112 L -0.0022306406,8.1115112 C 0.31286418,4.2445073 3.5149133,1.2294968 7.4854905,1.2294968 L 8.0254704,1.2294968 L 8.0254704,0.0824944 L 7.4854905,0.0824944 z"
       id="path7127" />
    <path
       sodipodi:nodetypes="cccccccc"
       style="opacity:0.93150689;fill:url(#radialGradient2640);fill-opacity:1;stroke:none;stroke-width:1;stroke-linecap:round;stroke-linejoin:round;stroke-miterlimit:4;stroke-dasharray:none;stroke-dashoffset:1.08779998;stroke-opacity:1"
       d="M 7.4854905,0.0824944 C 3.0485434,0.0824944 -0.0382293,3.2510885 -0.0382293,7.5737965 L -0.0382293,8.1115112 L 1.1137278,8.1115112 C 1.323407,4.2441632 3.5145101,1.2294968 7.4854905,1.2294968 L 8.0254704,1.2294968 L 8.0254704,0.0824944 L 7.4854905,0.0824944 z"
       id="path7129" />
    <path
       sodipodi:nodetypes="cccccccc"
       style="opacity:0.47397257;fill:url(#radialGradient2645);fill-opacity:1;stroke:none;stroke-width:1;stroke-linecap:round;stroke-linejoin:round;stroke-miterlimit:4;stroke-dasharray:none;stroke-dashoffset:1.08779998;stroke-opacity:1"
       d="M 7.4854905,0.0824944 C 3.0485434,0.0824944 -0.0382293,3.2510885 -0.0382293,7.5737965 L -0.0382293,8.1115112 L 1.1137278,8.1115112 C 1.323407,4.2441632 3.5145101,1.2294968 7.4854905,1.2294968 L 8.0254704,1.2294968 L 8.0254704,0.0824944 L 7.4854905,0.0824944 z"
       id="path7131" />
    <path
       style="fill:url(#linearGradient2631);fill-opacity:1;stroke:none;stroke-width:1;stroke-linecap:round;stroke-linejoin:round;stroke-miterlimit:4;stroke-dasharray:none;stroke-dashoffset:1.08779998;stroke-opacity:1"
       d="M 0.0337634,8.1165304 L 0.0337634,8.618252 C 0.0337634,12.781796 3.4111288,16.144076 7.5934819,16.144076 L 8.0974631,16.144076 L 8.0974631,8.1165304 L 0.0337634,8.1165304 z"
       id="path7172" />
    <path
       style="opacity:0.93150689;fill:url(#radialGradient2628);fill-opacity:1;stroke:none;stroke-width:1;stroke-linecap:round;stroke-linejoin:round;stroke-miterlimit:4;stroke-dasharray:none;stroke-dashoffset:1.08779998;stroke-opacity:1"
       d="M 0.0337634,8.1140075 L 0.0337634,8.615729 C 0.0337634,10.07766 0.46595466,11.442113 1.1857205,12.593607 L 1.1857205,8.1140075 L 0.0337634,8.1140075 z"
       id="path7174" />
    <path
       style="opacity:0.7;fill:url(#radialGradient2625);fill-opacity:1;stroke:none;stroke-width:1;stroke-linecap:round;stroke-linejoin:round;stroke-miterlimit:4;stroke-dasharray:none;stroke-dashoffset:1.08779998;stroke-opacity:1"
       d="M 0.0337634,8.1140075 L 0.0337634,8.6516236 C 0.0337634,12.815167 3.3751878,16.141553 7.5574832,16.141553 L 8.0974631,16.141553 L 8.0974631,14.994761 L 7.5574832,14.994761 C 3.586906,14.994761 0.38485688,11.980188 0.069762059,8.1140075 L 0.0337634,8.1140075 z"
       id="path7371" />
    <path
       style="opacity:0.47073173;fill:url(#radialGradient2622);fill-opacity:1;stroke:none;stroke-width:1;stroke-linecap:round;stroke-linejoin:round;stroke-miterlimit:4;stroke-dasharray:none;stroke-dashoffset:1.08779998;stroke-opacity:1"
       d="M 0.0337634,8.1140075 L 0.0337634,8.6516236 C 0.0337634,12.815167 3.3751878,16.141553 7.5574832,16.141553 L 8.0974631,16.141553 L 8.0974631,14.994761 L 7.5574832,14.994761 C 3.5772986,14.994761 0.37155178,11.993835 0.069762059,8.1140075 L 0.0337634,8.1140075 z"
       id="path7373" />
    <path
       style="opacity:0.47397257;fill:url(#radialGradient2619);fill-opacity:1;stroke:none;stroke-width:1;stroke-linecap:round;stroke-linejoin:round;stroke-miterlimit:4;stroke-dasharray:none;stroke-dashoffset:1.08779998;stroke-opacity:1"
       d="M 0.0337634,8.1140075 L 0.0337634,8.615729 C 0.0337634,10.07766 0.46595466,11.442113 1.1857205,12.593607 L 1.1857205,8.1140075 L 0.0337634,8.1140075 z"
       id="path7178" />
    <path
       style="opacity:0.47073173;fill:url(#radialGradient2616);fill-opacity:1;stroke:none;stroke-width:1;stroke-linecap:round;stroke-linejoin:round;stroke-miterlimit:4;stroke-dasharray:none;stroke-dashoffset:1.08779998;stroke-opacity:1"
       d="M 0.0337634,8.1140075 L 0.0337634,8.6516236 C 0.0337634,12.815167 3.3750726,16.141553 7.5574832,16.141553 L 8.0974631,16.141553 L 8.0974631,14.994761 L 7.5574832,14.994761 C 3.5867908,14.994761 0.38483385,11.980303 0.069762059,8.1140075 L 0.0337634,8.1140075 z"
       id="path7376" />
    <path
       id="path7241"
       d="M 16.017167,8.1165304 L 16.017167,8.618252 C 16.017167,12.781796 12.639802,16.144076 8.457449,16.144076 L 7.9534678,16.144076 L 7.9534678,8.1165304 L 16.017167,8.1165304 z"
       style="fill:url(#linearGradient2612);fill-opacity:1;stroke:none;stroke-width:1;stroke-linecap:round;stroke-linejoin:round;stroke-miterlimit:4;stroke-dasharray:none;stroke-dashoffset:1.08779998;stroke-opacity:1" />
    <path
       id="path7243"
       d="M 16.017167,8.1140075 L 16.017167,8.615729 C 16.017167,10.07766 15.584976,11.442113 14.86521,12.593607 L 14.86521,8.1140075 L 16.017167,8.1140075 z"
       style="opacity:0.93150689;fill:url(#radialGradient2609);fill-opacity:1;stroke:none;stroke-width:1;stroke-linecap:round;stroke-linejoin:round;stroke-miterlimit:4;stroke-dasharray:none;stroke-dashoffset:1.08779998;stroke-opacity:1" />
    <path
       id="path7245"
       d="M 16.017167,8.1140075 L 16.017167,8.6516236 C 16.017167,12.815167 12.675743,16.141553 8.4934477,16.141553 L 7.9534678,16.141553 L 7.9534678,14.994761 L 8.4934477,14.994761 C 12.464025,14.994761 15.666074,11.980188 15.981169,8.1140075 L 16.017167,8.1140075 z"
       style="opacity:0.7;fill:url(#radialGradient2606);fill-opacity:1;stroke:none;stroke-width:1;stroke-linecap:round;stroke-linejoin:round;stroke-miterlimit:4;stroke-dasharray:none;stroke-dashoffset:1.08779998;stroke-opacity:1" />
    <path
       id="path7247"
       d="M 16.017167,8.1140075 L 16.017167,8.6516236 C 16.017167,12.815167 12.675743,16.141553 8.4934477,16.141553 L 7.9534678,16.141553 L 7.9534678,14.994761 L 8.4934477,14.994761 C 12.473632,14.994761 15.679379,11.993835 15.981169,8.1140075 L 16.017167,8.1140075 z"
       style="opacity:0.47073173;fill:url(#radialGradient2603);fill-opacity:1;stroke:none;stroke-width:1;stroke-linecap:round;stroke-linejoin:round;stroke-miterlimit:4;stroke-dasharray:none;stroke-dashoffset:1.08779998;stroke-opacity:1" />
    <path
       id="path7249"
       d="M 16.017167,8.1140075 L 16.017167,8.615729 C 16.017167,10.07766 15.584976,11.442113 14.86521,12.593607 L 14.86521,8.1140075 L 16.017167,8.1140075 z"
       style="opacity:0.47397257;fill:url(#radialGradient2600);fill-opacity:1;stroke:none;stroke-width:1;stroke-linecap:round;stroke-linejoin:round;stroke-miterlimit:4;stroke-dasharray:none;stroke-dashoffset:1.08779998;stroke-opacity:1" />
    <path
       id="path7251"
       d="M 16.017167,8.1140075 L 16.017167,8.6516236 C 16.017167,12.815167 12.675858,16.141553 8.4934477,16.141553 L 7.9534678,16.141553 L 7.9534678,14.994761 L 8.4934477,14.994761 C 12.46414,14.994761 15.666097,11.980303 15.981169,8.1140075 L 16.017167,8.1140075 z"
       style="opacity:0.47073173;fill:url(#radialGradient2597);fill-opacity:1;stroke:none;stroke-width:1;stroke-linecap:round;stroke-linejoin:round;stroke-miterlimit:4;stroke-dasharray:none;stroke-dashoffset:1.08779998;stroke-opacity:1" />
    <g
       transform="matrix(-1.1519571,0,0,1.1470024,265.99186,-1813.3283)"
       id="g7253">
      <path
         style="opacity:0.47397257;fill:url(#radialGradient2968);fill-opacity:1;stroke:none;stroke-width:1;stroke-linecap:round;stroke-linejoin:round;stroke-miterlimit:4;stroke-dasharray:none;stroke-dashoffset:1.08779998;stroke-opacity:1"
         d="M 223.53125,1581 C 219.90065,1581 217,1583.9007 217,1587.5312 L 217,1588 L 217.03125,1588 C 217.30478,1584.6286 220.08444,1582 223.53125,1582 L 224,1582 L 224,1581 L 223.53125,1581 z"
         id="path7255" />
      <path
         sodipodi:nodetypes="cccccc"
         style="fill:url(#linearGradient2970);fill-opacity:1;stroke:none;stroke-width:1;stroke-linecap:round;stroke-linejoin:round;stroke-miterlimit:4;stroke-dasharray:none;stroke-dashoffset:1.08779998;stroke-opacity:1"
         d="M 223.5625,1581 C 219.82084,1581 217,1583.5781 217,1587.5625 L 217,1588 L 224,1588 L 224,1581 L 223.5625,1581 z"
         id="path7257" />
      <path
         style="fill:url(#radialGradient2972);fill-opacity:1;stroke:none;stroke-width:1;stroke-linecap:round;stroke-linejoin:round;stroke-miterlimit:4;stroke-dasharray:none;stroke-dashoffset:1.08779998;stroke-opacity:1"
         d="M 223.53125,1581 C 219.90065,1581 217,1583.9007 217,1587.5312 L 217,1588 L 217.03125,1588 C 217.30478,1584.6286 220.08444,1582 223.53125,1582 L 224,1582 L 224,1581 L 223.53125,1581 z"
         id="path7259" />
      <path
         sodipodi:nodetypes="cccccccc"
         style="opacity:0.93150689;fill:url(#radialGradient2974);fill-opacity:1;stroke:none;stroke-width:1;stroke-linecap:round;stroke-linejoin:round;stroke-miterlimit:4;stroke-dasharray:none;stroke-dashoffset:1.08779998;stroke-opacity:1"
         d="M 223.53125,1581 C 219.67959,1581 217,1583.7625 217,1587.5312 L 217,1588 L 218,1588 C 218.18202,1584.6283 220.08409,1582 223.53125,1582 L 224,1582 L 224,1581 L 223.53125,1581 z"
         id="path7261" />
      <path
         sodipodi:nodetypes="cccccccc"
         style="opacity:0.47397257;fill:url(#radialGradient2976);fill-opacity:1;stroke:none;stroke-width:1;stroke-linecap:round;stroke-linejoin:round;stroke-miterlimit:4;stroke-dasharray:none;stroke-dashoffset:1.08779998;stroke-opacity:1"
         d="M 223.53125,1581 C 219.67959,1581 217,1583.7625 217,1587.5312 L 217,1588 L 218,1588 C 218.18202,1584.6283 220.08409,1582 223.53125,1582 L 224,1582 L 224,1581 L 223.53125,1581 z"
         id="path7263" />
    </g>
    <path
       style="fill:none;stroke:#004d00;stroke-width:8.10000038;stroke-linecap:round;stroke-linejoin:round;stroke-miterlimit:4;stroke-dasharray:none;stroke-opacity:1;filter:url(#filter3505)"
       id="path3503"
       d="M 54.393966,74.154282 C 46.245967,65.803997 28.630827,47.75 28.630827,47.75 L 15.999972,60.697999 L 54.393966,100.05285 L 111.99998,41 L 99.367397,28.05286 C 99.367397,28.05286 64.105395,64.200283 54.393966,74.154282 z"
       transform="matrix(0.1532107,0,0,0.1532107,-1.8144547,-1.7481684)" />
    <path
       d="M 6.5192829,9.6130611 C 5.2709223,8.333708 2.5720943,5.5676425 2.5720943,5.5676425 L 0.63691221,7.5514145 L 6.5192829,13.580999 L 15.345141,4.5334703 L 13.409694,2.5498299 C 13.409694,2.5498299 8.0071777,8.0880019 6.5192829,9.6130611 z"
       id="path2365"
       style="fill:none;stroke:url(#linearGradient2574);stroke-width:1.2256856;stroke-linecap:round;stroke-linejoin:round;stroke-miterlimit:4;stroke-dasharray:none;stroke-opacity:1" />
    <path
       d="M 54.393966,74.154282 C 46.245967,65.803997 28.630827,47.75 28.630827,47.75 L 15.999972,60.697999 L 54.393966,100.05285 L 111.99998,41 L 99.367397,28.05286 C 99.367397,28.05286 64.105395,64.200283 54.393966,74.154282 z"
       id="path3509"
       style="opacity:0.2857143;fill:none;stroke:url(#radialGradient3511);stroke-width:8;stroke-linecap:round;stroke-linejoin:round;stroke-miterlimit:4;stroke-dasharray:none;stroke-opacity:1;filter:url(#filter3521)"
       transform="matrix(0.1532107,0,0,0.1532107,-1.8144547,-1.7481684)" />
    <path
       style="opacity:0.40952382;fill:url(#radialGradient3457);fill-opacity:1;stroke:none;stroke-width:8;stroke-linecap:round;stroke-linejoin:round;stroke-miterlimit:4;stroke-dasharray:none;stroke-opacity:1;filter:url(#filter3525)"
       d="M 28.406226,44.03125 C 28.256338,44.028846 28.119644,44.047827 27.968726,44.0625 C 27.141534,44.144551 26.373396,44.489582 25.749976,45.03125 L 27.437476,54.71875 C 27.548391,54.605074 28.287843,53.870571 28.374976,53.78125 L 28.749976,54.15625 L 31.781226,45.8125 L 31.218726,45.25 C 30.477376,44.490406 29.455436,44.048081 28.406226,44.03125 z"
       id="path3455"
       transform="matrix(0.1532107,0,0,-0.1532107,2.1690235,20.88868)" />
    <path
       style="opacity:0.23809521;fill:url(#radialGradient3292);fill-opacity:1;stroke:none;stroke-width:8;stroke-linecap:round;stroke-linejoin:round;stroke-miterlimit:4;stroke-dasharray:none;stroke-opacity:1;filter:url(#filter3533)"
       d="M 99.40625,24.03125 C 99.256362,24.028846 99.119668,24.047827 98.96875,24.0625 C 98.141558,24.144551 97.37342,24.489582 96.75,25.03125 L 98.4375,34.71875 C 98.548415,34.605074 99.287867,33.870571 99.375,33.78125 L 99.75,34.15625 L 102.78125,25.8125 L 102.21875,25.25 C 101.4774,24.490406 100.45546,24.048081 99.40625,24.03125 z"
       transform="matrix(-5.2401154e-2,0.143971,0.143971,5.2401154e-2,1.8947472,-8.2141654)"
       id="path3290" />
    <path
       id="path3286"
       d="M 28.406226,44.03125 C 28.256338,44.028846 28.119644,44.047827 27.968726,44.0625 C 27.141534,44.144551 26.373396,44.489582 25.749976,45.03125 L 27.437476,54.71875 C 27.548391,54.605074 28.287843,53.870571 28.374976,53.78125 L 28.749976,54.15625 L 31.781226,45.8125 L 31.218726,45.25 C 30.477376,44.490406 29.455436,44.048081 28.406226,44.03125 z"
       style="opacity:0.77619048;fill:url(#radialGradient3288);fill-opacity:1;stroke:none;stroke-width:8;stroke-linecap:round;stroke-linejoin:round;stroke-miterlimit:4;stroke-dasharray:none;stroke-opacity:1;filter:url(#filter3529)"
       transform="matrix(0.1532107,0,0,0.1532107,-1.8144547,-1.7481684)" />
    <path
       id="path3254"
       transform="matrix(5.2401154e-2,0.143971,-0.143971,5.2401154e-2,14.201178,-11.278379)"
       d="M 99.40625,24.03125 C 99.256362,24.028846 99.119668,24.047827 98.96875,24.0625 C 98.141558,24.144551 97.37342,24.489582 96.75,25.03125 L 98.4375,34.71875 C 98.548415,34.605074 99.287867,33.870571 99.375,33.78125 L 99.75,34.15625 L 102.78125,25.8125 L 102.21875,25.25 C 101.4774,24.490406 100.45546,24.048081 99.40625,24.03125 z"
       style="opacity:0.37142861;fill:url(#radialGradient3256);fill-opacity:1;stroke:none;stroke-width:8;stroke-linecap:round;stroke-linejoin:round;stroke-miterlimit:4;stroke-dasharray:none;stroke-opacity:1;filter:url(#filter3541)" />
    <path
       style="opacity:0.87142855;fill:url(#radialGradient3004);fill-opacity:1;stroke:none;stroke-width:8;stroke-linecap:round;stroke-linejoin:round;stroke-miterlimit:4;stroke-dasharray:none;stroke-opacity:1;filter:url(#filter3537)"
       d="M 99.40625,24.03125 C 99.256362,24.028846 99.119668,24.047827 98.96875,24.0625 C 98.141558,24.144551 97.37342,24.489582 96.75,25.03125 L 98.4375,34.71875 C 98.548415,34.605074 99.287867,33.870571 99.375,33.78125 L 99.75,34.15625 L 102.78125,25.8125 L 102.21875,25.25 C 101.4774,24.490406 100.45546,24.048081 99.40625,24.03125 z"
       transform="matrix(0.1532107,0,0,0.1532107,-1.8144584,-1.7481684)"
       id="path2989" />
    <path
       style="opacity:0.2857143;fill:none;stroke:url(#radialGradient2565);stroke-width:1.2256856;stroke-linecap:round;stroke-linejoin:round;stroke-miterlimit:4;stroke-dasharray:none;stroke-opacity:1"
       id="path2979"
       d="M 6.5192829,9.6130611 C 5.2709223,8.333708 2.5720943,5.5676425 2.5720943,5.5676425 L 0.63691221,7.5514145 L 6.5192829,13.580999 L 15.345141,4.5334703 L 13.409694,2.5498299 C 13.409694,2.5498299 8.0071777,8.0880019 6.5192829,9.6130611 z" />
    <path
       style="fill:url(#radialGradient2562);fill-opacity:1"
       id="path24"
       d="M 6.5192829,9.6130611 C 5.2709223,8.333708 2.5720943,5.5676425 2.5720943,5.5676425 L 0.63691221,7.5514145 L 6.5192829,13.580999 L 15.345141,4.5334703 L 13.409694,2.5498299 C 13.409694,2.5498299 8.0071777,8.0880019 6.5192829,9.6130611 z" />
    <path
       style="fill:url(#linearGradient2559);fill-opacity:1"
       d="M 13.410855,2.5513069 C 13.410854,2.5513069 8.0090561,8.0883034 6.5211613,9.6133626 C 5.2728006,8.3340096 2.5711979,5.5676425 2.5711979,5.5676425 L 0.63691282,7.549806 L 3.1601015,10.135237 C 3.1890447,10.135311 3.2173069,10.135237 3.2462826,10.135237 C 5.9320353,10.135237 8.4763276,9.8145452 10.758395,9.2399115 L 15.345141,4.5334703 L 13.410855,2.5513069 z"
       id="path2964" />
    <path
       d="M 54.393966,74.154282 C 46.245967,65.803997 28.630827,47.75 28.630827,47.75 L 15.999972,60.697999 L 54.393966,100.05285 L 111.99998,41 L 99.367397,28.05286 C 99.367397,28.05286 64.105395,64.200283 54.393966,74.154282 z"
       id="path3413"
       style="fill:none;fill-opacity:1;stroke:url(#linearGradient3421);stroke-opacity:1;filter:url(#filter3423)"
       transform="matrix(0.1532107,0,0,0.1532107,-1.8144547,-1.7481684)" />
    <path
       style="fill:url(#linearGradient2555);fill-opacity:1"
       d="M 13.410855,2.5513069 C 13.410855,2.5513069 13.349534,2.6173929 13.348613,2.6183365 L 15.215868,4.4999555 L 10.619547,9.1297913 C 8.3325409,9.6947763 5.8612434,10.08257 3.1696772,10.08257 C 3.1503182,10.08257 3.1313606,10.08257 3.1122232,10.08257 L 3.1601015,10.135237 C 3.1890447,10.135311 3.2173069,10.135237 3.2462825,10.135237 C 5.9320353,10.135237 8.4763276,9.8145452 10.758395,9.2399115 L 15.34514,4.5334703 L 13.410855,2.5513069 z"
       id="path3427"
       sodipodi:nodetypes="ccccsccsccc" />
    <path
       style="fill:url(#linearGradient2552);fill-opacity:1"
       d="M 13.410855,2.5513069 C 13.410854,2.5513069 8.0090561,8.0883034 6.5211612,9.6133626 C 5.2728006,8.3340096 2.5711979,5.5676425 2.5711979,5.5676425 L 0.6369128,7.549806 L 0.71351815,7.6264113 L 2.5711979,5.7208532 C 2.5711979,5.7208532 5.2728006,8.4872203 6.5211612,9.7665733 C 8.0090561,8.2415141 13.410854,2.7045176 13.410855,2.7045176 L 15.268535,4.6100757 L 15.34514,4.5334703 L 13.410855,2.5513069 z"
       id="path3444" />
  </g>
</svg>
