<?xml version="1.0" encoding="UTF-8" standalone="no"?>
<!-- Created with Inkscape (http://www.inkscape.org/) -->
<svg
   xmlns:dc="http://purl.org/dc/elements/1.1/"
   xmlns:cc="http://creativecommons.org/ns#"
   xmlns:rdf="http://www.w3.org/1999/02/22-rdf-syntax-ns#"
   xmlns:svg="http://www.w3.org/2000/svg"
   xmlns="http://www.w3.org/2000/svg"
   xmlns:xlink="http://www.w3.org/1999/xlink"
   xmlns:sodipodi="http://sodipodi.sourceforge.net/DTD/sodipodi-0.dtd"
   xmlns:inkscape="http://www.inkscape.org/namespaces/inkscape"
   width="16"
   height="16"
   id="svg2629"
   sodipodi:version="0.32"
   inkscape:version="0.46"
   version="1.0"
   sodipodi:docname="checkbox-checked-hover16x16.svg"
   inkscape:output_extension="org.inkscape.output.svg.inkscape">
  <defs
     id="defs2631">
    <linearGradient
       inkscape:collect="always"
       xlink:href="#linearGradient3415"
       id="linearGradient3421"
       x1="71.603867"
       y1="96.884026"
       x2="71.603867"
       y2="47.378731"
       gradientUnits="userSpaceOnUse" />
    <radialGradient
       inkscape:collect="always"
       xlink:href="#linearGradient2998"
       id="radialGradient3004"
       cx="99.765625"
       cy="29.374895"
       fx="99.765625"
       fy="29.374895"
       r="3.015625"
       gradientTransform="matrix(1.9646726,3.4242959e-7,-1.0414508e-6,5.9752716,-96.241137,-146.14811)"
       gradientUnits="userSpaceOnUse" />
    <radialGradient
       inkscape:collect="always"
       xlink:href="#linearGradient2998"
       id="radialGradient3256"
       gradientUnits="userSpaceOnUse"
       gradientTransform="matrix(1.9646726,3.4242959e-7,-1.0414508e-6,5.9752716,-96.241137,-146.14811)"
       cx="99.765625"
       cy="29.374895"
       fx="99.765625"
       fy="29.374895"
       r="3.015625" />
    <radialGradient
       inkscape:collect="always"
       xlink:href="#linearGradient2998"
       id="radialGradient3288"
       gradientUnits="userSpaceOnUse"
       gradientTransform="matrix(1.9646726,3.4242959e-7,-1.0414508e-6,5.9752716,-167.24116,-126.14811)"
       cx="99.765625"
       cy="29.374895"
       fx="99.765625"
       fy="29.374895"
       r="3.015625" />
    <radialGradient
       inkscape:collect="always"
       xlink:href="#linearGradient2998"
       id="radialGradient3292"
       gradientUnits="userSpaceOnUse"
       gradientTransform="matrix(1.9646726,3.4242959e-7,-1.0414508e-6,5.9752716,-96.241137,-146.14811)"
       cx="99.765625"
       cy="29.374895"
       fx="99.765625"
       fy="29.374895"
       r="3.015625" />
    <radialGradient
       inkscape:collect="always"
       xlink:href="#linearGradient3415"
       id="radialGradient3457"
       gradientUnits="userSpaceOnUse"
       gradientTransform="matrix(1.9646726,3.4242959e-7,-1.0414508e-6,5.9752716,-167.24116,-126.14811)"
       cx="99.765625"
       cy="29.374895"
       fx="99.765625"
       fy="29.374895"
       r="3.015625" />
    <radialGradient
       inkscape:collect="always"
       xlink:href="#linearGradient2998"
       id="radialGradient3511"
       gradientUnits="userSpaceOnUse"
       gradientTransform="matrix(1.0961401,8.7912098e-2,-0.1002304,1.2497316,1.0599334,-18.687387)"
       cx="53.633381"
       cy="51.919601"
       fx="53.633381"
       fy="51.919601"
       r="52.000004" />
    <linearGradient
       inkscape:collect="always"
       id="linearGradient3436">
      <stop
         style="stop-color:#ffffff;stop-opacity:1;"
         offset="0"
         id="stop3438" />
      <stop
         style="stop-color:#ffffff;stop-opacity:0;"
         offset="1"
         id="stop3440" />
    </linearGradient>
    <filter
       inkscape:collect="always"
       id="filter3423">
      <feGaussianBlur
         inkscape:collect="always"
         stdDeviation="0.425"
         id="feGaussianBlur3425" />
    </filter>
    <linearGradient
       inkscape:collect="always"
       id="linearGradient2971">
      <stop
         style="stop-color:#bfffbf;stop-opacity:1;"
         offset="0"
         id="stop2973" />
      <stop
         style="stop-color:#bfffbf;stop-opacity:0;"
         offset="1"
         id="stop2975" />
    </linearGradient>
    <linearGradient
       inkscape:collect="always"
       id="linearGradient2948">
      <stop
         style="stop-color:#66f515;stop-opacity:1"
         offset="0"
         id="stop2950" />
      <stop
         style="stop-color:#002e00;stop-opacity:1"
         offset="1"
         id="stop2952" />
    </linearGradient>
    <linearGradient
       inkscape:collect="always"
       id="linearGradient2981">
      <stop
         style="stop-color:#001400;stop-opacity:1;"
         offset="0"
         id="stop2983" />
      <stop
         style="stop-color:#001400;stop-opacity:0;"
         offset="1"
         id="stop2985" />
    </linearGradient>
    <filter
       inkscape:collect="always"
       id="filter3537"
       x="-0.18232919"
       width="1.3646584"
       y="-0.10289138"
       height="1.2057828">
      <feGaussianBlur
         inkscape:collect="always"
         stdDeviation="0.45819706"
         id="feGaussianBlur3539" />
    </filter>
    <filter
       inkscape:collect="always"
       id="filter3541"
       x="-0.10382974"
       width="1.2076595"
       y="-0.18512974"
       height="1.3702595">
      <feGaussianBlur
         inkscape:collect="always"
         stdDeviation="0.45819702"
         id="feGaussianBlur3543" />
    </filter>
    <filter
       inkscape:collect="always"
       id="filter3529"
       x="-0.18232919"
       width="1.3646584"
       y="-0.10289138"
       height="1.2057828">
      <feGaussianBlur
         inkscape:collect="always"
         stdDeviation="0.45819706"
         id="feGaussianBlur3531" />
    </filter>
    <filter
       inkscape:collect="always"
       id="filter3533"
       x="-0.10382974"
       width="1.2076595"
       y="-0.18512974"
       height="1.3702595">
      <feGaussianBlur
         inkscape:collect="always"
         stdDeviation="0.45819702"
         id="feGaussianBlur3535" />
    </filter>
    <filter
       inkscape:collect="always"
       id="filter3525"
       x="-0.18232919"
       width="1.3646584"
       y="-0.10289138"
       height="1.2057828">
      <feGaussianBlur
         inkscape:collect="always"
         stdDeviation="0.45819706"
         id="feGaussianBlur3527" />
    </filter>
    <linearGradient
       inkscape:collect="always"
       id="linearGradient3415">
      <stop
         style="stop-color:#f0ff80;stop-opacity:1;"
         offset="0"
         id="stop3417" />
      <stop
         style="stop-color:#f0ff80;stop-opacity:0;"
         offset="1"
         id="stop3419" />
    </linearGradient>
    <filter
       inkscape:collect="always"
       id="filter3521">
      <feBlend
         inkscape:collect="always"
         mode="lighten"
         in2="BackgroundImage"
         id="feBlend3523" />
    </filter>
    <linearGradient
       inkscape:collect="always"
       id="linearGradient2998">
      <stop
         style="stop-color:#ffffff;stop-opacity:1;"
         offset="0"
         id="stop3000" />
      <stop
         style="stop-color:#ffffff;stop-opacity:0;"
         offset="1"
         id="stop3002" />
    </linearGradient>
    <filter
       inkscape:collect="always"
       id="filter3505">
      <feGaussianBlur
         inkscape:collect="always"
         stdDeviation="0.4605"
         id="feGaussianBlur3507" />
    </filter>
    <linearGradient
       id="linearGradient7141">
      <stop
         offset="0"
         style="stop-color:#222222;stop-opacity:1;"
         id="stop7143" />
      <stop
         offset="0.23586744"
         style="stop-color:#0c0c0c;stop-opacity:1;"
         id="stop7149" />
      <stop
         offset="1"
         style="stop-color:#000000;stop-opacity:1"
         id="stop7145" />
    </linearGradient>
    <linearGradient
       id="linearGradient3215">
      <stop
         offset="0"
         style="stop-color:#ffffff;stop-opacity:1;"
         id="stop3217" />
      <stop
         offset="0.5"
         style="stop-color:#ffffff;stop-opacity:0.28158844;"
         id="stop3221" />
      <stop
         offset="1"
         style="stop-color:#ffffff;stop-opacity:0;"
         id="stop3219" />
    </linearGradient>
    <linearGradient
       id="linearGradient4770"
       gradientUnits="userSpaceOnUse"
       x1="-84.002403"
       y1="-383.9971"
       x2="-12.0029"
       y2="-383.9971"
       gradientTransform="matrix(0,1,-1,0,-39.9985,140.0029)">
      <stop
         offset="0"
         style="stop-color:#e5ff00;stop-opacity:1"
         id="stop4772" />
      <stop
         offset="1"
         style="stop-color:#bff500;stop-opacity:0;"
         id="stop4774" />
    </linearGradient>
    <radialGradient
       inkscape:collect="always"
       xlink:href="#linearGradient3215"
       id="radialGradient2580"
       gradientUnits="userSpaceOnUse"
       gradientTransform="matrix(-1.1424501,0,0,0.4779227,263.86867,-730.16863)"
       cx="215"
       cy="1608.8442"
       fx="214.5"
       fy="1575.4911"
       r="91.609375" />
    <radialGradient
       inkscape:collect="always"
       xlink:href="#linearGradient3215"
       id="radialGradient2583"
       gradientUnits="userSpaceOnUse"
       gradientTransform="matrix(0.1988978,0,0,-0.3631186,-408.14276,61.085737)"
       cx="2132.25"
       cy="136.14069"
       fx="2132.25"
       fy="136.14069"
       r="91.609398" />
    <radialGradient
       inkscape:collect="always"
       xlink:href="#linearGradient3215"
       id="radialGradient2586"
       gradientUnits="userSpaceOnUse"
       gradientTransform="matrix(-0.1988978,0,0,-0.3631186,424.20526,61.085737)"
       cx="2132.25"
       cy="136.14069"
       fx="2132.25"
       fy="136.14069"
       r="91.609398" />
    <radialGradient
       inkscape:collect="always"
       xlink:href="#linearGradient3215"
       id="radialGradient2602"
       gradientUnits="userSpaceOnUse"
       gradientTransform="matrix(0.1988978,0,0,-0.3631186,-408.10706,61.083755)"
       cx="2132.25"
       cy="136.14069"
       fx="2132.25"
       fy="136.14069"
       r="91.609398" />
    <radialGradient
       inkscape:collect="always"
       xlink:href="#linearGradient3215"
       id="radialGradient2605"
       gradientUnits="userSpaceOnUse"
       gradientTransform="matrix(-1.1424501,0,0,0.4778351,263.90437,-805.16581)"
       cx="215"
       cy="1608.8442"
       fx="214.5"
       fy="1575.4911"
       r="91.609375" />
    <radialGradient
       inkscape:collect="always"
       xlink:href="#linearGradient3215"
       id="radialGradient2608"
       gradientUnits="userSpaceOnUse"
       gradientTransform="matrix(-0.1988978,0,0,-0.3631186,230.77412,61.123712)"
       cx="2132.25"
       cy="136.14069"
       fx="2132.25"
       fy="136.14069"
       r="91.609398" />
    <radialGradient
       inkscape:collect="always"
       xlink:href="#linearGradient4770"
       id="radialGradient2611"
       gradientUnits="userSpaceOnUse"
       cx="343.99899"
       cy="92"
       fx="343.99899"
       fy="92"
       r="36"
       gradientTransform="matrix(1.1424501,0,0,1.138587,-1.072649,-1.0443284)" />
    <radialGradient
       inkscape:collect="always"
       xlink:href="#linearGradient3215"
       id="radialGradient2614"
       gradientUnits="userSpaceOnUse"
       gradientTransform="matrix(0.1921206,5.129507e-2,-4.8096531e-2,0.1788589,-387.11461,-204.54567)"
       cx="2132.25"
       cy="136.14069"
       fx="2132.25"
       fy="136.14069"
       r="91.609398" />
    <linearGradient
       inkscape:collect="always"
       xlink:href="#linearGradient7141"
       id="linearGradient2617"
       gradientUnits="userSpaceOnUse"
       gradientTransform="matrix(-1.1424501,0,0,1.1383783,-15.872953,-86.806043)"
       x1="50.10762"
       y1="89.277901"
       x2="50.10762"
       y2="9.2778997" />
    <radialGradient
       inkscape:collect="always"
       xlink:href="#linearGradient3215"
       id="radialGradient2621"
       gradientUnits="userSpaceOnUse"
       gradientTransform="matrix(-0.1988978,0,0,-0.3631186,424.24096,61.083755)"
       cx="2132.25"
       cy="136.14069"
       fx="2132.25"
       fy="136.14069"
       r="91.609398" />
    <radialGradient
       inkscape:collect="always"
       xlink:href="#linearGradient3215"
       id="radialGradient2624"
       gradientUnits="userSpaceOnUse"
       gradientTransform="matrix(1.1424501,0,0,0.4778351,-247.77047,-805.16581)"
       cx="215"
       cy="1608.8442"
       fx="214.5"
       fy="1575.4911"
       r="91.609375" />
    <radialGradient
       inkscape:collect="always"
       xlink:href="#linearGradient3215"
       id="radialGradient2627"
       gradientUnits="userSpaceOnUse"
       gradientTransform="matrix(0.1988978,0,0,-0.3631186,-214.64021,61.123712)"
       cx="2132.25"
       cy="136.14069"
       fx="2132.25"
       fy="136.14069"
       r="91.609398" />
    <radialGradient
       inkscape:collect="always"
       xlink:href="#linearGradient3215"
       id="radialGradient2630"
       gradientUnits="userSpaceOnUse"
       gradientTransform="matrix(1.1424501,0,0,-0.3631186,-2226.5298,61.110165)"
       cx="2040.6406"
       cy="136.14062"
       fx="2040.6406"
       fy="136.14062"
       r="91.609398" />
    <radialGradient
       inkscape:collect="always"
       xlink:href="#linearGradient3215"
       id="radialGradient2633"
       gradientUnits="userSpaceOnUse"
       gradientTransform="matrix(-0.1921206,5.129507e-2,4.8096531e-2,0.1788589,403.24852,-204.54567)"
       cx="2132.25"
       cy="136.14069"
       fx="2132.25"
       fy="136.14069"
       r="91.609398" />
    <linearGradient
       inkscape:collect="always"
       xlink:href="#linearGradient7141"
       id="linearGradient2636"
       gradientUnits="userSpaceOnUse"
       gradientTransform="matrix(1.1424501,0,0,1.1383783,32.006857,-86.806043)"
       x1="50.10762"
       y1="89.277901"
       x2="50.10762"
       y2="9.2778997" />
    <linearGradient
       inkscape:collect="always"
       xlink:href="#linearGradient3436"
       id="linearGradient2647"
       gradientUnits="userSpaceOnUse"
       gradientTransform="matrix(0.1532107,0,0,0.1532107,-1.8144584,-1.1353256)"
       x1="83.324677"
       y1="24.0625"
       x2="83.324677"
       y2="69.837845" />
    <linearGradient
       inkscape:collect="always"
       xlink:href="#linearGradient3436"
       id="linearGradient2650"
       gradientUnits="userSpaceOnUse"
       x1="87.533279"
       y1="74.838577"
       x2="77.137749"
       y2="46.277084"
       gradientTransform="matrix(0.1532107,0,0,0.1532107,-1.8144584,-1.7481684)" />
    <linearGradient
       inkscape:collect="always"
       xlink:href="#linearGradient2971"
       id="linearGradient2654"
       gradientUnits="userSpaceOnUse"
       gradientTransform="matrix(0.1532107,0,0,0.1532107,-1.8144584,-1.1353256)"
       x1="83.324677"
       y1="24.0625"
       x2="83.324677"
       y2="89.99453" />
    <radialGradient
       inkscape:collect="always"
       xlink:href="#linearGradient2948"
       id="radialGradient2657"
       gradientUnits="userSpaceOnUse"
       gradientTransform="matrix(0.2009703,0,0,0.1507277,-4.4046343,-1.5468917)"
       cx="54.537579"
       cy="77.542084"
       fx="54.537579"
       fy="99.883759"
       r="48.000004" />
    <radialGradient
       inkscape:collect="always"
       xlink:href="#linearGradient2981"
       id="radialGradient2660"
       gradientUnits="userSpaceOnUse"
       gradientTransform="matrix(8.6512245e-2,1.3072447e-8,-2.1244211e-8,0.1405922,1.9275893,-1.726119)"
       cx="52.791927"
       cy="95.459297"
       fx="53.15992"
       fy="87.08094"
       r="52.000004" />
    <linearGradient
       inkscape:collect="always"
       xlink:href="#linearGradient7141"
       id="linearGradient2669"
       gradientUnits="userSpaceOnUse"
       gradientTransform="matrix(0.1532107,0,0,0.1532107,-1.8144547,-1.1353256)"
       x1="89.090881"
       y1="103.89701"
       x2="89.090881"
       y2="30.849478" />
    <radialGradient
       inkscape:collect="always"
       xlink:href="#linearGradient3215"
       id="radialGradient2673"
       gradientUnits="userSpaceOnUse"
       gradientTransform="matrix(1.1424501,0,0,0.4779227,-247.87757,-730.16866)"
       cx="215"
       cy="1608.8442"
       fx="214.5"
       fy="1575.4911"
       r="91.609375" />
    <radialGradient
       inkscape:collect="always"
       xlink:href="#linearGradient3215"
       id="radialGradient2676"
       gradientUnits="userSpaceOnUse"
       gradientTransform="matrix(-0.1921206,5.1304474e-2,4.8096531e-2,0.1788917,403.14142,-129.43844)"
       cx="2132.25"
       cy="136.14069"
       fx="2132.25"
       fy="136.14069"
       r="91.609398" />
    <radialGradient
       inkscape:collect="always"
       xlink:href="#linearGradient3215"
       id="radialGradient2679"
       gradientUnits="userSpaceOnUse"
       gradientTransform="matrix(1.1424501,0,0,0.3631852,-2226.6368,-45.133244)"
       cx="2040.6406"
       cy="136.14062"
       fx="2040.6406"
       fy="136.14062"
       r="91.609398" />
    <linearGradient
       inkscape:collect="always"
       xlink:href="#linearGradient7141"
       id="linearGradient2682"
       gradientUnits="userSpaceOnUse"
       gradientTransform="matrix(1.1424501,0,0,1.138587,31.899754,-11.679736)"
       x1="50.10762"
       y1="89.277901"
       x2="50.10762"
       y2="9.2778997" />
    <radialGradient
       inkscape:collect="always"
       xlink:href="#linearGradient3215"
       id="radialGradient2685"
       gradientUnits="userSpaceOnUse"
       gradientTransform="matrix(-1.1424501,0,0,0.4779227,457.26405,-730.16866)"
       cx="215"
       cy="1608.8442"
       fx="214.5"
       fy="1575.4911"
       r="91.609375" />
    <radialGradient
       inkscape:collect="always"
       xlink:href="#linearGradient3215"
       id="radialGradient2688"
       gradientUnits="userSpaceOnUse"
       gradientTransform="matrix(-1.1424501,0,0,0.4779227,263.90437,-730.17066)"
       cx="215"
       cy="1608.8442"
       fx="214.5"
       fy="1575.4911"
       r="91.609375" />
    <radialGradient
       inkscape:collect="always"
       xlink:href="#linearGradient3215"
       id="radialGradient2691"
       gradientUnits="userSpaceOnUse"
       gradientTransform="matrix(0.1921206,5.1304474e-2,-4.8096531e-2,0.1788917,-387.11462,-129.44044)"
       cx="2132.25"
       cy="136.14069"
       fx="2132.25"
       fy="136.14069"
       r="91.609398" />
    <radialGradient
       inkscape:collect="always"
       xlink:href="#linearGradient3215"
       id="radialGradient2694"
       gradientUnits="userSpaceOnUse"
       gradientTransform="matrix(-1.1424501,0,0,0.3631852,2242.6636,-45.135244)"
       cx="2040.6406"
       cy="136.14062"
       fx="2040.6406"
       fy="136.14062"
       r="91.609398" />
    <linearGradient
       inkscape:collect="always"
       xlink:href="#linearGradient7141"
       id="linearGradient2697"
       gradientUnits="userSpaceOnUse"
       gradientTransform="matrix(-1.1424501,0,0,1.138587,-15.872954,-11.681736)"
       x1="50.10762"
       y1="89.277901"
       x2="50.10762"
       y2="9.2778997" />
    <radialGradient
       inkscape:collect="always"
       xlink:href="#linearGradient3215"
       id="radialGradient2700"
       gradientUnits="userSpaceOnUse"
       gradientTransform="matrix(1.1424501,0,0,0.4779227,-441.23725,-730.17066)"
       cx="215"
       cy="1608.8442"
       fx="214.5"
       fy="1575.4911"
       r="91.609375" />
    <radialGradient
       inkscape:collect="always"
       xlink:href="#linearGradient3215"
       id="radialGradient2703"
       gradientUnits="userSpaceOnUse"
       gradientTransform="matrix(1.1424501,0,0,0.4779227,-247.84187,-730.17066)"
       cx="215"
       cy="1608.8442"
       fx="214.5"
       fy="1575.4911"
       r="91.609375" />
    <radialGradient
       inkscape:collect="always"
       xlink:href="#linearGradient3215"
       id="radialGradient2706"
       gradientUnits="userSpaceOnUse"
       gradientTransform="matrix(-0.1921206,5.1304474e-2,4.8096531e-2,0.1788917,403.17712,-129.44044)"
       cx="2132.25"
       cy="136.14069"
       fx="2132.25"
       fy="136.14069"
       r="91.609398" />
    <radialGradient
       inkscape:collect="always"
       xlink:href="#linearGradient3215"
       id="radialGradient2709"
       gradientUnits="userSpaceOnUse"
       gradientTransform="matrix(1.1424501,0,0,0.3631852,-2226.6011,-45.135244)"
       cx="2040.6406"
       cy="136.14062"
       fx="2040.6406"
       fy="136.14062"
       r="91.609398" />
    <linearGradient
       inkscape:collect="always"
       xlink:href="#linearGradient7141"
       id="linearGradient2712"
       gradientUnits="userSpaceOnUse"
       gradientTransform="matrix(1.1424501,0,0,1.138587,31.935454,-11.681736)"
       x1="50.10762"
       y1="89.277901"
       x2="50.10762"
       y2="9.2778997" />
    <radialGradient
       inkscape:collect="always"
       xlink:href="#linearGradient3215"
       id="radialGradient2715"
       gradientUnits="userSpaceOnUse"
       gradientTransform="matrix(-1.1424501,0,0,0.4779227,457.29975,-730.17066)"
       cx="215"
       cy="1608.8442"
       fx="214.5"
       fy="1575.4911"
       r="91.609375" />
  </defs>
  <sodipodi:namedview
     id="base"
     pagecolor="#ffffff"
     bordercolor="#666666"
     borderopacity="1.0"
     inkscape:pageopacity="0.0"
     inkscape:pageshadow="2"
     inkscape:zoom="16"
     inkscape:cx="18.646316"
     inkscape:cy="3.2588725"
     inkscape:document-units="px"
     inkscape:current-layer="layer1"
     showgrid="false"
     inkscape:window-width="1390"
     inkscape:window-height="934"
     inkscape:window-x="0"
     inkscape:window-y="34" />
  <metadata
     id="metadata2634">
    <rdf:RDF>
      <cc:Work
         rdf:about="">
        <dc:format>image/svg+xml</dc:format>
        <dc:type
           rdf:resource="http://purl.org/dc/dcmitype/StillImage" />
      </cc:Work>
    </rdf:RDF>
  </metadata>
  <g
     inkscape:label="Ebene 1"
     inkscape:groupmode="layer"
     id="layer1">
    <path
       style="opacity:0.47397257;fill:url(#radialGradient2715);fill-opacity:1;stroke:none;stroke-width:1;stroke-linecap:round;stroke-linejoin:round;stroke-miterlimit:4;stroke-dasharray:none;stroke-dashoffset:1.08779998;stroke-opacity:1"
       d="M 7.5314289,0.020547 C 3.3836496,0.020547 0.0698017,3.3232463 0.0698017,7.4568864 L 0.0698017,7.990656 L 0.10550327,7.990656 C 0.41799764,4.1520238 3.5936205,1.159134 7.5314289,1.159134 L 8.0669524,1.159134 L 8.0669524,0.020547 L 7.5314289,0.020547 z"
       id="path3207" />
    <path
       style="fill:url(#linearGradient2712);fill-opacity:1;stroke:none;stroke-width:1;stroke-linecap:round;stroke-linejoin:round;stroke-miterlimit:4;stroke-dasharray:none;stroke-dashoffset:1.08779998;stroke-opacity:1"
       d="M 7.5671305,0.020547 C 3.0907597,0.020547 0.0698017,3.157468 0.0698017,7.4925242 L 0.0698017,7.990656 L 8.0669524,7.990656 L 8.0669524,0.020547 L 7.5671305,0.020547 z"
       id="path3209"
       sodipodi:nodetypes="cccccc" />
    <path
       style="fill:url(#radialGradient2709);fill-opacity:1;stroke:none;stroke-width:1;stroke-linecap:round;stroke-linejoin:round;stroke-miterlimit:4;stroke-dasharray:none;stroke-dashoffset:1.08779998;stroke-opacity:1"
       d="M 7.5314289,0.020547 C 3.3836496,0.020547 0.0698017,3.3232463 0.0698017,7.4568864 L 0.0698017,7.990656 L 0.10550327,7.990656 C 0.41799764,4.1520238 3.5936205,1.159134 7.5314289,1.159134 L 8.0669524,1.159134 L 8.0669524,0.020547 L 7.5314289,0.020547 z"
       id="path3211" />
    <path
       sodipodi:nodetypes="cccccccc"
       style="opacity:0.93150689;fill:url(#radialGradient2706);fill-opacity:1;stroke:none;stroke-width:1;stroke-linecap:round;stroke-linejoin:round;stroke-miterlimit:4;stroke-dasharray:none;stroke-dashoffset:1.08779998;stroke-opacity:1"
       d="M 7.5314289,0.020547 C 3.1310996,0.020547 0.0698017,3.1658936 0.0698017,7.4568864 L 0.0698017,7.990656 L 1.2122518,7.990656 C 1.4202006,4.1516822 3.5932206,1.159134 7.5314289,1.159134 L 8.0669524,1.159134 L 8.0669524,0.020547 L 7.5314289,0.020547 z"
       id="path3213" />
    <path
       sodipodi:nodetypes="cccccccc"
       style="opacity:0.47397257;fill:url(#radialGradient2703);fill-opacity:1;stroke:none;stroke-width:1;stroke-linecap:round;stroke-linejoin:round;stroke-miterlimit:4;stroke-dasharray:none;stroke-dashoffset:1.08779998;stroke-opacity:1"
       d="M 7.5314289,0.020547 C 3.1310996,0.020547 0.0698017,3.1658936 0.0698017,7.4568864 L 0.0698017,7.990656 L 1.2122518,7.990656 C 1.4202006,4.1516822 3.5932206,1.159134 7.5314289,1.159134 L 8.0669524,1.159134 L 8.0669524,0.020547 L 7.5314289,0.020547 z"
       id="path3215" />
    <path
       style="fill:url(#linearGradient2636);fill-opacity:1;stroke:none;stroke-width:1;stroke-linecap:round;stroke-linejoin:round;stroke-miterlimit:4;stroke-dasharray:none;stroke-dashoffset:1.08779998;stroke-opacity:1"
       d="M 0.14120423,7.9957107 L 0.14120423,8.4937512 C 0.14120423,12.626747 3.4906966,15.964359 7.638533,15.964359 L 8.1383549,15.964359 L 8.1383549,7.9957107 L 0.14120423,7.9957107 z"
       id="path3219" />
    <path
       style="opacity:0.93150689;fill:url(#radialGradient2633);fill-opacity:1;stroke:none;stroke-width:1;stroke-linecap:round;stroke-linejoin:round;stroke-miterlimit:4;stroke-dasharray:none;stroke-dashoffset:1.08779998;stroke-opacity:1"
       d="M 0.14120423,7.9932063 L 0.14120423,8.4912468 C 0.14120423,9.9424514 0.56982866,11.296894 1.2836543,12.439939 L 1.2836543,7.9932063 L 0.14120423,7.9932063 z"
       id="path3221" />
    <path
       style="opacity:0.7;fill:url(#radialGradient2630);fill-opacity:1;stroke:none;stroke-width:1;stroke-linecap:round;stroke-linejoin:round;stroke-miterlimit:4;stroke-dasharray:none;stroke-dashoffset:1.08779998;stroke-opacity:1"
       d="M 0.14120423,7.9932063 L 0.14120423,8.526878 C 0.14120423,12.659874 3.4550521,15.961854 7.6028314,15.961854 L 8.1383549,15.961854 L 8.1383549,14.823477 L 7.6028314,14.823477 C 3.665023,14.823477 0.48940017,11.831021 0.1769058,7.9932063 L 0.14120423,7.9932063 z"
       id="path3223" />
    <path
       style="opacity:0.47073173;fill:url(#radialGradient2627);fill-opacity:1;stroke:none;stroke-width:1;stroke-linecap:round;stroke-linejoin:round;stroke-miterlimit:4;stroke-dasharray:none;stroke-dashoffset:1.08779998;stroke-opacity:1"
       d="M 0.14120423,7.9932063 L 0.14120423,8.526878 C 0.14120423,12.659874 3.4550521,15.961854 7.6028314,15.961854 L 8.1383549,15.961854 L 8.1383549,14.823477 L 7.6028314,14.823477 C 3.655495,14.823477 0.47620487,11.844568 0.1769058,7.9932063 L 0.14120423,7.9932063 z"
       id="path3225" />
    <path
       style="opacity:0.47397257;fill:url(#radialGradient2624);fill-opacity:1;stroke:none;stroke-width:1;stroke-linecap:round;stroke-linejoin:round;stroke-miterlimit:4;stroke-dasharray:none;stroke-dashoffset:1.08779998;stroke-opacity:1"
       d="M 0.14120423,7.9932063 L 0.14120423,8.4912468 C 0.14120423,9.9424514 0.56982866,11.296894 1.2836543,12.439939 L 1.2836543,7.9932063 L 0.14120423,7.9932063 z"
       id="path3227" />
    <path
       style="opacity:0.47073173;fill:url(#radialGradient2621);fill-opacity:1;stroke:none;stroke-width:1;stroke-linecap:round;stroke-linejoin:round;stroke-miterlimit:4;stroke-dasharray:none;stroke-dashoffset:1.08779998;stroke-opacity:1"
       d="M 0.14120423,7.9932063 L 0.14120423,8.526878 C 0.14120423,12.659874 3.4549379,15.961854 7.6028314,15.961854 L 8.1383549,15.961854 L 8.1383549,14.823477 L 7.6028314,14.823477 C 3.6649088,14.823477 0.48937732,11.831134 0.1769058,7.9932063 L 0.14120423,7.9932063 z"
       id="path3229" />
    <path
       id="path3233"
       d="M 15.992699,7.9957107 L 15.992699,8.4937512 C 15.992699,12.626747 12.643207,15.964359 8.4953706,15.964359 L 7.9955487,15.964359 L 7.9955487,7.9957107 L 15.992699,7.9957107 z"
       style="fill:url(#linearGradient2617);fill-opacity:1;stroke:none;stroke-width:1;stroke-linecap:round;stroke-linejoin:round;stroke-miterlimit:4;stroke-dasharray:none;stroke-dashoffset:1.08779998;stroke-opacity:1" />
    <path
       id="path3235"
       d="M 15.992699,7.9932063 L 15.992699,8.4912468 C 15.992699,9.9424514 15.564075,11.296894 14.850249,12.439939 L 14.850249,7.9932063 L 15.992699,7.9932063 z"
       style="opacity:0.93150689;fill:url(#radialGradient2614);fill-opacity:1;stroke:none;stroke-width:1;stroke-linecap:round;stroke-linejoin:round;stroke-miterlimit:4;stroke-dasharray:none;stroke-dashoffset:1.08779998;stroke-opacity:1" />
    <path
       id="path3237"
       d="M 15.992699,7.9932063 L 15.992699,8.526878 C 15.992699,12.659874 12.678851,15.961854 8.5310722,15.961854 L 7.9955487,15.961854 L 7.9955487,14.823477 L 8.5310722,14.823477 C 12.468881,14.823477 15.644503,11.831021 15.956998,7.9932063 L 15.992699,7.9932063 z"
       style="opacity:0.7;fill:url(#radialGradient2611);fill-opacity:1;stroke:none;stroke-width:1;stroke-linecap:round;stroke-linejoin:round;stroke-miterlimit:4;stroke-dasharray:none;stroke-dashoffset:1.08779998;stroke-opacity:1" />
    <path
       id="path3239"
       d="M 15.992699,7.9932063 L 15.992699,8.526878 C 15.992699,12.659874 12.678851,15.961854 8.5310722,15.961854 L 7.9955487,15.961854 L 7.9955487,14.823477 L 8.5310722,14.823477 C 12.478409,14.823477 15.657699,11.844568 15.956998,7.9932063 L 15.992699,7.9932063 z"
       style="opacity:0.47073173;fill:url(#radialGradient2608);fill-opacity:1;stroke:none;stroke-width:1;stroke-linecap:round;stroke-linejoin:round;stroke-miterlimit:4;stroke-dasharray:none;stroke-dashoffset:1.08779998;stroke-opacity:1" />
    <path
       id="path3241"
       d="M 15.992699,7.9932063 L 15.992699,8.4912468 C 15.992699,9.9424514 15.564075,11.296894 14.850249,12.439939 L 14.850249,7.9932063 L 15.992699,7.9932063 z"
       style="opacity:0.47397257;fill:url(#radialGradient2605);fill-opacity:1;stroke:none;stroke-width:1;stroke-linecap:round;stroke-linejoin:round;stroke-miterlimit:4;stroke-dasharray:none;stroke-dashoffset:1.08779998;stroke-opacity:1" />
    <path
       id="path3243"
       d="M 15.992699,7.9932063 L 15.992699,8.526878 C 15.992699,12.659874 12.678966,15.961854 8.5310722,15.961854 L 7.9955487,15.961854 L 7.9955487,14.823477 L 8.5310722,14.823477 C 12.468995,14.823477 15.644526,11.831134 15.956998,7.9932063 L 15.992699,7.9932063 z"
       style="opacity:0.47073173;fill:url(#radialGradient2602);fill-opacity:1;stroke:none;stroke-width:1;stroke-linecap:round;stroke-linejoin:round;stroke-miterlimit:4;stroke-dasharray:none;stroke-dashoffset:1.08779998;stroke-opacity:1" />
    <path
       id="path3249"
       d="M 8.5310711,0.020547 C 12.67885,0.020547 15.992698,3.3232463 15.992698,7.4568864 L 15.992698,7.990656 L 15.956997,7.990656 C 15.644502,4.1520238 12.46888,1.159134 8.5310711,1.159134 L 7.9955476,1.159134 L 7.9955476,0.020547 L 8.5310711,0.020547 z"
       style="opacity:0.47397257;fill:url(#radialGradient2700);fill-opacity:1;stroke:none;stroke-width:1;stroke-linecap:round;stroke-linejoin:round;stroke-miterlimit:4;stroke-dasharray:none;stroke-dashoffset:1.08779998;stroke-opacity:1" />
    <path
       id="path3251"
       d="M 8.4953695,0.020547 C 12.770029,0.020547 15.992698,2.9559381 15.992698,7.4925242 L 15.992698,7.990656 L 7.9955476,7.990656 L 7.9955476,0.020547 L 8.4953695,0.020547 z"
       style="fill:url(#linearGradient2697);fill-opacity:1;stroke:none;stroke-width:1;stroke-linecap:round;stroke-linejoin:round;stroke-miterlimit:4;stroke-dasharray:none;stroke-dashoffset:1.08779998;stroke-opacity:1"
       sodipodi:nodetypes="cccccc" />
    <path
       id="path3253"
       d="M 8.5310711,0.020547 C 12.67885,0.020547 15.992698,3.3232463 15.992698,7.4568864 L 15.992698,7.990656 L 15.956997,7.990656 C 15.644502,4.1520238 12.46888,1.159134 8.5310711,1.159134 L 7.9955476,1.159134 L 7.9955476,0.020547 L 8.5310711,0.020547 z"
       style="fill:url(#radialGradient2694);fill-opacity:1;stroke:none;stroke-width:1;stroke-linecap:round;stroke-linejoin:round;stroke-miterlimit:4;stroke-dasharray:none;stroke-dashoffset:1.08779998;stroke-opacity:1" />
    <path
       id="path3255"
       d="M 8.5310711,0.020547 C 12.9314,0.020547 15.992698,3.1658936 15.992698,7.4568864 L 15.992698,7.990656 L 14.850248,7.990656 C 14.642299,4.1516822 12.469279,1.159134 8.5310711,1.159134 L 7.9955476,1.159134 L 7.9955476,0.020547 L 8.5310711,0.020547 z"
       style="opacity:0.93150689;fill:url(#radialGradient2691);fill-opacity:1;stroke:none;stroke-width:1;stroke-linecap:round;stroke-linejoin:round;stroke-miterlimit:4;stroke-dasharray:none;stroke-dashoffset:1.08779998;stroke-opacity:1"
       sodipodi:nodetypes="cccccccc" />
    <path
       id="path3257"
       d="M 8.5310711,0.020547 C 12.9314,0.020547 15.992698,3.1658936 15.992698,7.4568864 L 15.992698,7.990656 L 14.850248,7.990656 C 14.642299,4.1516822 12.469279,1.159134 8.5310711,1.159134 L 7.9955476,1.159134 L 7.9955476,0.020547 L 8.5310711,0.020547 z"
       style="opacity:0.47397257;fill:url(#radialGradient2688);fill-opacity:1;stroke:none;stroke-width:1;stroke-linecap:round;stroke-linejoin:round;stroke-miterlimit:4;stroke-dasharray:none;stroke-dashoffset:1.08779998;stroke-opacity:1"
       sodipodi:nodetypes="cccccccc" />
    <path
       style="opacity:0.47397257;fill:url(#radialGradient2685);fill-opacity:1;stroke:none;stroke-width:1;stroke-linecap:round;stroke-linejoin:round;stroke-miterlimit:4;stroke-dasharray:none;stroke-dashoffset:1.08779998;stroke-opacity:1"
       d="M 7.4957289,0.022547 C 3.3479496,0.022547 0.0341017,3.3252463 0.0341017,7.4588864 L 0.0341017,7.992656 L 0.069803266,7.992656 C 0.38229764,4.1540238 3.5579205,1.161134 7.4957289,1.161134 L 8.0312524,1.161134 L 8.0312524,0.022547 L 7.4957289,0.022547 z"
       id="path3279" />
    <path
       style="fill:url(#linearGradient2682);fill-opacity:1;stroke:none;stroke-width:1;stroke-linecap:round;stroke-linejoin:round;stroke-miterlimit:4;stroke-dasharray:none;stroke-dashoffset:1.08779998;stroke-opacity:1"
       d="M 7.5314305,0.022547 C 3.0550597,0.022547 0.0341017,3.159468 0.0341017,7.4945242 L 0.0341017,7.992656 L 8.0312524,7.992656 L 8.0312524,0.022547 L 7.5314305,0.022547 z"
       id="path3281"
       sodipodi:nodetypes="cccccc" />
    <path
       style="fill:url(#radialGradient2679);fill-opacity:1;stroke:none;stroke-width:1;stroke-linecap:round;stroke-linejoin:round;stroke-miterlimit:4;stroke-dasharray:none;stroke-dashoffset:1.08779998;stroke-opacity:1"
       d="M 7.4957289,0.022547 C 3.3479496,0.022547 0.0341017,3.3252463 0.0341017,7.4588864 L 0.0341017,7.992656 L 0.069803266,7.992656 C 0.38229764,4.1540238 3.5579205,1.161134 7.4957289,1.161134 L 8.0312524,1.161134 L 8.0312524,0.022547 L 7.4957289,0.022547 z"
       id="path3283" />
    <path
       sodipodi:nodetypes="cccccccc"
       style="opacity:0.93150689;fill:url(#radialGradient2676);fill-opacity:1;stroke:none;stroke-width:1;stroke-linecap:round;stroke-linejoin:round;stroke-miterlimit:4;stroke-dasharray:none;stroke-dashoffset:1.08779998;stroke-opacity:1"
       d="M 7.4957289,0.022547 C 3.0953996,0.022547 0.0341017,3.1678936 0.0341017,7.4588864 L 0.0341017,7.992656 L 1.1765518,7.992656 C 1.3845006,4.1536822 3.5575206,1.161134 7.4957289,1.161134 L 8.0312524,1.161134 L 8.0312524,0.022547 L 7.4957289,0.022547 z"
       id="path3285" />
    <path
       sodipodi:nodetypes="cccccccc"
       style="opacity:0.47397257;fill:url(#radialGradient2673);fill-opacity:1;stroke:none;stroke-width:1;stroke-linecap:round;stroke-linejoin:round;stroke-miterlimit:4;stroke-dasharray:none;stroke-dashoffset:1.08779998;stroke-opacity:1"
       d="M 7.4957289,0.022547 C 3.0953996,0.022547 0.0341017,3.1678936 0.0341017,7.4588864 L 0.0341017,7.992656 L 1.1765518,7.992656 C 1.3845006,4.1536822 3.5575206,1.161134 7.4957289,1.161134 L 8.0312524,1.161134 L 8.0312524,0.022547 L 7.4957289,0.022547 z"
       id="path3287" />
    <path
       style="fill:url(#radialGradient2586);fill-opacity:1;stroke:none;stroke-width:1;stroke-linecap:round;stroke-linejoin:round;stroke-miterlimit:4;stroke-dasharray:none;stroke-dashoffset:1.08779998;stroke-opacity:1"
       d="M 0.10550267,7.9951893 L 0.10550267,8.528861 C 0.10550267,12.661857 3.4192363,15.963836 7.5671299,15.963836 L 8.1026534,15.963836 L 8.1026534,14.825459 L 7.5671299,14.825459 C 3.6292072,14.825459 0.45367576,11.833117 0.14120423,7.9951893 L 0.10550267,7.9951893 z"
       id="path3289" />
    <path
       id="path3291"
       d="M 15.956998,7.9951893 L 15.956998,8.528861 C 15.956998,12.661857 12.643264,15.963836 8.4953706,15.963836 L 7.9598471,15.963836 L 7.9598471,14.825459 L 8.4953706,14.825459 C 12.433293,14.825459 15.608825,11.833117 15.921296,7.9951893 L 15.956998,7.9951893 z"
       style="fill:url(#radialGradient2583);fill-opacity:1;stroke:none;stroke-width:1;stroke-linecap:round;stroke-linejoin:round;stroke-miterlimit:4;stroke-dasharray:none;stroke-dashoffset:1.08779998;stroke-opacity:1" />
    <path
       sodipodi:nodetypes="cccccccc"
       style="fill:url(#radialGradient2580);fill-opacity:1;stroke:none;stroke-width:1;stroke-linecap:round;stroke-linejoin:round;stroke-miterlimit:4;stroke-dasharray:none;stroke-dashoffset:1.08779998;stroke-opacity:1"
       d="M 8.4953706,0.02257487 C 12.8957,0.02257487 15.956998,3.1679215 15.956998,7.4589137 L 15.956998,7.9926844 L 14.814548,7.9926844 C 14.606599,4.1537101 12.433579,1.1611619 8.4953706,1.1611619 L 7.9598471,1.1611619 L 7.9598471,0.02257487 L 8.4953706,0.02257487 z"
       id="path3293" />
    <path
       style="fill:none;stroke:#004d00;stroke-width:8.10000038;stroke-linecap:round;stroke-linejoin:round;stroke-miterlimit:4;stroke-dasharray:none;stroke-opacity:1;filter:url(#filter3505)"
       id="path3503"
       d="M 54.393966,74.154282 C 46.245967,65.803997 28.630827,47.75 28.630827,47.75 L 15.999972,60.697999 L 54.393966,100.05285 L 111.99998,41 L 99.367397,28.05286 C 99.367397,28.05286 64.105395,64.200283 54.393966,74.154282 z"
       transform="matrix(0.1532107,0,0,0.1532107,-1.8144547,-1.7481684)" />
    <path
       d="M 6.5192829,9.6130611 C 5.2709223,8.333708 2.5720943,5.5676425 2.5720943,5.5676425 L 0.63691221,7.5514145 L 6.5192829,13.580999 L 15.345141,4.5334703 L 13.409694,2.5498299 C 13.409694,2.5498299 8.0071777,8.0880019 6.5192829,9.6130611 z"
       id="path2365"
       style="fill:none;stroke:url(#linearGradient2669);stroke-width:1.2256856;stroke-linecap:round;stroke-linejoin:round;stroke-miterlimit:4;stroke-dasharray:none;stroke-opacity:1" />
    <path
       d="M 54.393966,74.154282 C 46.245967,65.803997 28.630827,47.75 28.630827,47.75 L 15.999972,60.697999 L 54.393966,100.05285 L 111.99998,41 L 99.367397,28.05286 C 99.367397,28.05286 64.105395,64.200283 54.393966,74.154282 z"
       id="path3509"
       style="opacity:0.2857143;fill:none;stroke:url(#radialGradient3511);stroke-width:8;stroke-linecap:round;stroke-linejoin:round;stroke-miterlimit:4;stroke-dasharray:none;stroke-opacity:1;filter:url(#filter3521)"
       transform="matrix(0.1532107,0,0,0.1532107,-1.8144547,-1.7481684)" />
    <path
       style="opacity:0.40952382;fill:url(#radialGradient3457);fill-opacity:1;stroke:none;stroke-width:8;stroke-linecap:round;stroke-linejoin:round;stroke-miterlimit:4;stroke-dasharray:none;stroke-opacity:1;filter:url(#filter3525)"
       d="M 28.406226,44.03125 C 28.256338,44.028846 28.119644,44.047827 27.968726,44.0625 C 27.141534,44.144551 26.373396,44.489582 25.749976,45.03125 L 27.437476,54.71875 C 27.548391,54.605074 28.287843,53.870571 28.374976,53.78125 L 28.749976,54.15625 L 31.781226,45.8125 L 31.218726,45.25 C 30.477376,44.490406 29.455436,44.048081 28.406226,44.03125 z"
       id="path3455"
       transform="matrix(0.1532107,0,0,-0.1532107,2.1690235,20.88868)" />
    <path
       style="opacity:0.23809521;fill:url(#radialGradient3292);fill-opacity:1;stroke:none;stroke-width:8;stroke-linecap:round;stroke-linejoin:round;stroke-miterlimit:4;stroke-dasharray:none;stroke-opacity:1;filter:url(#filter3533)"
       d="M 99.40625,24.03125 C 99.256362,24.028846 99.119668,24.047827 98.96875,24.0625 C 98.141558,24.144551 97.37342,24.489582 96.75,25.03125 L 98.4375,34.71875 C 98.548415,34.605074 99.287867,33.870571 99.375,33.78125 L 99.75,34.15625 L 102.78125,25.8125 L 102.21875,25.25 C 101.4774,24.490406 100.45546,24.048081 99.40625,24.03125 z"
       transform="matrix(-5.2401154e-2,0.143971,0.143971,5.2401154e-2,1.8947472,-8.2141654)"
       id="path3290" />
    <path
       id="path3286"
       d="M 28.406226,44.03125 C 28.256338,44.028846 28.119644,44.047827 27.968726,44.0625 C 27.141534,44.144551 26.373396,44.489582 25.749976,45.03125 L 27.437476,54.71875 C 27.548391,54.605074 28.287843,53.870571 28.374976,53.78125 L 28.749976,54.15625 L 31.781226,45.8125 L 31.218726,45.25 C 30.477376,44.490406 29.455436,44.048081 28.406226,44.03125 z"
       style="opacity:0.77619048;fill:url(#radialGradient3288);fill-opacity:1;stroke:none;stroke-width:8;stroke-linecap:round;stroke-linejoin:round;stroke-miterlimit:4;stroke-dasharray:none;stroke-opacity:1;filter:url(#filter3529)"
       transform="matrix(0.1532107,0,0,0.1532107,-1.8144547,-1.7481684)" />
    <path
       id="path3254"
       transform="matrix(5.2401154e-2,0.143971,-0.143971,5.2401154e-2,14.201178,-11.278379)"
       d="M 99.40625,24.03125 C 99.256362,24.028846 99.119668,24.047827 98.96875,24.0625 C 98.141558,24.144551 97.37342,24.489582 96.75,25.03125 L 98.4375,34.71875 C 98.548415,34.605074 99.287867,33.870571 99.375,33.78125 L 99.75,34.15625 L 102.78125,25.8125 L 102.21875,25.25 C 101.4774,24.490406 100.45546,24.048081 99.40625,24.03125 z"
       style="opacity:0.37142861;fill:url(#radialGradient3256);fill-opacity:1;stroke:none;stroke-width:8;stroke-linecap:round;stroke-linejoin:round;stroke-miterlimit:4;stroke-dasharray:none;stroke-opacity:1;filter:url(#filter3541)" />
    <path
       style="opacity:0.87142855;fill:url(#radialGradient3004);fill-opacity:1;stroke:none;stroke-width:8;stroke-linecap:round;stroke-linejoin:round;stroke-miterlimit:4;stroke-dasharray:none;stroke-opacity:1;filter:url(#filter3537)"
       d="M 99.40625,24.03125 C 99.256362,24.028846 99.119668,24.047827 98.96875,24.0625 C 98.141558,24.144551 97.37342,24.489582 96.75,25.03125 L 98.4375,34.71875 C 98.548415,34.605074 99.287867,33.870571 99.375,33.78125 L 99.75,34.15625 L 102.78125,25.8125 L 102.21875,25.25 C 101.4774,24.490406 100.45546,24.048081 99.40625,24.03125 z"
       transform="matrix(0.1532107,0,0,0.1532107,-1.8144584,-1.7481684)"
       id="path2989" />
    <path
       style="opacity:0.2857143;fill:none;stroke:url(#radialGradient2660);stroke-width:1.2256856;stroke-linecap:round;stroke-linejoin:round;stroke-miterlimit:4;stroke-dasharray:none;stroke-opacity:1"
       id="path2979"
       d="M 6.5192829,9.6130611 C 5.2709223,8.333708 2.5720943,5.5676425 2.5720943,5.5676425 L 0.63691221,7.5514145 L 6.5192829,13.580999 L 15.345141,4.5334703 L 13.409694,2.5498299 C 13.409694,2.5498299 8.0071777,8.0880019 6.5192829,9.6130611 z" />
    <path
       style="fill:url(#radialGradient2657);fill-opacity:1"
       id="path24"
       d="M 6.5192829,9.6130611 C 5.2709223,8.333708 2.5720943,5.5676425 2.5720943,5.5676425 L 0.63691221,7.5514145 L 6.5192829,13.580999 L 15.345141,4.5334703 L 13.409694,2.5498299 C 13.409694,2.5498299 8.0071777,8.0880019 6.5192829,9.6130611 z" />
    <path
       style="fill:url(#linearGradient2654);fill-opacity:1"
       d="M 13.410855,2.5513069 C 13.410854,2.5513069 8.0090561,8.0883034 6.5211613,9.6133626 C 5.2728006,8.3340096 2.5711979,5.5676425 2.5711979,5.5676425 L 0.63691282,7.549806 L 3.1601015,10.135237 C 3.1890447,10.135311 3.2173069,10.135237 3.2462826,10.135237 C 5.9320353,10.135237 8.4763276,9.8145452 10.758395,9.2399115 L 15.345141,4.5334703 L 13.410855,2.5513069 z"
       id="path2964" />
    <path
       d="M 54.393966,74.154282 C 46.245967,65.803997 28.630827,47.75 28.630827,47.75 L 15.999972,60.697999 L 54.393966,100.05285 L 111.99998,41 L 99.367397,28.05286 C 99.367397,28.05286 64.105395,64.200283 54.393966,74.154282 z"
       id="path3413"
       style="fill:none;fill-opacity:1;stroke:url(#linearGradient3421);stroke-opacity:1;filter:url(#filter3423)"
       transform="matrix(0.1532107,0,0,0.1532107,-1.8144547,-1.7481684)" />
    <path
       style="fill:url(#linearGradient2650);fill-opacity:1"
       d="M 13.410855,2.5513069 C 13.410855,2.5513069 13.349534,2.6173929 13.348613,2.6183365 L 15.215868,4.4999555 L 10.619547,9.1297913 C 8.3325409,9.6947763 5.8612434,10.08257 3.1696772,10.08257 C 3.1503182,10.08257 3.1313606,10.08257 3.1122232,10.08257 L 3.1601015,10.135237 C 3.1890447,10.135311 3.2173069,10.135237 3.2462825,10.135237 C 5.9320353,10.135237 8.4763276,9.8145452 10.758395,9.2399115 L 15.34514,4.5334703 L 13.410855,2.5513069 z"
       id="path3427"
       sodipodi:nodetypes="ccccsccsccc" />
    <path
       style="fill:url(#linearGradient2647);fill-opacity:1"
       d="M 13.410855,2.5513069 C 13.410854,2.5513069 8.0090561,8.0883034 6.5211612,9.6133626 C 5.2728006,8.3340096 2.5711979,5.5676425 2.5711979,5.5676425 L 0.6369128,7.549806 L 0.71351815,7.6264113 L 2.5711979,5.7208532 C 2.5711979,5.7208532 5.2728006,8.4872203 6.5211612,9.7665733 C 8.0090561,8.2415141 13.410854,2.7045176 13.410855,2.7045176 L 15.268535,4.6100757 L 15.34514,4.5334703 L 13.410855,2.5513069 z"
       id="path3444" />
  </g>
</svg>
