<?xml version="1.0" encoding="UTF-8" standalone="no"?>
<!-- Created with Inkscape (http://www.inkscape.org/) -->
<svg
   xmlns:dc="http://purl.org/dc/elements/1.1/"
   xmlns:cc="http://creativecommons.org/ns#"
   xmlns:rdf="http://www.w3.org/1999/02/22-rdf-syntax-ns#"
   xmlns:svg="http://www.w3.org/2000/svg"
   xmlns="http://www.w3.org/2000/svg"
   xmlns:xlink="http://www.w3.org/1999/xlink"
   xmlns:sodipodi="http://sodipodi.sourceforge.net/DTD/sodipodi-0.dtd"
   xmlns:inkscape="http://www.inkscape.org/namespaces/inkscape"
   width="16"
   height="16"
   id="svg2629"
   sodipodi:version="0.32"
   inkscape:version="0.46"
   version="1.0"
   sodipodi:docname="radiobutton-checked-hover16x16.svg"
   inkscape:output_extension="org.inkscape.output.svg.inkscape">
  <defs
     id="defs2631">
    <filter
       id="filter7317"
       inkscape:collect="always">
      <feGaussianBlur
         id="feGaussianBlur7319"
         stdDeviation="2.8805897"
         inkscape:collect="always" />
    </filter>
    <linearGradient
       inkscape:collect="always"
       xlink:href="#linearGradient5958"
       id="linearGradient2544"
       gradientUnits="userSpaceOnUse"
       gradientTransform="matrix(0,1,-1,0,-39.9985,140.0029)"
       x1="-86.120354"
       y1="-381.09921"
       x2="-56.357521"
       y2="-373.1243" />
    <filter
       id="filter4292"
       inkscape:collect="always">
      <feGaussianBlur
         id="feGaussianBlur4294"
         stdDeviation="2.1604423"
         inkscape:collect="always" />
    </filter>
    <linearGradient
       id="linearGradient7141">
      <stop
         offset="0"
         style="stop-color:#222222;stop-opacity:1;"
         id="stop7143" />
      <stop
         offset="0.23586744"
         style="stop-color:#0c0c0c;stop-opacity:1;"
         id="stop7149" />
      <stop
         offset="1"
         style="stop-color:#000000;stop-opacity:1"
         id="stop7145" />
    </linearGradient>
    <linearGradient
       id="linearGradient3215">
      <stop
         offset="0"
         style="stop-color:#ffffff;stop-opacity:1;"
         id="stop3217" />
      <stop
         offset="0.5"
         style="stop-color:#ffffff;stop-opacity:0.28158844;"
         id="stop3221" />
      <stop
         offset="1"
         style="stop-color:#ffffff;stop-opacity:0;"
         id="stop3219" />
    </linearGradient>
    <linearGradient
       id="linearGradient3711"
       gradientUnits="userSpaceOnUse"
       x1="-84.002403"
       y1="-383.9971"
       x2="-23.516129"
       y2="-383.9975"
       gradientTransform="matrix(0,1,-1,0,-39.9985,140.0029)">
      <stop
         offset="0"
         style="stop-color:white;stop-opacity:1;"
         id="stop3713" />
      <stop
         offset="1"
         style="stop-color:white;stop-opacity:0;"
         id="stop3715" />
    </linearGradient>
    <clipPath
       id="clipPath5163"
       clipPathUnits="userSpaceOnUse">
      <circle
         id="circle5165"
         ry="8.0010004"
         cy="92"
         cx="343.99899"
         rx="8.0010004"
         r="36"
         style="fill:url(#linearGradient5167);fill-opacity:1"
         sodipodi:cx="343.99899"
         sodipodi:cy="92"
         sodipodi:rx="36"
         sodipodi:ry="36" />
    </clipPath>
    <linearGradient
       id="linearGradient4296">
      <stop
         style="stop-color:#00ff00;stop-opacity:1"
         offset="0"
         id="stop4298" />
      <stop
         style="stop-color:#006500;stop-opacity:1"
         offset="1"
         id="stop4300" />
    </linearGradient>
    <linearGradient
       inkscape:collect="always"
       xlink:href="#linearGradient4296"
       id="linearGradient2548"
       gradientUnits="userSpaceOnUse"
       x1="328.12448"
       y1="120.81158"
       x2="336.98077"
       y2="87.759453" />
    <linearGradient
       id="linearGradient5958"
       gradientUnits="userSpaceOnUse"
       x1="-84.002403"
       y1="-383.9971"
       x2="-12.0029"
       y2="-383.9971"
       gradientTransform="matrix(0,1,-1,0,-39.9985,140.0029)">
      <stop
         offset="0"
         style="stop-color:#008c00;stop-opacity:1"
         id="stop5960" />
      <stop
         offset="1"
         style="stop-color:#00bf00;stop-opacity:1"
         id="stop5962" />
    </linearGradient>
    <radialGradient
       inkscape:collect="always"
       xlink:href="#linearGradient3215"
       id="radialGradient3219"
       gradientUnits="userSpaceOnUse"
       gradientTransform="matrix(-1,0,0,-0.3189204,1963.9688,54.589147)"
       cx="2040.6406"
       cy="136.14062"
       fx="2040.6406"
       fy="136.14062"
       r="91.609398" />
    <radialGradient
       inkscape:collect="always"
       xlink:href="#linearGradient3215"
       id="radialGradient2541"
       gradientUnits="userSpaceOnUse"
       gradientTransform="matrix(-1.1424501,0,0,0.4779227,263.80617,-730.13738)"
       cx="215"
       cy="1608.8442"
       fx="214.5"
       fy="1575.4911"
       r="91.609375" />
    <radialGradient
       inkscape:collect="always"
       xlink:href="#linearGradient3215"
       id="radialGradient2545"
       gradientUnits="userSpaceOnUse"
       gradientTransform="matrix(0.1988978,0,0,-0.3631186,-408.20526,61.116988)"
       cx="2132.25"
       cy="136.14069"
       fx="2132.25"
       fy="136.14069"
       r="91.609398" />
    <radialGradient
       inkscape:collect="always"
       xlink:href="#linearGradient3215"
       id="radialGradient2549"
       gradientUnits="userSpaceOnUse"
       gradientTransform="matrix(-0.1988978,0,0,-0.3631186,424.14276,61.116988)"
       cx="2132.25"
       cy="136.14069"
       fx="2132.25"
       fy="136.14069"
       r="91.609398" />
    <radialGradient
       inkscape:collect="always"
       xlink:href="#linearGradient3215"
       id="radialGradient2565"
       gradientUnits="userSpaceOnUse"
       gradientTransform="matrix(0.1988978,0,0,-0.3631186,-408.16956,61.115006)"
       cx="2132.25"
       cy="136.14069"
       fx="2132.25"
       fy="136.14069"
       r="91.609398" />
    <radialGradient
       inkscape:collect="always"
       xlink:href="#linearGradient3215"
       id="radialGradient2568"
       gradientUnits="userSpaceOnUse"
       gradientTransform="matrix(-1.1424501,0,0,0.4778351,263.84187,-805.13456)"
       cx="215"
       cy="1608.8442"
       fx="214.5"
       fy="1575.4911"
       r="91.609375" />
    <radialGradient
       inkscape:collect="always"
       xlink:href="#linearGradient3215"
       id="radialGradient2571"
       gradientUnits="userSpaceOnUse"
       gradientTransform="matrix(-0.1988978,0,0,-0.3631186,230.71162,61.154963)"
       cx="2132.25"
       cy="136.14069"
       fx="2132.25"
       fy="136.14069"
       r="91.609398" />
    <radialGradient
       inkscape:collect="always"
       xlink:href="#linearGradient3215"
       id="radialGradient2574"
       gradientUnits="userSpaceOnUse"
       gradientTransform="matrix(-1.1424501,0,0,-0.3631186,2242.6012,61.141416)"
       cx="2040.6406"
       cy="136.14062"
       fx="2040.6406"
       fy="136.14062"
       r="91.609398" />
    <radialGradient
       inkscape:collect="always"
       xlink:href="#linearGradient3215"
       id="radialGradient2577"
       gradientUnits="userSpaceOnUse"
       gradientTransform="matrix(0.1921206,5.129507e-2,-4.8096531e-2,0.1788589,-387.17712,-204.51442)"
       cx="2132.25"
       cy="136.14069"
       fx="2132.25"
       fy="136.14069"
       r="91.609398" />
    <linearGradient
       inkscape:collect="always"
       xlink:href="#linearGradient7141"
       id="linearGradient2580"
       gradientUnits="userSpaceOnUse"
       gradientTransform="matrix(-1.1424501,0,0,1.1383783,-15.935454,-86.774792)"
       x1="50.10762"
       y1="89.277901"
       x2="50.10762"
       y2="9.2778997" />
    <radialGradient
       inkscape:collect="always"
       xlink:href="#linearGradient3215"
       id="radialGradient2584"
       gradientUnits="userSpaceOnUse"
       gradientTransform="matrix(-0.1988978,0,0,-0.3631186,424.17846,61.115006)"
       cx="2132.25"
       cy="136.14069"
       fx="2132.25"
       fy="136.14069"
       r="91.609398" />
    <radialGradient
       inkscape:collect="always"
       xlink:href="#linearGradient3215"
       id="radialGradient2587"
       gradientUnits="userSpaceOnUse"
       gradientTransform="matrix(1.1424501,0,0,0.4778351,-247.83297,-805.13456)"
       cx="215"
       cy="1608.8442"
       fx="214.5"
       fy="1575.4911"
       r="91.609375" />
    <radialGradient
       inkscape:collect="always"
       xlink:href="#linearGradient3215"
       id="radialGradient2590"
       gradientUnits="userSpaceOnUse"
       gradientTransform="matrix(0.1988978,0,0,-0.3631186,-214.70271,61.154963)"
       cx="2132.25"
       cy="136.14069"
       fx="2132.25"
       fy="136.14069"
       r="91.609398" />
    <radialGradient
       inkscape:collect="always"
       xlink:href="#linearGradient3215"
       id="radialGradient2593"
       gradientUnits="userSpaceOnUse"
       gradientTransform="matrix(1.1424501,0,0,-0.3631186,-2226.5923,61.141416)"
       cx="2040.6406"
       cy="136.14062"
       fx="2040.6406"
       fy="136.14062"
       r="91.609398" />
    <radialGradient
       inkscape:collect="always"
       xlink:href="#linearGradient3215"
       id="radialGradient2596"
       gradientUnits="userSpaceOnUse"
       gradientTransform="matrix(-0.1921206,5.129507e-2,4.8096531e-2,0.1788589,403.18602,-204.51442)"
       cx="2132.25"
       cy="136.14069"
       fx="2132.25"
       fy="136.14069"
       r="91.609398" />
    <linearGradient
       inkscape:collect="always"
       xlink:href="#linearGradient7141"
       id="linearGradient2599"
       gradientUnits="userSpaceOnUse"
       gradientTransform="matrix(1.1424501,0,0,1.1383783,31.944356,-86.774792)"
       x1="50.10762"
       y1="89.277901"
       x2="50.10762"
       y2="9.2778997" />
    <linearGradient
       inkscape:collect="always"
       xlink:href="#linearGradient3711"
       id="linearGradient2610"
       gradientUnits="userSpaceOnUse"
       gradientTransform="matrix(0,7.7624969e-2,-7.7624969e-2,0,-2.2463738,11.073795)"
       x1="-80.00296"
       y1="-131.93112"
       x2="-45.096584"
       y2="-131.93112" />
    <radialGradient
       inkscape:collect="always"
       xlink:href="#linearGradient3215"
       id="radialGradient2627"
       gradientUnits="userSpaceOnUse"
       gradientTransform="matrix(1.1424501,0,0,0.4779227,-247.90437,-730.13936)"
       cx="215"
       cy="1608.8442"
       fx="214.5"
       fy="1575.4911"
       r="91.609375" />
    <radialGradient
       inkscape:collect="always"
       xlink:href="#linearGradient3215"
       id="radialGradient2630"
       gradientUnits="userSpaceOnUse"
       gradientTransform="matrix(-0.1921206,5.1304474e-2,4.8096531e-2,0.1788917,403.11462,-129.40914)"
       cx="2132.25"
       cy="136.14069"
       fx="2132.25"
       fy="136.14069"
       r="91.609398" />
    <radialGradient
       inkscape:collect="always"
       xlink:href="#linearGradient3215"
       id="radialGradient2633"
       gradientUnits="userSpaceOnUse"
       gradientTransform="matrix(1.1424501,0,0,0.3631852,-2226.6636,-45.103944)"
       cx="2040.6406"
       cy="136.14062"
       fx="2040.6406"
       fy="136.14062"
       r="91.609398" />
    <linearGradient
       inkscape:collect="always"
       xlink:href="#linearGradient7141"
       id="linearGradient2636"
       gradientUnits="userSpaceOnUse"
       gradientTransform="matrix(1.1424501,0,0,1.138587,31.872954,-11.650436)"
       x1="50.10762"
       y1="89.277901"
       x2="50.10762"
       y2="9.2778997" />
    <radialGradient
       inkscape:collect="always"
       xlink:href="#linearGradient3215"
       id="radialGradient2639"
       gradientUnits="userSpaceOnUse"
       gradientTransform="matrix(-1.1424501,0,0,0.4779227,457.23725,-730.13936)"
       cx="215"
       cy="1608.8442"
       fx="214.5"
       fy="1575.4911"
       r="91.609375" />
    <radialGradient
       inkscape:collect="always"
       xlink:href="#linearGradient3215"
       id="radialGradient2652"
       gradientUnits="userSpaceOnUse"
       gradientTransform="matrix(-1.1424501,0,0,0.4779227,263.84187,-730.13936)"
       cx="215"
       cy="1608.8442"
       fx="214.5"
       fy="1575.4911"
       r="91.609375" />
    <radialGradient
       inkscape:collect="always"
       xlink:href="#linearGradient3215"
       id="radialGradient2656"
       gradientUnits="userSpaceOnUse"
       gradientTransform="matrix(0.1921206,5.1304474e-2,-4.8096531e-2,0.1788917,-387.17712,-129.40914)"
       cx="2132.25"
       cy="136.14069"
       fx="2132.25"
       fy="136.14069"
       r="91.609398" />
    <radialGradient
       inkscape:collect="always"
       xlink:href="#linearGradient3215"
       id="radialGradient2659"
       gradientUnits="userSpaceOnUse"
       gradientTransform="matrix(-1.1424501,0,0,0.3631852,2242.6011,-45.103944)"
       cx="2040.6406"
       cy="136.14062"
       fx="2040.6406"
       fy="136.14062"
       r="91.609398" />
    <linearGradient
       inkscape:collect="always"
       xlink:href="#linearGradient7141"
       id="linearGradient2662"
       gradientUnits="userSpaceOnUse"
       gradientTransform="matrix(-1.1424501,0,0,1.138587,-15.935454,-11.650436)"
       x1="50.10762"
       y1="89.277901"
       x2="50.10762"
       y2="9.2778997" />
    <radialGradient
       inkscape:collect="always"
       xlink:href="#linearGradient3215"
       id="radialGradient2665"
       gradientUnits="userSpaceOnUse"
       gradientTransform="matrix(1.1424501,0,0,0.4779227,-441.29975,-730.13936)"
       cx="215"
       cy="1608.8442"
       fx="214.5"
       fy="1575.4911"
       r="91.609375" />
    <radialGradient
       inkscape:collect="always"
       xlink:href="#linearGradient3215"
       id="radialGradient2678"
       gradientUnits="userSpaceOnUse"
       gradientTransform="matrix(1.1424501,0,0,0.4779227,-247.94007,-730.13746)"
       cx="215"
       cy="1608.8442"
       fx="214.5"
       fy="1575.4911"
       r="91.609375" />
    <radialGradient
       inkscape:collect="always"
       xlink:href="#linearGradient3215"
       id="radialGradient2681"
       gradientUnits="userSpaceOnUse"
       gradientTransform="matrix(-0.1921206,5.1304474e-2,4.8096531e-2,0.1788917,403.07892,-129.40724)"
       cx="2132.25"
       cy="136.14069"
       fx="2132.25"
       fy="136.14069"
       r="91.609398" />
    <radialGradient
       inkscape:collect="always"
       xlink:href="#linearGradient3215"
       id="radialGradient2684"
       gradientUnits="userSpaceOnUse"
       gradientTransform="matrix(1.1424501,0,0,0.3631852,-2226.6993,-45.102044)"
       cx="2040.6406"
       cy="136.14062"
       fx="2040.6406"
       fy="136.14062"
       r="91.609398" />
    <linearGradient
       inkscape:collect="always"
       xlink:href="#linearGradient7141"
       id="linearGradient2687"
       gradientUnits="userSpaceOnUse"
       gradientTransform="matrix(1.1424501,0,0,1.138587,31.837254,-11.648536)"
       x1="50.10762"
       y1="89.277901"
       x2="50.10762"
       y2="9.2778997" />
    <radialGradient
       inkscape:collect="always"
       xlink:href="#linearGradient3215"
       id="radialGradient2690"
       gradientUnits="userSpaceOnUse"
       gradientTransform="matrix(-1.1424501,0,0,0.4779227,457.20155,-730.13746)"
       cx="215"
       cy="1608.8442"
       fx="214.5"
       fy="1575.4911"
       r="91.609375" />
  </defs>
  <sodipodi:namedview
     id="base"
     pagecolor="#ffffff"
     bordercolor="#666666"
     borderopacity="1.0"
     inkscape:pageopacity="0.0"
     inkscape:pageshadow="2"
     inkscape:zoom="16"
     inkscape:cx="-13.03125"
     inkscape:cy="3.650093"
     inkscape:document-units="px"
     inkscape:current-layer="layer1"
     showgrid="false"
     inkscape:window-width="1390"
     inkscape:window-height="934"
     inkscape:window-x="0"
     inkscape:window-y="34" />
  <metadata
     id="metadata2634">
    <rdf:RDF>
      <cc:Work
         rdf:about="">
        <dc:format>image/svg+xml</dc:format>
        <dc:type
           rdf:resource="http://purl.org/dc/dcmitype/StillImage" />
      </cc:Work>
    </rdf:RDF>
  </metadata>
  <g
     inkscape:label="Ebene 1"
     inkscape:groupmode="layer"
     id="layer1">
    <path
       style="opacity:0.47397257;fill:url(#radialGradient2639);fill-opacity:1;stroke:none;stroke-width:1;stroke-linecap:round;stroke-linejoin:round;stroke-miterlimit:4;stroke-dasharray:none;stroke-dashoffset:1.08779998;stroke-opacity:1"
       d="M 7.4689289,0.051847 C 3.3211496,0.051847 0.0073017,3.3545463 0.0073017,7.4881864 L 0.0073017,8.021956 L 0.043003266,8.021956 C 0.35549764,4.1833238 3.5311205,1.190434 7.4689289,1.190434 L 8.0044524,1.190434 L 8.0044524,0.051847 L 7.4689289,0.051847 z"
       id="path7123" />
    <path
       style="fill:url(#linearGradient2636);fill-opacity:1;stroke:none;stroke-width:1;stroke-linecap:round;stroke-linejoin:round;stroke-miterlimit:4;stroke-dasharray:none;stroke-dashoffset:1.08779998;stroke-opacity:1"
       d="M 7.5046305,0.051847 C 3.0282597,0.051847 0.0073017,3.188768 0.0073017,7.5238242 L 0.0073017,8.021956 L 8.0044524,8.021956 L 8.0044524,0.051847 L 7.5046305,0.051847 z"
       id="path7125"
       sodipodi:nodetypes="cccccc" />
    <path
       style="fill:url(#radialGradient2633);fill-opacity:1;stroke:none;stroke-width:1;stroke-linecap:round;stroke-linejoin:round;stroke-miterlimit:4;stroke-dasharray:none;stroke-dashoffset:1.08779998;stroke-opacity:1"
       d="M 7.4689289,0.051847 C 3.3211496,0.051847 0.0073017,3.3545463 0.0073017,7.4881864 L 0.0073017,8.021956 L 0.043003266,8.021956 C 0.35549764,4.1833238 3.5311205,1.190434 7.4689289,1.190434 L 8.0044524,1.190434 L 8.0044524,0.051847 L 7.4689289,0.051847 z"
       id="path7127" />
    <path
       sodipodi:nodetypes="cccccccc"
       style="opacity:0.93150689;fill:url(#radialGradient2630);fill-opacity:1;stroke:none;stroke-width:1;stroke-linecap:round;stroke-linejoin:round;stroke-miterlimit:4;stroke-dasharray:none;stroke-dashoffset:1.08779998;stroke-opacity:1"
       d="M 7.4689289,0.051847 C 3.0685996,0.051847 0.0073017,3.1971936 0.0073017,7.4881864 L 0.0073017,8.021956 L 1.1497518,8.021956 C 1.3577006,4.1829822 3.5307206,1.190434 7.4689289,1.190434 L 8.0044524,1.190434 L 8.0044524,0.051847 L 7.4689289,0.051847 z"
       id="path7129" />
    <path
       sodipodi:nodetypes="cccccccc"
       style="opacity:0.47397257;fill:url(#radialGradient2627);fill-opacity:1;stroke:none;stroke-width:1;stroke-linecap:round;stroke-linejoin:round;stroke-miterlimit:4;stroke-dasharray:none;stroke-dashoffset:1.08779998;stroke-opacity:1"
       d="M 7.4689289,0.051847 C 3.0685996,0.051847 0.0073017,3.1971936 0.0073017,7.4881864 L 0.0073017,8.021956 L 1.1497518,8.021956 C 1.3577006,4.1829822 3.5307206,1.190434 7.4689289,1.190434 L 8.0044524,1.190434 L 8.0044524,0.051847 L 7.4689289,0.051847 z"
       id="path7131" />
    <path
       style="fill:url(#linearGradient2599);fill-opacity:1;stroke:none;stroke-width:1;stroke-linecap:round;stroke-linejoin:round;stroke-miterlimit:4;stroke-dasharray:none;stroke-dashoffset:1.08779998;stroke-opacity:1"
       d="M 0.078703631,8.0269616 L 0.078703631,8.5250021 C 0.078703631,12.657998 3.428196,15.99561 7.5760324,15.99561 L 8.0758543,15.99561 L 8.0758543,8.0269616 L 0.078703631,8.0269616 z"
       id="path7172" />
    <path
       style="opacity:0.93150689;fill:url(#radialGradient2596);fill-opacity:1;stroke:none;stroke-width:1;stroke-linecap:round;stroke-linejoin:round;stroke-miterlimit:4;stroke-dasharray:none;stroke-dashoffset:1.08779998;stroke-opacity:1"
       d="M 0.078703631,8.0244572 L 0.078703631,8.5224977 C 0.078703631,9.9737023 0.50732806,11.328144 1.2211537,12.47119 L 1.2211537,8.0244572 L 0.078703631,8.0244572 z"
       id="path7174" />
    <path
       style="opacity:0.7;fill:url(#radialGradient2593);fill-opacity:1;stroke:none;stroke-width:1;stroke-linecap:round;stroke-linejoin:round;stroke-miterlimit:4;stroke-dasharray:none;stroke-dashoffset:1.08779998;stroke-opacity:1"
       d="M 0.078703631,8.0244572 L 0.078703631,8.5581289 C 0.078703631,12.691125 3.3925515,15.993105 7.5403308,15.993105 L 8.0758543,15.993105 L 8.0758543,14.854728 L 7.5403308,14.854728 C 3.6025224,14.854728 0.42689957,11.862272 0.1144052,8.0244572 L 0.078703631,8.0244572 z"
       id="path7371" />
    <path
       style="opacity:0.47073173;fill:url(#radialGradient2590);fill-opacity:1;stroke:none;stroke-width:1;stroke-linecap:round;stroke-linejoin:round;stroke-miterlimit:4;stroke-dasharray:none;stroke-dashoffset:1.08779998;stroke-opacity:1"
       d="M 0.078703631,8.0244572 L 0.078703631,8.5581289 C 0.078703631,12.691125 3.3925515,15.993105 7.5403308,15.993105 L 8.0758543,15.993105 L 8.0758543,14.854728 L 7.5403308,14.854728 C 3.5929944,14.854728 0.41370427,11.875818 0.1144052,8.0244572 L 0.078703631,8.0244572 z"
       id="path7373" />
    <path
       style="opacity:0.47397257;fill:url(#radialGradient2587);fill-opacity:1;stroke:none;stroke-width:1;stroke-linecap:round;stroke-linejoin:round;stroke-miterlimit:4;stroke-dasharray:none;stroke-dashoffset:1.08779998;stroke-opacity:1"
       d="M 0.078703631,8.0244572 L 0.078703631,8.5224977 C 0.078703631,9.9737023 0.50732806,11.328144 1.2211537,12.47119 L 1.2211537,8.0244572 L 0.078703631,8.0244572 z"
       id="path7178" />
    <path
       style="opacity:0.47073173;fill:url(#radialGradient2584);fill-opacity:1;stroke:none;stroke-width:1;stroke-linecap:round;stroke-linejoin:round;stroke-miterlimit:4;stroke-dasharray:none;stroke-dashoffset:1.08779998;stroke-opacity:1"
       d="M 0.078703631,8.0244572 L 0.078703631,8.5581289 C 0.078703631,12.691125 3.3924373,15.993105 7.5403308,15.993105 L 8.0758543,15.993105 L 8.0758543,14.854728 L 7.5403308,14.854728 C 3.6024082,14.854728 0.42687672,11.862385 0.1144052,8.0244572 L 0.078703631,8.0244572 z"
       id="path7376" />
    <path
       id="path7241"
       d="M 15.930199,8.0269616 L 15.930199,8.5250021 C 15.930199,12.657998 12.580706,15.99561 8.43287,15.99561 L 7.9330481,15.99561 L 7.9330481,8.0269616 L 15.930199,8.0269616 z"
       style="fill:url(#linearGradient2580);fill-opacity:1;stroke:none;stroke-width:1;stroke-linecap:round;stroke-linejoin:round;stroke-miterlimit:4;stroke-dasharray:none;stroke-dashoffset:1.08779998;stroke-opacity:1" />
    <path
       id="path7243"
       d="M 15.930199,8.0244572 L 15.930199,8.5224977 C 15.930199,9.9737023 15.501574,11.328144 14.787749,12.47119 L 14.787749,8.0244572 L 15.930199,8.0244572 z"
       style="opacity:0.93150689;fill:url(#radialGradient2577);fill-opacity:1;stroke:none;stroke-width:1;stroke-linecap:round;stroke-linejoin:round;stroke-miterlimit:4;stroke-dasharray:none;stroke-dashoffset:1.08779998;stroke-opacity:1" />
    <path
       id="path7245"
       d="M 15.930199,8.0244572 L 15.930199,8.5581289 C 15.930199,12.691125 12.616351,15.993105 8.4685716,15.993105 L 7.9330481,15.993105 L 7.9330481,14.854728 L 8.4685716,14.854728 C 12.40638,14.854728 15.582003,11.862272 15.894497,8.0244572 L 15.930199,8.0244572 z"
       style="opacity:0.7;fill:url(#radialGradient2574);fill-opacity:1;stroke:none;stroke-width:1;stroke-linecap:round;stroke-linejoin:round;stroke-miterlimit:4;stroke-dasharray:none;stroke-dashoffset:1.08779998;stroke-opacity:1" />
    <path
       id="path7247"
       d="M 15.930199,8.0244572 L 15.930199,8.5581289 C 15.930199,12.691125 12.616351,15.993105 8.4685716,15.993105 L 7.9330481,15.993105 L 7.9330481,14.854728 L 8.4685716,14.854728 C 12.415908,14.854728 15.595198,11.875818 15.894497,8.0244572 L 15.930199,8.0244572 z"
       style="opacity:0.47073173;fill:url(#radialGradient2571);fill-opacity:1;stroke:none;stroke-width:1;stroke-linecap:round;stroke-linejoin:round;stroke-miterlimit:4;stroke-dasharray:none;stroke-dashoffset:1.08779998;stroke-opacity:1" />
    <path
       id="path7249"
       d="M 15.930199,8.0244572 L 15.930199,8.5224977 C 15.930199,9.9737023 15.501574,11.328144 14.787749,12.47119 L 14.787749,8.0244572 L 15.930199,8.0244572 z"
       style="opacity:0.47397257;fill:url(#radialGradient2568);fill-opacity:1;stroke:none;stroke-width:1;stroke-linecap:round;stroke-linejoin:round;stroke-miterlimit:4;stroke-dasharray:none;stroke-dashoffset:1.08779998;stroke-opacity:1" />
    <path
       id="path7251"
       d="M 15.930199,8.0244572 L 15.930199,8.5581289 C 15.930199,12.691125 12.616465,15.993105 8.4685716,15.993105 L 7.9330481,15.993105 L 7.9330481,14.854728 L 8.4685716,14.854728 C 12.406494,14.854728 15.582026,11.862385 15.894497,8.0244572 L 15.930199,8.0244572 z"
       style="opacity:0.47073173;fill:url(#radialGradient2565);fill-opacity:1;stroke:none;stroke-width:1;stroke-linecap:round;stroke-linejoin:round;stroke-miterlimit:4;stroke-dasharray:none;stroke-dashoffset:1.08779998;stroke-opacity:1" />
    <path
       id="path7255"
       d="M 8.4685711,0.051847 C 12.61635,0.051847 15.930198,3.3545463 15.930198,7.4881864 L 15.930198,8.021956 L 15.894497,8.021956 C 15.582002,4.1833238 12.40638,1.190434 8.4685711,1.190434 L 7.9330476,1.190434 L 7.9330476,0.051847 L 8.4685711,0.051847 z"
       style="opacity:0.47397257;fill:url(#radialGradient2665);fill-opacity:1;stroke:none;stroke-width:1;stroke-linecap:round;stroke-linejoin:round;stroke-miterlimit:4;stroke-dasharray:none;stroke-dashoffset:1.08779998;stroke-opacity:1" />
    <path
       id="path7257"
       d="M 8.4328695,0.051847 C 12.707529,0.051847 15.930198,2.9872381 15.930198,7.5238242 L 15.930198,8.021956 L 7.9330476,8.021956 L 7.9330476,0.051847 L 8.4328695,0.051847 z"
       style="fill:url(#linearGradient2662);fill-opacity:1;stroke:none;stroke-width:1;stroke-linecap:round;stroke-linejoin:round;stroke-miterlimit:4;stroke-dasharray:none;stroke-dashoffset:1.08779998;stroke-opacity:1"
       sodipodi:nodetypes="cccccc" />
    <path
       id="path7259"
       d="M 8.4685711,0.051847 C 12.61635,0.051847 15.930198,3.3545463 15.930198,7.4881864 L 15.930198,8.021956 L 15.894497,8.021956 C 15.582002,4.1833238 12.40638,1.190434 8.4685711,1.190434 L 7.9330476,1.190434 L 7.9330476,0.051847 L 8.4685711,0.051847 z"
       style="fill:url(#radialGradient2659);fill-opacity:1;stroke:none;stroke-width:1;stroke-linecap:round;stroke-linejoin:round;stroke-miterlimit:4;stroke-dasharray:none;stroke-dashoffset:1.08779998;stroke-opacity:1" />
    <path
       id="path7261"
       d="M 8.4685711,0.051847 C 12.8689,0.051847 15.930198,3.1971936 15.930198,7.4881864 L 15.930198,8.021956 L 14.787748,8.021956 C 14.579799,4.1829822 12.406779,1.190434 8.4685711,1.190434 L 7.9330476,1.190434 L 7.9330476,0.051847 L 8.4685711,0.051847 z"
       style="opacity:0.93150689;fill:url(#radialGradient2656);fill-opacity:1;stroke:none;stroke-width:1;stroke-linecap:round;stroke-linejoin:round;stroke-miterlimit:4;stroke-dasharray:none;stroke-dashoffset:1.08779998;stroke-opacity:1"
       sodipodi:nodetypes="cccccccc" />
    <path
       id="path7263"
       d="M 8.4685711,0.051847 C 12.8689,0.051847 15.930198,3.1971936 15.930198,7.4881864 L 15.930198,8.021956 L 14.787748,8.021956 C 14.579799,4.1829822 12.406779,1.190434 8.4685711,1.190434 L 7.9330476,1.190434 L 7.9330476,0.051847 L 8.4685711,0.051847 z"
       style="opacity:0.47397257;fill:url(#radialGradient2652);fill-opacity:1;stroke:none;stroke-width:1;stroke-linecap:round;stroke-linejoin:round;stroke-miterlimit:4;stroke-dasharray:none;stroke-dashoffset:1.08779998;stroke-opacity:1"
       sodipodi:nodetypes="cccccccc" />
    <path
       style="opacity:0.47397257;fill:url(#radialGradient2690);fill-opacity:1;stroke:none;stroke-width:1;stroke-linecap:round;stroke-linejoin:round;stroke-miterlimit:4;stroke-dasharray:none;stroke-dashoffset:1.08779998;stroke-opacity:1"
       d="M 7.4332289,0.053747 C 3.2854496,0.053747 -0.0283983,3.3564463 -0.0283983,7.4900864 L -0.0283983,8.023856 L 0.0073032656,8.023856 C 0.31979764,4.1852238 3.4954205,1.192334 7.4332289,1.192334 L 7.9687524,1.192334 L 7.9687524,0.053747 L 7.4332289,0.053747 z"
       id="path3279" />
    <path
       style="fill:url(#linearGradient2687);fill-opacity:1;stroke:none;stroke-width:1;stroke-linecap:round;stroke-linejoin:round;stroke-miterlimit:4;stroke-dasharray:none;stroke-dashoffset:1.08779998;stroke-opacity:1"
       d="M 7.4689305,0.053747 C 2.9925597,0.053747 -0.0283983,3.190668 -0.0283983,7.5257242 L -0.0283983,8.023856 L 7.9687524,8.023856 L 7.9687524,0.053747 L 7.4689305,0.053747 z"
       id="path3281"
       sodipodi:nodetypes="cccccc" />
    <path
       style="fill:url(#radialGradient2684);fill-opacity:1;stroke:none;stroke-width:1;stroke-linecap:round;stroke-linejoin:round;stroke-miterlimit:4;stroke-dasharray:none;stroke-dashoffset:1.08779998;stroke-opacity:1"
       d="M 7.4332289,0.053747 C 3.2854496,0.053747 -0.0283983,3.3564463 -0.0283983,7.4900864 L -0.0283983,8.023856 L 0.0073032656,8.023856 C 0.31979764,4.1852238 3.4954205,1.192334 7.4332289,1.192334 L 7.9687524,1.192334 L 7.9687524,0.053747 L 7.4332289,0.053747 z"
       id="path3283" />
    <path
       sodipodi:nodetypes="cccccccc"
       style="opacity:0.93150689;fill:url(#radialGradient2681);fill-opacity:1;stroke:none;stroke-width:1;stroke-linecap:round;stroke-linejoin:round;stroke-miterlimit:4;stroke-dasharray:none;stroke-dashoffset:1.08779998;stroke-opacity:1"
       d="M 7.4332289,0.053747 C 3.0328996,0.053747 -0.0283983,3.1990936 -0.0283983,7.4900864 L -0.0283983,8.023856 L 1.1140518,8.023856 C 1.3220006,4.1848822 3.4950206,1.192334 7.4332289,1.192334 L 7.9687524,1.192334 L 7.9687524,0.053747 L 7.4332289,0.053747 z"
       id="path3285" />
    <path
       sodipodi:nodetypes="cccccccc"
       style="opacity:0.47397257;fill:url(#radialGradient2678);fill-opacity:1;stroke:none;stroke-width:1;stroke-linecap:round;stroke-linejoin:round;stroke-miterlimit:4;stroke-dasharray:none;stroke-dashoffset:1.08779998;stroke-opacity:1"
       d="M 7.4332289,0.053747 C 3.0328996,0.053747 -0.0283983,3.1990936 -0.0283983,7.4900864 L -0.0283983,8.023856 L 1.1140518,8.023856 C 1.3220006,4.1848822 3.4950206,1.192334 7.4332289,1.192334 L 7.9687524,1.192334 L 7.9687524,0.053747 L 7.4332289,0.053747 z"
       id="path3287" />
    <path
       style="fill:url(#radialGradient2549);fill-opacity:1;stroke:none;stroke-width:1;stroke-linecap:round;stroke-linejoin:round;stroke-miterlimit:4;stroke-dasharray:none;stroke-dashoffset:1.08779998;stroke-opacity:1"
       d="M 0.043002066,8.0264402 L 0.043002066,8.5601119 C 0.043002066,12.693108 3.3567357,15.995087 7.5046293,15.995087 L 8.0401528,15.995087 L 8.0401528,14.85671 L 7.5046293,14.85671 C 3.5667066,14.85671 0.39117516,11.864368 0.078703631,8.0264402 L 0.043002066,8.0264402 z"
       id="path3289" />
    <path
       id="path3291"
       d="M 15.894497,8.0264402 L 15.894497,8.5601119 C 15.894497,12.693108 12.580764,15.995087 8.43287,15.995087 L 7.8973465,15.995087 L 7.8973465,14.85671 L 8.43287,14.85671 C 12.370793,14.85671 15.546324,11.864368 15.858796,8.0264402 L 15.894497,8.0264402 z"
       style="fill:url(#radialGradient2545);fill-opacity:1;stroke:none;stroke-width:1;stroke-linecap:round;stroke-linejoin:round;stroke-miterlimit:4;stroke-dasharray:none;stroke-dashoffset:1.08779998;stroke-opacity:1" />
    <path
       sodipodi:nodetypes="cccccccc"
       style="fill:url(#radialGradient2541);fill-opacity:1;stroke:none;stroke-width:1;stroke-linecap:round;stroke-linejoin:round;stroke-miterlimit:4;stroke-dasharray:none;stroke-dashoffset:1.08779998;stroke-opacity:1"
       d="M 8.43287,0.05382577 C 12.833199,0.05382577 15.894497,3.1991724 15.894497,7.4901646 L 15.894497,8.0239353 L 14.752047,8.0239353 C 14.544098,4.184961 12.371078,1.1924128 8.43287,1.1924128 L 7.8973465,1.1924128 L 7.8973465,0.05382577 L 8.43287,0.05382577 z"
       id="path3293" />
    <circle
       transform="matrix(-9.0191796e-2,2.416682e-2,-2.416682e-2,-9.0191796e-2,41.249234,8.1944183)"
       id="circle4274"
       ry="8.0010004"
       cy="92"
       cx="343.99899"
       rx="8.0010004"
       r="36"
       style="opacity:0.5;fill:#000000;fill-opacity:1;filter:url(#filter4292)"
       sodipodi:cx="343.99899"
       sodipodi:cy="92"
       sodipodi:rx="36"
       sodipodi:ry="36" />
    <circle
       sodipodi:ry="36"
       sodipodi:rx="36"
       sodipodi:cy="92"
       sodipodi:cx="343.99899"
       style="fill:url(#linearGradient2544);fill-opacity:1"
       r="36"
       rx="8.0010004"
       cx="343.99899"
       cy="92"
       ry="8.0010004"
       id="circle3581_2_"
       transform="matrix(-9.0191796e-2,2.416682e-2,-2.416682e-2,-9.0191796e-2,41.249234,7.7741519)" />
    <circle
       transform="matrix(-6.7643852e-2,1.8125113e-2,-1.8125113e-2,-6.7643852e-2,32.936929,7.7780815)"
       id="circle4383"
       ry="8.0010004"
       cy="92"
       cx="343.99899"
       rx="8.0010004"
       r="36"
       style="fill:url(#radialGradient3219);fill-opacity:1"
       sodipodi:cx="343.99899"
       sodipodi:cy="92"
       sodipodi:rx="36"
       sodipodi:ry="36" />
    <circle
       clip-path="url(#clipPath5163)"
       transform="matrix(-9.0191796e-2,-2.416682e-2,-2.416682e-2,9.0191796e-2,41.249234,7.8055817)"
       id="circle4776"
       ry="8.0010004"
       cy="92"
       cx="343.99899"
       rx="8.0010004"
       r="36"
       style="opacity:0.8;fill:none;fill-opacity:1;stroke:url(#linearGradient2548);stroke-width:6.75138187;stroke-miterlimit:4;stroke-dasharray:none;stroke-opacity:1;filter:url(#filter7317)"
       sodipodi:cx="343.99899"
       sodipodi:cy="92"
       sodipodi:rx="36"
       sodipodi:ry="36" />
    <path
       style="opacity:0.8;fill:url(#linearGradient2610);fill-opacity:1"
       d="M 8.000004,4.8635717 C 6.8079482,4.8635717 5.811877,5.7053239 5.5717978,6.8260282 C 6.0503406,7.27213 6.9583505,7.5731683 8.000004,7.5731683 C 9.0416587,7.5731683 9.9496674,7.27213 10.42821,6.8260282 C 10.188132,5.7053239 9.1920595,4.8635717 8.000004,4.8635717 z"
       id="circle16776" />
  </g>
</svg>
